<?xml version="1.0" encoding="utf-8"?>
<!-- Generator: Adobe Illustrator 24.0.2, SVG Export Plug-In . SVG Version: 6.00 Build 0)  -->
<svg version="1.1" id="Ebene_1" xmlns="http://www.w3.org/2000/svg" xmlns:xlink="http://www.w3.org/1999/xlink" x="0px" y="0px"
	 viewBox="0 0 32 32" style="enable-background:new 0 0 32 32;" xml:space="preserve">
<style type="text/css">
	.st0{fill:#1EB5BC;}
</style>
<path class="st0" d="M20.7444038,7.6574574h10.0804424c0.3960934,0,0.7171917-0.3214965,0.7171917-0.718082V0.761488
	c0-0.3965857-0.3210983-0.7180819-0.7171917-0.7180819L17.8471317,0.0432768
	c-0.5495186-0.000003-1.0708408,0.2435971-1.4237938,0.6653025l-3.2532072,3.8869021
	c-0.2669811,0.3188052-0.7611866,0.3046546-1.0095348-0.0289059L9.0604677,0.4027428
	C8.8922682,0.1768318,8.6273775,0.0437392,8.345952,0.0437392H1.5097661c-0.8115924,0-1.2908475,0.9108776-0.831869,1.5810487
	l6.8429828,9.1909647c0.1214037,0.1630602,0.1149707,0.3882809-0.015542,0.5441275l-6.781074,8.0973644
	c-0.530991,0.6607971-0.0611811,1.6429806,0.7858816,1.6429806l6.7921028-0.0002136
	c0.5177803-0.0000153,1.0093136-0.2281933,1.3438845-0.6238518l2.1967573-2.6058617
	c0.2403364-0.2850933,0.6825657-0.2739487,0.9082708,0.022892l1.8784571,2.4704742
	c0.1210928,0.1626415,0.1150351,0.3871956-0.0146494,0.5430565l-2.6262264,3.1563187
	c-0.1386328,0.1666145-0.3440285,0.2629547-0.5606174,0.2629547H1.216787c-0.3960948,0-0.7171931,0.321497-0.7171931,0.7180824
	v6.1778774c0,0.3965912,0.3211025,0.718092,0.7172024,0.718092h11.3670654c0.0042048,0,0.0082617-0.0005741,0.0124578-0.0006294
	l1.7047081,0.0003529c0.5895691,0.0001221,1.148653-0.2622929,1.5256872-0.7161064l3.108613-3.7416534
	c0.2674866-0.3214798,0.7647991-0.3080311,1.0145645,0.0274353l2.7336216,3.6715851
	c0.3557186,0.4777737,0.9159279,0.7592468,1.5111065,0.7592468h6.3377266c0.8116016,0,1.2908573-0.9108772,0.8318691-1.581049
	l-6.7935753-9.1245441c-0.1210938-0.1626434-0.115036-0.3871975,0.0146484-0.5430603l6.7324677-8.0913897
	c0.530983-0.6607971,0.061182-1.642972-0.7858906-1.642972l-6.7352219,0.0040388
	c-0.56147,0.0003366-1.0940971,0.2490606-1.4551964,0.6795406l-2.0765381,2.4755154
	c-0.2674866,0.3214788-0.7647972,0.3080311-1.0145645-0.0274343l-1.7847347-2.3971071
	c-0.1214046-0.1630602-0.1149712-0.3882799,0.0155392-0.5441265l2.7041225-3.2290549
	C20.3239117,7.7530813,20.5286255,7.6574574,20.7444038,7.6574574z"/>
</svg>
