<?xml version="1.0" encoding="utf-8"?>
<!-- Generator: Adobe Illustrator 25.1.0, SVG Export Plug-In . SVG Version: 6.00 Build 0)  -->
<svg version="1.1" id="Ebene_1" xmlns="http://www.w3.org/2000/svg" xmlns:xlink="http://www.w3.org/1999/xlink" x="0px" y="0px"
	 viewBox="0 0 24 11.0849609" style="enable-background:new 0 0 24 11.0849609;" xml:space="preserve">
<style type="text/css">
	.st0{fill:none;}
	.st1{enable-background:new    ;}
	.st2{fill:#2395F6;}
</style>
<rect x="-0.6190382" y="0.0000535" class="st0" width="24.6190376" height="11.0848541"/>
<g class="st1">
	<path class="st2" d="M7.5449219,8.4296875H3.2250977L2.3398438,10.859375H0.1499023L4.2299805,0.2250977h2.3999023
		l4.050293,10.6342773h-2.25L7.5449219,8.4296875z M3.9150391,6.5395508h2.9399414L5.3847656,2.5200195L3.9150391,6.5395508z"/>
	<path class="st2" d="M12.0449219,10.859375V0.2250977h2.0996094V10.859375H12.0449219z"/>
	<path class="st2" d="M21.8691406,3.3295898c-0.0292969-0.1494141-0.0820312-0.3125-0.1572266-0.4873047
		s-0.1875-0.3378906-0.3378906-0.4873047c-0.1494141-0.1503906-0.3427734-0.2753906-0.5771484-0.375
		c-0.2353516-0.0996094-0.5224609-0.1503906-0.8623047-0.1503906c-0.25,0-0.4775391,0.0380859-0.6826172,0.1123047
		c-0.2050781,0.0751953-0.3798828,0.1757812-0.5253906,0.3007812c-0.1445312,0.125-0.2568359,0.2675781-0.3369141,0.4267578
		c-0.0800781,0.1601562-0.1201172,0.3300781-0.1201172,0.5107422c0,0.2900391,0.0947266,0.5419922,0.2851562,0.7568359
		c0.1894531,0.2158203,0.4794922,0.3632812,0.8701172,0.4423828l1.484375,0.2851562
		c0.4804688,0.0898438,0.9052734,0.2353516,1.2753906,0.4355469s0.6796875,0.4375,0.9296875,0.7119141
		c0.25,0.2753906,0.4404297,0.5830078,0.5703125,0.9228516c0.1298828,0.3393555,0.1943359,0.6948242,0.1943359,1.0649414
		c0,0.4101562-0.0849609,0.8125-0.2548828,1.2070312c-0.1699219,0.3955078-0.4169922,0.7451172-0.7421875,1.0498047
		c-0.3251953,0.3056641-0.7255859,0.5527344-1.2001953,0.7431641c-0.4746094,0.1894531-1.0224609,0.2841797-1.6425781,0.2841797
		c-0.7099609,0-1.3193359-0.1025391-1.8300781-0.3066406c-0.5097656-0.2050781-0.9375-0.4677734-1.2822266-0.7880859
		C16.5820312,9.6699219,16.3193359,9.3125,16.1396484,8.9169922c-0.1806641-0.3955078-0.2900391-0.7822266-0.3300781-1.1630859
		l1.9199219-0.5097656c0.0195312,0.2607422,0.0820312,0.5097656,0.1875,0.75
		c0.1044922,0.2402344,0.2519531,0.453125,0.4423828,0.6376953c0.1894531,0.1855469,0.4248047,0.3330078,0.7050781,0.4423828
		c0.2792969,0.1103516,0.609375,0.1650391,0.9902344,0.1650391c0.5595703,0,0.9873047-0.1220703,1.2822266-0.3671875
		s0.4423828-0.5576172,0.4423828-0.9375c0-0.3095703-0.1103516-0.578125-0.3300781-0.8027344
		c-0.2197266-0.2241211-0.5400391-0.3764648-0.9599609-0.456543l-1.4853516-0.3007812
		c-0.8496094-0.1699219-1.5273438-0.5175781-2.0322266-1.0419922c-0.5048828-0.5253906-0.7568359-1.1923828-0.7568359-2.0029297
		c0-0.4697266,0.0966797-0.9072266,0.2919922-1.3125c0.1953125-0.4042969,0.4628906-0.7568359,0.8027344-1.0576172
		c0.3398438-0.2998047,0.734375-0.5341797,1.1845703-0.7050781c0.4501953-0.1699219,0.9248047-0.2548828,1.4248047-0.2548828
		c0.640625,0,1.1875,0.0878906,1.6425781,0.2626953s0.8330078,0.3974609,1.1328125,0.6679688
		c0.2998047,0.2695312,0.5322266,0.5673828,0.6972656,0.8925781c0.1650391,0.3242188,0.2773438,0.6367188,0.3378906,0.9375
		L21.8691406,3.3295898z"/>
</g>
</svg>
