<?xml version="1.0" encoding="utf-8"?>
<!-- Generator: Adobe Illustrator 25.1.0, SVG Export Plug-In . SVG Version: 6.00 Build 0)  -->
<svg version="1.1" id="Capa_1" xmlns="http://www.w3.org/2000/svg" xmlns:xlink="http://www.w3.org/1999/xlink" x="0px" y="0px"
	 viewBox="0 0 512 512" style="enable-background:new 0 0 512 512;" xml:space="preserve">
<style type="text/css">
	.st0{fill:#FFFFFF;}
</style>
<path class="st0" d="M484.3330078,256c0-19.7299957-2.5150146-39.2480011-7.4840088-58.1620026l28.8999939-21.2610016
	l-56.0929871-97.1549988l-32.9129944,14.4199982c-28.1380005-27.9380035-62.5939941-47.8470001-100.6889954-58.1800003
	l-3.9609985-35.6619987H199.9070129l-3.9620056,35.6619987c-38.0960083,10.3330002-72.5510025,30.2419968-100.689003,58.1800003
	L62.3440056,79.4219971L6.2510071,176.5769958l28.9000015,21.2610016C30.1810093,216.7519989,27.6670074,236.269989,27.6670074,256
	s2.5149994,39.2479858,7.4840012,58.1619873L6.251009,335.4219971l56.0930023,97.1549988l32.9120026-14.4200134
	c28.1389999,27.9389954,62.5939941,47.8479919,100.6889954,58.1799927l3.9620056,35.6629944h112.1860046l3.9620056-35.6629944
	c38.0960083-10.3320007,72.5509949-30.2420044,100.6889954-58.1799927l32.9119873,14.4200134l56.0929871-97.1549988
	l-28.8999939-21.2600098c4.9689941-18.9140015,7.4840088-38.4320068,7.4840088-58.1620026V256z M299.0610046,449.6329956
	l-10.4809875,2.3200073L285.2410278,482h-58.4819946l-3.3390045-30.0469971l-10.4810028-2.3200073
	c-39.7389984-8.7950134-75.3820038-29.3890076-103.0739975-59.5549927l-7.25-7.8980103L74.8990326,394.322998
	l-29.2409973-50.6470032l24.3249969-17.8940125l-3.2160034-10.2279968
	c-6.038002-19.2070007-9.0999985-39.243988-9.0999985-59.5540009c0-20.3110046,3.0620003-40.3480072,9.0999985-59.5540009
	l3.2160034-10.2279968l-24.3250008-17.8939972l29.2410011-50.6470032l27.7160034,12.1430054l7.25-7.8980026
	c27.6920013-30.1660004,63.3350067-50.7600021,103.0739899-59.5550003l10.4810028-2.3199997l3.3390045-30.0470009h58.4819946
	l3.3389893,30.0470009l10.4809875,2.3199997c39.7389832,8.7959976,75.3819885,29.3899994,103.0740051,59.5550003l7.25,7.8980026
	l27.7160034-12.1429977l29.2409973,50.6469955l-24.3250122,17.8939972l3.2160034,10.2279968
	c6.0379944,19.2070007,9.1000061,39.2440033,9.1000061,59.5540009s-3.0610046,40.3470001-9.1000061,59.5540009
	l-3.2160034,10.2279968l24.3250122,17.8940125l-29.2409973,50.6470032l-27.7160034-12.1430054l-7.25,7.8980103
	C374.4430237,420.2440186,338.8010254,440.8380127,299.0610046,449.6329956z"/>
<path class="st0" d="M196.447998,221.6600037l-21.4329987-20.9900055l-54.862999,56.0189972l56.0199966,54.8630066
	l20.9900055-21.4339905l-34.5859985-33.8720093L196.447998,221.6600037z"/>
<path class="st0" d="M315.552002,221.6600037l33.8720093,34.5859985l-34.5859985,33.8720093l20.9899902,21.4339905
	l56.019989-54.8630066l-54.8630066-56.0189972L315.552002,221.6600037z"/>
<path class="st0" d="M220.0966797,354.1761169l42.6644592-202.7597046l29.3709717,6.1802063l-42.664444,202.7597046
	L220.0966797,354.1761169z"/>
</svg>
