<?xml version="1.0" encoding="utf-8"?>
<!-- Generator: Adobe Illustrator 25.1.0, SVG Export Plug-In . SVG Version: 6.00 Build 0)  -->
<svg version="1.1" id="Ebene_1" xmlns="http://www.w3.org/2000/svg" xmlns:xlink="http://www.w3.org/1999/xlink" x="0px" y="0px"
	 width="32px" height="31.8999996px" viewBox="0 0 32 31.8999996" style="enable-background:new 0 0 32 31.8999996;"
	 xml:space="preserve">
<style type="text/css">
	.st0{fill:#FCFCFC;}
</style>
<path class="st0" d="M31.9863892,14.5498409l-0.3956909-2.2441406c-0.0665283-0.3775635-0.3672485-0.670166-0.74646-0.7263794
	l-3.4876709-0.5167236c-0.338562-0.7438965-0.7480469-1.4489136-1.2199097-2.1063232l1.2972412-3.2838745
	c0.1409302-0.3565063,0.0378418-0.7632446-0.2557983-1.0096436l-1.7456665-1.4647827
	c-0.2937012-0.2463989-0.7120972-0.2772827-1.0387573-0.0765991L21.388916,4.9673824
	c-0.7269897-0.3497314-1.4928589-0.6309814-2.2892456-0.8353882L17.984375,0.7886105
	c-0.1212769-0.3637085-0.4616089-0.6090698-0.8449707-0.6090698h-2.2788086c-0.3833618,0-0.7236938,0.2453613-0.8449707,0.6090698
	l-1.1144409,3.3431396c-0.7971191,0.2045288-1.5635986,0.4860229-2.2911377,0.8361206L7.6063232,3.1213741
	C7.2796631,2.9206905,6.8612671,2.9515743,6.5675659,3.1979733L4.8218994,4.662756
	C4.5282593,4.9091549,4.4251709,5.3158932,4.5661011,5.6723995l1.296875,3.2843628
	c-0.4716797,0.6572876-0.8811035,1.3621216-1.2195435,2.105835l-3.4876709,0.5167236
	c-0.3792114,0.0562134-0.6799316,0.3488159-0.74646,0.7263794l-0.3956909,2.2441406
	c-0.0665894,0.3775024,0.1159058,0.7553101,0.4530029,0.9378662l3.1003418,1.6816406
	c0.0628052,0.8239746,0.2060547,1.6258545,0.421875,2.397644L1.651001,22.2047482
	c-0.2543335,0.2868652-0.2966309,0.7042847-0.1049194,1.0362549l1.1394043,1.9735107
	c0.1916504,0.3319702,0.5742798,0.5040894,0.9498901,0.4272461l3.4615479-0.7069092
	c0.5671387,0.5786743,1.1901245,1.1025391,1.8600464,1.5626221l-0.0966797,3.5285034
	c-0.010437,0.3832397,0.2254639,0.7301636,0.5857544,0.8613281l2.1412964,0.7793579
	c0.3602905,0.1311035,0.7640381,0.0170288,1.0023193-0.2832642l2.1903076-2.7614136
	C15.1813965,28.661108,15.5883789,28.6811275,16,28.6811275c0.4107666,0,0.8169556-0.0199585,1.2176514-0.05896l2.192688,2.7612305
	c0.2382812,0.300293,0.6420288,0.4143677,1.0023193,0.2832642l2.1412964-0.7793579
	c0.3602905-0.1311646,0.5961914-0.4780884,0.5857544-0.8613281l-0.0959473-3.5289917
	c0.6698608-0.460083,1.2926636-0.9838867,1.8596802-1.562561l3.4611816,0.7073364
	c0.3756104,0.0768433,0.7582397-0.0952759,0.9498901-0.4272461l1.1394043-1.9735107
	c0.1917114-0.3319702,0.1494141-0.7493896-0.1049194-1.0362549l-2.3375244-2.638916
	c0.2157593-0.7718506,0.3588867-1.5737305,0.4216919-2.3977661l3.1002197-1.6803589
	C31.8704834,15.305151,32.0529785,14.9273434,31.9863892,14.5498409z M10.8907471,19.5127926L7.3052979,16.001379
	l3.5114136-3.5853882l1.3717651,1.3433838l-2.1679077,2.213623l2.213623,2.1679077L10.8907471,19.5127926z M15.5819092,22.6363888
	l-1.8798218-0.3955078L16.4327393,9.263586l1.8798218,0.3955688L15.5819092,22.6363888z M21.1092529,19.5127926
	l-1.3434448-1.3718872l2.213623-2.1679077l-2.1679077-2.213623l1.3717651-1.3433838l3.5114136,3.5853882L21.1092529,19.5127926z"/>
</svg>
