<?xml version="1.0" encoding="utf-8"?>
<!-- Generator: Adobe Illustrator 24.1.1, SVG Export Plug-In . SVG Version: 6.00 Build 0)  -->
<svg version="1.1" id="Ebene_1" xmlns="http://www.w3.org/2000/svg" xmlns:xlink="http://www.w3.org/1999/xlink" x="0px" y="0px"
	 viewBox="0 0 32 31.9" style="enable-background:new 0 0 32 31.9;" xml:space="preserve">
<style type="text/css">
	.st0{fill:#FFFFFF;}
</style>
<path id="Shape" class="st0" d="M30,27.9c1.1,0,2,0.9,2,2s-0.9,2-2,2H2.2c-1.1,0-2-0.9-2-2s0.9-2,2-2H30z M6.1,13.5c1.1,0,2,0.9,2,2
	v8.8c0,1-0.8,1.9-1.8,2H6.1c-1.1,0-2-0.9-2-2v-8.8C4.1,14.4,5,13.5,6.1,13.5z M16.1,13.5c1.1,0,2,0.9,2,2v8.8c0,1-0.8,1.9-1.8,2
	h-0.2c-1.1,0-2-0.9-2-2v-8.8C14.1,14.4,15,13.5,16.1,13.5z M26,13.5c1.1,0,2,0.9,2,2v8.8c0,1-0.8,1.9-1.8,2H26c-1.1,0-2-0.9-2-2
	v-8.8C24,14.4,24.9,13.5,26,13.5z M16.8,0.3L17,0.4l14,7.8c1.7,1,1.1,3.5-0.7,3.7L30,12H2.2c-2,0-2.7-2.5-1.2-3.6l0.2-0.1l13.9-7.8
	C15.6,0.1,16.3,0.1,16.8,0.3z"/>
</svg>
