<?xml version="1.0" encoding="utf-8"?>
<!-- Generator: Adobe Illustrator 25.1.0, SVG Export Plug-In . SVG Version: 6.00 Build 0)  -->
<svg version="1.1" id="Ebene_1" xmlns="http://www.w3.org/2000/svg" xmlns:xlink="http://www.w3.org/1999/xlink" x="0px" y="0px"
	 viewBox="0 0 24 24" style="enable-background:new 0 0 24 24;" xml:space="preserve">
<style type="text/css">
	.st0{fill:#FFFFFF;}
</style>
<g>
	<path class="st0" d="M3.8780513,9.3581085V3.7160187H1.849731V2.5070343
		c0.6152344-0.0083008,1.1245117-0.1645508,1.527832-0.4677734c0.402832-0.3032225,0.6474609-0.6762694,0.734375-1.1181641h1.546875
		v8.4370117H3.8780513z"/>
	<path class="st0" d="M8.1281509,5.1461945c0-0.5458984,0.0517578-1.0727539,0.1557617-1.5795898
		s0.2988281-0.9814453,0.5849609-1.4233398c0.2773438-0.4160155,0.6455078-0.7563475,1.1049805-1.0205077
		c0.4594727-0.2646485,1.0185547-0.3964844,1.6772461-0.3964844c0.6582031,0,1.215332,0.1318359,1.6704102,0.3964844
		c0.4550781,0.2641602,0.8208008,0.6044922,1.0986328,1.0205077c0.2856445,0.4418945,0.4829102,0.9165039,0.5913086,1.4233398
		s0.1625977,1.0336914,0.1625977,1.5795898s-0.0541992,1.0722656-0.1625977,1.5795898
		c-0.1083984,0.5068359-0.3056641,0.9814453-0.5913086,1.4233398c-0.277832,0.4160156-0.6435547,0.7563477-1.0986328,1.0205078
		s-1.012207,0.3964844-1.6704102,0.3964844c-0.6586914,0-1.2177734-0.1323242-1.6772461-0.3964844
		S9.1462173,8.5651398,8.8688736,8.1491241c-0.2861328-0.4418945-0.480957-0.9165039-0.5849609-1.4233398
		C8.1799088,6.2184601,8.1281509,5.6920929,8.1281509,5.1461945z M9.9220963,5.1461945
		c0,0.4418945,0.0341797,0.847168,0.1040039,1.215332c0.0693359,0.3686523,0.1860352,0.6782227,0.3510742,0.9296875
		c0.1298828,0.2080078,0.2988281,0.375,0.5068359,0.5004883s0.4633789,0.1884766,0.7670898,0.1884766
		c0.3120117,0,0.5673828-0.0629883,0.7670898-0.1884766c0.1992188-0.1254883,0.3637695-0.2924805,0.4936523-0.5004883
		c0.1733398-0.2514648,0.2944336-0.5610352,0.3642578-0.9296875c0.0693359-0.3681641,0.1040039-0.7734375,0.1040039-1.215332
		s-0.034668-0.847168-0.1040039-1.2158203c-0.0698242-0.3681641-0.190918-0.6777344-0.3642578-0.9291992
		c-0.1298828-0.2080078-0.2944336-0.375-0.4936523-0.5004883c-0.199707-0.1254883-0.4550781-0.1884766-0.7670898-0.1884766
		c-0.3037109,0-0.559082,0.0629883-0.7670898,0.1884766s-0.3769531,0.2924805-0.5068359,0.5004883
		c-0.1650391,0.2514648-0.2817383,0.5610352-0.3510742,0.9291992C9.9562759,4.2990265,9.9220963,4.7042999,9.9220963,5.1461945z"/>
	<path class="st0" d="M19.1375294,9.3581085V3.7160187h-2.0273438V2.5070343
		c0.6152344-0.0083008,1.1240234-0.1645508,1.5273438-0.4677734s0.6474609-0.6762694,0.734375-1.1181641h1.546875v8.4370117
		H19.1375294z"/>
	<path class="st0" d="M0.847068,18.8538055c0-0.5458984,0.0517578-1.0722656,0.1557617-1.5791016
		c0.1040039-0.5078125,0.2988281-0.9824219,0.5849609-1.4238281c0.2773438-0.4160156,0.6455079-0.7558594,1.1049806-1.0205078
		s1.0185547-0.3964844,1.6772459-0.3964844c0.6582031,0,1.215332,0.1318359,1.6704102,0.3964844
		S6.861228,15.4348602,7.13906,15.8508759c0.2856445,0.4414062,0.4829102,0.9160156,0.5913086,1.4238281
		c0.1083984,0.5068359,0.1625977,1.0332031,0.1625977,1.5791016s-0.0541992,1.0722656-0.1625977,1.5791016
		S7.4247046,21.4143524,7.13906,21.8567352c-0.277832,0.4160156-0.6435547,0.7558594-1.0986328,1.0205078
		s-1.012207,0.3964844-1.6704102,0.3964844c-0.6586912,0-1.2177732-0.1318359-1.6772459-0.3964844
		s-0.8276368-0.6044922-1.1049806-1.0205078c-0.2861328-0.4423828-0.480957-0.9169922-0.5849609-1.4238281
		S0.847068,19.399704,0.847068,18.8538055z M2.6410134,18.8538055c0,0.4423828,0.0341797,0.8466797,0.1040039,1.2158203
		c0.0693359,0.3681641,0.1860352,0.6777344,0.3510742,0.9287109c0.1298828,0.2080078,0.2988281,0.375,0.5068359,0.5009766
		s0.4633787,0.1884766,0.7670896,0.1884766c0.3120117,0,0.5673828-0.0625,0.7670898-0.1884766
		c0.1992188-0.1259766,0.3637695-0.2929688,0.4936523-0.5009766c0.1733398-0.2509766,0.2944336-0.5605469,0.3642578-0.9287109
		c0.0693359-0.3691406,0.1040039-0.7734375,0.1040039-1.2158203s-0.034668-0.8466797-0.1040039-1.2158203
		c-0.0698242-0.3681641-0.190918-0.6777344-0.3642578-0.9296875c-0.1298828-0.2080078-0.2944336-0.3740234-0.4936523-0.5
		c-0.199707-0.1259766-0.4550781-0.1884766-0.7670898-0.1884766c-0.3037109,0-0.5590818,0.0625-0.7670896,0.1884766
		s-0.3769531,0.2919922-0.5068359,0.5c-0.1650391,0.2519531-0.2817383,0.5615234-0.3510742,0.9296875
		C2.6751931,18.0071259,2.6410134,18.4114227,2.6410134,18.8538055z"/>
	<path class="st0" d="M11.8569336,23.0657196V17.424118H9.8286133v-1.2089844
		c0.6152344-0.0087891,1.1245117-0.1650391,1.527832-0.46875c0.402832-0.3027344,0.6474609-0.6757812,0.734375-1.1171875h1.546875
		v8.4365234H11.8569336z"/>
	<path class="st0" d="M16.1070328,18.8538055c0-0.5458984,0.0517578-1.0722656,0.15625-1.5791016
		c0.1035156-0.5078125,0.2988281-0.9824219,0.5849609-1.4238281c0.2763672-0.4160156,0.6455078-0.7558594,1.1044922-1.0205078
		s1.0185547-0.3964844,1.6767578-0.3964844c0.6591797,0,1.2158203,0.1318359,1.6708984,0.3964844
		s0.8212891,0.6044922,1.0986328,1.0205078c0.2861328,0.4414062,0.4824219,0.9160156,0.5908203,1.4238281
		c0.1083984,0.5068359,0.1630859,1.0332031,0.1630859,1.5791016s-0.0546875,1.0722656-0.1630859,1.5791016
		s-0.3046875,0.9814453-0.5908203,1.4238281c-0.2773438,0.4160156-0.6435547,0.7558594-1.0986328,1.0205078
		s-1.0117188,0.3964844-1.6708984,0.3964844c-0.6582031,0-1.2177734-0.1318359-1.6767578-0.3964844
		s-0.828125-0.6044922-1.1044922-1.0205078c-0.2861328-0.4423828-0.4814453-0.9169922-0.5849609-1.4238281
		C16.1587906,19.9260712,16.1070328,19.399704,16.1070328,18.8538055z M17.9009781,18.8538055
		c0,0.4423828,0.0341797,0.8466797,0.1035156,1.2158203c0.0693359,0.3681641,0.1865234,0.6777344,0.3515625,0.9287109
		c0.1298828,0.2080078,0.2988281,0.375,0.5068359,0.5009766s0.4638672,0.1884766,0.7666016,0.1884766
		c0.3125,0,0.5673828-0.0625,0.7675781-0.1884766c0.1992188-0.1259766,0.3632812-0.2929688,0.4941406-0.5009766
		c0.1728516-0.2509766,0.2939453-0.5605469,0.3632812-0.9287109c0.0693359-0.3691406,0.1044922-0.7734375,0.1044922-1.2158203
		s-0.0351562-0.8466797-0.1044922-1.2158203c-0.0693359-0.3681641-0.1904297-0.6777344-0.3632812-0.9296875
		c-0.1308594-0.2080078-0.2949219-0.3740234-0.4941406-0.5c-0.2001953-0.1259766-0.4550781-0.1884766-0.7675781-0.1884766
		c-0.3027344,0-0.5585938,0.0625-0.7666016,0.1884766s-0.3769531,0.2919922-0.5068359,0.5
		c-0.1650391,0.2519531-0.2822266,0.5615234-0.3515625,0.9296875
		C17.9351578,18.0071259,17.9009781,18.4114227,17.9009781,18.8538055z"/>
</g>
</svg>
