<?xml version="1.0" encoding="utf-8"?>
<!-- Generator: Adobe Illustrator 24.1.1, SVG Export Plug-In . SVG Version: 6.00 Build 0)  -->
<svg version="1.1" id="Ebene_1" xmlns="http://www.w3.org/2000/svg" xmlns:xlink="http://www.w3.org/1999/xlink" x="0px" y="0px"
	 viewBox="0 0 28 28" style="enable-background:new 0 0 28 28;" xml:space="preserve">
<style type="text/css">
	.st0{display:none;}
	.st1{display:inline;}
	.st2{display:inline;fill:none;stroke:#3E3E3E;stroke-width:2;stroke-linejoin:round;}
	.st3{fill:none;}
	.st4{fill:none;stroke:#E4E4E4;stroke-width:2;}
	.st5{fill:none;stroke:#000000;stroke-width:2;stroke-miterlimit:10;}
	.st6{fill:#FFFFFF;stroke:#000000;stroke-width:2;stroke-miterlimit:10;}
	.st7{fill:#FFFFFF;}
	.st8{fill:none;stroke:#000000;stroke-width:2;stroke-linecap:round;stroke-linejoin:round;stroke-miterlimit:10;}
	.st9{stroke:#000000;stroke-width:2;stroke-miterlimit:10;}
	.st10{fill:none;stroke:#FFFFFF;stroke-width:2;stroke-linecap:round;stroke-linejoin:round;stroke-miterlimit:10;}
	.st11{fill:none;stroke:#000000;stroke-width:1.5;stroke-linecap:round;stroke-linejoin:round;stroke-miterlimit:10;}
	.st12{stroke:#000000;stroke-width:1.5;stroke-linecap:round;stroke-linejoin:round;stroke-miterlimit:10;}
	.st13{fill:#3E3E3E;}
</style>
<g id="account_details" class="st0">
	<path id="Shape" class="st1" d="M21,20c0.5,0,1,0.5,1,1c0,0.6-0.4,1-1,1H7c-0.5,0-1-0.5-1-1c0-0.6,0.4-1,1-1H21z M9,12.7
		c0.5,0,1,0.5,1,1v4.4c0,0.5-0.4,0.9-0.9,1l-0.1,0c-0.5,0-1-0.5-1-1v-4.4C8,13.2,8.5,12.7,9,12.7z M14,12.7c0.5,0,1,0.5,1,1v4.4
		c0,0.5-0.4,0.9-0.9,1l-0.1,0c-0.5,0-1-0.5-1-1v-4.4C13,13.2,13.5,12.7,14,12.7z M19,12.7c0.5,0,1,0.5,1,1v4.4c0,0.5-0.4,0.9-0.9,1
		l-0.1,0c-0.5,0-1-0.5-1-1v-4.4C18,13.2,18.5,12.7,19,12.7z M14.4,6.1l0.1,0.1l7,3.9c0.9,0.5,0.6,1.8-0.4,1.9l-0.1,0H7
		c-1,0-1.4-1.3-0.6-1.8l0.1-0.1l7-3.9C13.8,6,14.1,6,14.4,6.1z"/>
</g>
<g id="deactivate" class="st0">
	<g class="st1">
		<path d="M22,17C22,17.1,22,17.1,22,17c-0.6,1.7-2.4,2.5-4.1,1.9c-0.2-0.1-0.4-0.2-0.5-0.3l0.9-0.7l1.7-1.3l2-1.6l0,0
			C22.2,15.7,22.2,16.4,22,17L22,17z M16.1,17.4c-0.4-0.7-0.4-1.6-0.1-2.5c0.2-0.6,0.6-1.1,1-1.4c0.6-0.4,1.2-0.7,2-0.7
			c0.4,0,0.7,0.1,1.1,0.2c0.4,0.1,0.7,0.3,0.9,0.6l-1,0.8L16.1,17.4z M6,18v-4.5h8.7c-0.1,0.2-0.3,0.5-0.4,0.8
			c-0.5,1.3-0.4,2.6,0.1,3.7H6z M6,10h14v1.1c-1.1-0.2-2.2-0.1-3.2,0.4H6V10z M22,12V9c0-0.6-0.4-1-1-1H5C4.4,8,4,8.4,4,9v10
			c0,0.6,0.4,1,1,1h11c0.4,0.3,0.8,0.5,1.2,0.7c0.6,0.2,1.1,0.3,1.7,0.3c2,0,4-1.3,4.7-3.3C24.5,15.6,23.7,13.3,22,12L22,12z"/>
	</g>
</g>
<g id="geo_control" class="st0">
	<g class="st1">
		<path d="M14,20c-1.5,0-2.9-0.6-4-1.5c0.1-0.3,0.2-0.5,0.4-0.7c0.2-0.3,0.5-0.7,0.5-1.1c0-0.8-0.7-0.9-1.1-0.9
			c-0.3,0-0.5-0.1-0.7-0.2c-0.1-0.1-0.2-0.3-0.3-0.5c-0.2-0.3-0.4-0.7-0.7-1c0,0,0,0,0,0c0,0,0,0,0,0c0-3.3,2.7-6,6-6
			c0.2,0,0.5,0,0.7,0c-0.1,0-0.1,0.1-0.2,0.1C13.9,8.5,13.1,8.4,13,9c0,0.3,0.8-0.2,1,0c0.1,0.1,0.9,0,1,0c0.4,0-1,1,0,1
			c0.4,0,0.4-0.3,0.9-0.3c1.2,0,2.2,0.3,2.2,0.6c0,0.1-0.1,0.6-0.1,0.6c-0.2,0.2-0.6-0.3-1.1-0.3c-0.1,0-0.3,0-0.4,0
			c-0.4,0-0.6-0.1-0.7-0.1c-0.2-0.1-0.4-0.2-0.9-0.2c-0.5,0-1.5,0.1-2.1,0.7c-0.5,0.5-0.5,1.1-0.4,1.5c0,0.1,0,0.2,0,0.3
			c0,0.6,0.6,1,1.3,1c1,0,1.8,0.2,1.9,0.3c0,0.4,0.1,0.6,0.2,0.8c0.1,0.2,0.1,0.3,0.1,0.5c0,0.1,0,0.2-0.1,0.3
			c-0.1,0.2-0.2,0.3-0.2,0.7c0,0.7,0.6,1.4,0.7,1.5c0.1,0.1,0.1,0.1,0.2,0.1c0,0,0.1,0,0.1,0c0.2,0,1.8-0.5,1.8-1.6
			c0-0.3,0.1-0.4,0.3-0.6c0.2-0.1,0.4-0.3,0.4-0.7c0-0.3,0.5-0.7,0.9-1.1C20,17.3,17.3,20,14,20 M18.7,11.9c0.3,0.1,0.3,0.2,0.4,0.3
			c0.1,0.1,0.2,0.2,0.4,0.2c0.1,0,0.1,0,0.2-0.1c0.1,0.2,0.1,0.4,0.2,0.7C19,12.6,18,12,18.7,11.9 M14,6c-4.4,0-8,3.6-8,8s3.6,8,8,8
			s8-3.6,8-8S18.4,6,14,6"/>
	</g>
</g>
<g id="limits_1_" class="st0">
	<path id="limits" class="st1" d="M10,14c0,0.7-0.4,1.4-1,1.7l0,0v5.8c0,0.6-0.4,1-1,1s-1-0.4-1-1l0,0v-5.8c-0.6-0.3-1-1-1-1.7
		s0.4-1.4,1-1.7l0,0V6.5c0-0.6,0.4-1,1-1s1,0.4,1,1l0,0v5.8C9.6,12.6,10,13.3,10,14z M16,18c0,0.7-0.3,1.3-0.9,1.6L15,19.7v1.8
		c0,0.6-0.4,1-1,1c-0.5,0-0.9-0.4-1-0.9l0-0.1v-1.8c-0.6-0.3-1-1-1-1.7c0-0.7,0.3-1.3,0.9-1.6l0.1-0.1V6.5c0-0.6,0.4-1,1-1
		c0.5,0,0.9,0.4,1,0.9l0,0.1v9.8C15.6,16.6,16,17.3,16,18z M22,10c0,0.7-0.3,1.3-0.9,1.6L21,11.7v9.8c0,0.6-0.4,1-1,1
		c-0.5,0-0.9-0.4-1-0.9l0-0.1v-9.8c-0.6-0.3-1-1-1-1.7c0-0.7,0.3-1.3,0.9-1.6L19,8.3V6.5c0-0.6,0.4-1,1-1c0.5,0,0.9,0.4,1,0.9l0,0.1
		v1.8C21.6,8.6,22,9.3,22,10z"/>
</g>
<g id="miniconnect" class="st0">
	<path class="st1" d="M23,1c0.5,0,1,0.5,1,1v24c0,0.9-0.9,1.3-1.6,0.8L14,19.6l-8.4,7.2C4.9,27.3,4,26.8,4,26V2c0-0.6,0.4-1,1-1H23z
		 M22,3H6v21l7.4-6.4c0.4-0.3,0.9-0.3,1.2,0L22,24V3z"/>
</g>
<g id="moneyorder" class="st0">
	<path id="Shape_1_" class="st1" d="M17.8,6c0.5,0,0.9,0.4,0.9,0.9l0,0.1v0.5h2.4c0.5,0,0.9,0.4,0.9,0.9l0,0.1V21
		c0,0.5-0.4,0.9-0.8,1l-0.1,0H6.9c-0.5,0-0.9-0.4-0.9-0.9L6,21V8.4c0-0.5,0.4-0.9,0.8-1l0.1,0h2.4V7c0-0.5,0.4-1,0.9-1
		c0.5,0,0.9,0.4,0.9,0.9l0,0.1v0.5h5.6V7C16.8,6.4,17.2,6,17.8,6z M20.1,14.2H7.9v5.8h12.2V14.2z M9.3,9.4H7.9v2.9h12.2V9.4h-1.4
		v0.5c0,0.5-0.4,1-0.9,1c-0.5,0-0.9-0.4-0.9-1l0,0V9.4h-5.6v0.5c0,0.5-0.4,1-0.9,1s-0.9-0.4-0.9-1l0,0V9.4z"/>
</g>
<g id="moon" class="st0">
	<path id="Moon" class="st1" d="M11.8,4.8c-4.1,1-7.2,4.8-7.2,9.2c0,5.2,4.3,9.5,9.5,9.5c3.6,0,6.8-2,8.4-5.1
		c-1.2,0.6-2.5,0.9-3.9,0.9c-4.9,0-8.9-4-8.9-8.9C9.7,8.3,10.5,6.3,11.8,4.8 M14.1,25.5C7.7,25.5,2.6,20.3,2.6,14S7.7,2.5,14.1,2.5
		c0.3,0,0.5,0,0.8,0c0.4,0,0.8,0.3,0.9,0.8c0.1,0.4-0.1,0.9-0.5,1.1c-2.2,1.2-3.6,3.5-3.6,6c0,3.8,3.1,6.9,6.9,6.9
		c1.9,0,3.8-0.8,5.1-2.3c0.3-0.3,0.8-0.4,1.2-0.2c0.4,0.2,0.6,0.6,0.6,1.1C24.5,21.4,19.7,25.5,14.1,25.5"/>
</g>
<g id="overview" class="st0">
	<path id="Shape_2_" class="st1" d="M8,22h11.5V6H8V22z M20.3,24H7.2C6.5,24,6,23.5,6,22.8V5.2C6,4.5,6.5,4,7.2,4h13.1
		c0.7,0,1.2,0.5,1.2,1.2v17.6C21.5,23.5,21,24,20.3,24L20.3,24z M16.4,16.4c0.6,0,1.1,0.4,1.1,1c0,0.6-0.5,1-1.1,1h-5.4
		c-0.6,0-1.1-0.4-1.1-1c0-0.6,0.5-1,1.1-1H16.4z M16.4,12.7c0.6,0,1.1,0.4,1.1,1s-0.5,1-1.1,1h-5.4c-0.6,0-1.1-0.4-1.1-1
		s0.5-1,1.1-1H16.4z M16.4,9c0.6,0,1.1,0.4,1.1,1s-0.5,1-1.1,1h-5.4c-0.6,0-1.1-0.4-1.1-1s0.5-1,1.1-1H16.4z"/>
</g>
<g id="pin" class="st0">
	<path class="st1" d="M5.6,13.4L6.9,13l0.3,0.9l-1.3,0.4l0.8,1.1L6,16l-0.9-1.1L4.3,16l-0.8-0.6l0.8-1.1L3,13.9L3.3,13l1.3,0.4V12h1
		V13.4z M11.9,13.4l1.3-0.4l0.3,0.9l-1.3,0.4l0.8,1.1L12.2,16l-0.9-1.1L10.5,16l-0.8-0.6l0.8-1.1l-1.3-0.4L9.6,13l1.3,0.4V12h1V13.4
		z M18.1,13.4l1.3-0.4l0.3,0.9l-1.3,0.4l0.8,1.1L18.5,16l-0.9-1.1L16.8,16L16,15.4l0.8-1.1l-1.3-0.4l0.3-0.9l1.3,0.4V12h1V13.4z
		 M24.4,13.4l1.3-0.4l0.3,0.9l-1.3,0.4l0.8,1.1L24.7,16l-0.9-1.1L23.1,16l-0.8-0.6l0.8-1.1l-1.3-0.4l0.3-0.9l1.3,0.4V12h1V13.4z"/>
</g>
<g id="settings" class="st0">
	<path id="Settings" class="st1" d="M14.6,5c0.2,0,0.4,0.1,0.5,0.3l0.6,1.9c0.4,0.1,0.9,0.3,1.3,0.5l1.7-1c0.2-0.1,0.4-0.1,0.6,0
		l1,0.8c0.2,0.1,0.2,0.4,0.1,0.6l-0.7,1.8c0.3,0.4,0.5,0.8,0.7,1.2l2,0.3c0.2,0,0.4,0.2,0.4,0.4l0.2,1.3c0,0.2-0.1,0.4-0.3,0.5
		L21,14.5c0,0.5-0.1,0.9-0.2,1.3l1.3,1.5c0.1,0.2,0.2,0.4,0.1,0.6l-0.6,1.1c-0.1,0.2-0.3,0.3-0.5,0.2L19,18.9
		c-0.3,0.3-0.7,0.6-1,0.9l0.1,2c0,0.2-0.1,0.4-0.3,0.5l-1.2,0.4c-0.2,0.1-0.4,0-0.6-0.2L14.7,21c-0.2,0-0.5,0-0.7,0
		c-0.2,0-0.5,0-0.7,0l-1.2,1.6c-0.1,0.2-0.4,0.2-0.6,0.2l-1.2-0.4C10.1,22.2,10,22,10,21.8l0.1-2c-0.4-0.3-0.7-0.6-1-0.9l-1.9,0.4
		c-0.2,0-0.4-0.1-0.5-0.2l-0.6-1.1c-0.1-0.2-0.1-0.4,0.1-0.6l1.3-1.5C7.1,15.5,7.1,15,7,14.5l-1.7-0.9C5.1,13.5,5,13.3,5,13.1
		l0.2-1.3c0-0.2,0.2-0.4,0.4-0.4l2-0.3c0.2-0.4,0.4-0.8,0.7-1.2L7.6,8.1c-0.1-0.2,0-0.4,0.1-0.6l1-0.8c0.2-0.1,0.4-0.2,0.6,0l1.7,1
		c0.4-0.2,0.8-0.4,1.3-0.5l0.6-1.9C13,5.1,13.1,5,13.4,5H14.6z M14,9c-2.8,0-5,2.2-5,5s2.2,5,5,5s5-2.2,5-5S16.8,9,14,9z"/>
</g>
<g id="sun" class="st0">
	<path id="Sun" class="st1" d="M14,11c-1.7,0-3,1.3-3,3s1.3,3,3,3s3-1.3,3-3S15.7,11,14,11 M14,20.5c0.6,0,1,0.4,1,1v3
		c0,0.6-0.4,1-1,1s-1-0.4-1-1v-3C13,20.9,13.4,20.5,14,20.5z M9.4,18.6c0.4,0.4,0.4,1,0,1.4l-2.1,2.1c-0.2,0.2-0.5,0.3-0.7,0.3
		s-0.5-0.1-0.7-0.3c-0.4-0.4-0.4-1,0-1.4L8,18.6C8.4,18.2,9,18.2,9.4,18.6z M20,18.6l2.1,2.1c0.4,0.4,0.4,1,0,1.4
		c-0.2,0.2-0.5,0.3-0.7,0.3c-0.3,0-0.5-0.1-0.7-0.3L18.6,20c-0.4-0.4-0.4-1,0-1.4C19,18.2,19.6,18.2,20,18.6z M14,9c2.8,0,5,2.2,5,5
		s-2.2,5-5,5s-5-2.2-5-5S11.2,9,14,9z M6.5,13c0.6,0,1,0.4,1,1s-0.4,1-1,1h-3c-0.6,0-1-0.4-1-1s0.4-1,1-1H6.5z M24.5,13
		c0.6,0,1,0.4,1,1s-0.4,1-1,1h-3c-0.6,0-1-0.4-1-1s0.4-1,1-1H24.5z M22.1,5.9c0.4,0.4,0.4,1,0,1.4L20,9.4c-0.2,0.2-0.5,0.3-0.7,0.3
		c-0.3,0-0.5-0.1-0.7-0.3c-0.4-0.4-0.4-1,0-1.4l2.1-2.1C21.1,5.5,21.7,5.5,22.1,5.9z M7.3,5.9L9.4,8c0.4,0.4,0.4,1,0,1.4
		C9.2,9.6,9,9.7,8.7,9.7C8.4,9.7,8.2,9.6,8,9.4L5.9,7.3c-0.4-0.4-0.4-1,0-1.4C6.3,5.5,6.9,5.5,7.3,5.9z M14,2.5c0.6,0,1,0.4,1,1v3
		c0,0.6-0.4,1-1,1s-1-0.4-1-1v-3C13,2.9,13.4,2.5,14,2.5z"/>
</g>
<g id="topup" class="st0">
	<path id="Add" class="st1" d="M21.5,13H15V6.5c0-0.6-0.4-1-1-1s-1,0.4-1,1V13H6.5c-0.6,0-1,0.4-1,1s0.4,1,1,1H13v6.5
		c0,0.6,0.4,1,1,1s1-0.4,1-1V15h6.5c0.6,0,1-0.4,1-1S22.1,13,21.5,13"/>
</g>
<g id="add" class="st0">
	<path id="Combined-Shape" class="st1" d="M14,2c7.2,0,13,5.6,13,12.5C27,21.4,21.2,27,14,27C6.8,27,1,21.4,1,14.5C1,7.6,6.8,2,14,2
		z M14,4C8,4,3.1,8.7,3.1,14.5S8,25,14,25s10.9-4.7,10.9-10.5S20,4,14,4z M14,9c0.5,0,0.9,0.4,0.9,0.9l0,0v3.7h3.7
		c0.5,0,0.9,0.4,0.9,0.9c0,0.5-0.4,0.9-0.9,0.9l0,0h-3.7v3.7c0,0.5-0.4,0.9-0.9,0.9c-0.5,0-0.9-0.4-0.9-0.9l0,0v-3.7H9.4
		c-0.5,0-0.9-0.4-0.9-0.9c0-0.5,0.4-0.9,0.9-0.9l0,0h3.7V9.9C13.1,9.4,13.5,9,14,9z"/>
</g>
<g id="app_icon" class="st0">
	<path id="Rectangle" class="st2" d="M10.1,5h7.7c1.8,0,2.4,0.2,3.1,0.5s1.2,0.9,1.5,1.5S23,8.3,23,10.1v7.7c0,1.8-0.2,2.4-0.5,3.1
		s-0.9,1.2-1.5,1.5S19.7,23,17.9,23h-7.7c-1.8,0-2.4-0.2-3.1-0.5S5.9,21.6,5.5,21S5,19.7,5,17.9v-7.7C5,8.3,5.2,7.7,5.5,7
		S6.4,5.9,7,5.5S8.3,5,10.1,5z"/>
</g>
<g id="archiv" class="st0">
	<g id="Shape_3_" class="st1">
		<path d="M21,10c0.6,0,1,0.4,1,1v11c0,0.6-0.4,1-1,1H7c-0.6,0-1-0.4-1-1V11c0-0.6,0.4-1,1-1H21z M20,12H8v9h12V12z M16,13.5
			c0.6,0,1,0.4,1,1s-0.4,1-1,1h-4c-0.6,0-1-0.4-1-1s0.4-1,1-1H16z M22.5,5.5c0.6,0,1,0.4,1,1v1c0,0.6-0.4,1-1,1h-17
			c-0.6,0-1-0.4-1-1v-1c0-0.6,0.4-1,1-1H22.5z"/>
	</g>
</g>
<g id="back" class="st0">
	<path id="Back" class="st1" d="M16.4,5.4c0.6-0.6,1.5-0.6,2.1,0c0.6,0.6,0.6,1.5,0,2.1l0,0l-5.9,5.9l5.9,5.9c0.5,0.5,0.6,1.4,0.1,2
		l-0.1,0.1c-0.6,0.6-1.5,0.6-2.1,0l0,0l-7-7c-0.6-0.6-0.6-1.5,0-2.1l0,0L16.4,5.4z"/>
</g>
<g id="business" class="st0">
	<path id="business_1_" class="st1" d="M23,13.6L22,8.8c-0.1-0.5-0.5-0.8-1-0.8H5.9C5.5,8,5.1,8.3,5,8.8L4,13.6c0,0.1,0,0.1,0,0.2
		v1.9c0,0.6,0.4,1,1,1h0.5v5.1c0,0.6,0.4,1,1,1H15c0.5,0,1-0.4,1-1v-5.1h3.1V22c0,0.6,0.4,1,1,1h0.6c0.5,0,1-0.4,1-1v-5.2H22
		c0.5,0,1-0.4,1-1v-1.9C23,13.8,23,13.7,23,13.6L23,13.6z M5.9,14.8v-0.8l0.8-4h13.6l0.8,4v0.8H5.9z M14,17.1v3.8H7.4v-3.8H14z
		 M20.8,5c0.6,0,1,0.4,1,1s-0.5,1-1,1l0,0H6.1c-0.6,0-1-0.4-1-1s0.5-1,1-1l0,0H20.8z"/>
</g>
<g id="cake" class="st0">
	<path id="Fill-1" class="st1" d="M21,22H7v-3.9h0.9h12.2H21L21,22z M9.6,13.3h8.8l0,2.8H9.6V13.3z M21,16.1h-0.6v-2.8
		c0-1.1-0.9-2-2-2h-3.1V9.7c0-0.3-0.3-0.6-0.6-0.6h-1.5c-0.3,0-0.6,0.3-0.6,0.6v1.5H9.6c-1.1,0-2,0.9-2,2v2.8H7c-1.1,0-2,0.9-2,2V22
		c0,1.1,0.9,2,2,2h14c1.1,0,2-0.9,2-2v-3.9C23,17,22.1,16.1,21,16.1L21,16.1z M13.7,4.1c0.1-0.2,0.4-0.2,0.5,0
		c0.4,0.8,0.8,1.4,1.2,2.1c0.3,0.7,0.1,1.4-0.5,1.9c-0.6,0.4-1.3,0.4-1.9,0c-0.6-0.4-0.8-1.2-0.5-1.8C12.9,5.6,13.3,4.9,13.7,4.1"/>
</g>
<g id="camera" class="st0">
	<path class="st1" d="M6,20h16v-9.4h-4.1L16.2,8h-4.5l-1.7,2.7H6V20z M23,22H5c-0.5,0-1-0.4-1-1V9.7c0-0.5,0.4-1,1-1h4l1.4-2.2
		C10.6,6.2,10.9,6,11.2,6h5.6c0.3,0,0.7,0.2,0.8,0.5L19,8.7h4c0.5,0,1,0.4,1,1V21C24,21.6,23.6,22,23,22L23,22z M14.1,12.6
		c-1.2,0-2.1,0.9-2.1,2.1c0,1.2,0.9,2.1,2.1,2.1s2.1-0.9,2.1-2.1C16.2,13.5,15.3,12.6,14.1,12.6 M14.1,18.8c-2.3,0-4.2-1.9-4.2-4.2
		s1.9-4.2,4.2-4.2c2.3,0,4.2,1.9,4.2,4.2S16.5,18.8,14.1,18.8"/>
</g>
<g id="money_swift" class="st0">
	<path class="st1" d="M9.3,13.7c0.4-0.4,1-0.4,1.4,0c0.4,0.4,0.4,1,0,1.4l0,0L8.9,17L19,17c0.6,0,1,0.4,1,1s-0.4,1-1,1l0,0L9,19
		l1.8,1.8c0.4,0.4,0.4,1,0,1.4c-0.4,0.4-1,0.4-1.4,0l0,0l-3.5-3.5c-0.4-0.4-0.4-1,0-1.4l0,0L9.3,13.7z M18.2,5.7l3.5,3.5
		c0.4,0.4,0.4,1,0,1.4l-3.5,3.5c-0.4,0.4-1,0.4-1.4,0c-0.4-0.4-0.4-1,0-1.4l1.8-1.8l-10,0c-0.6,0-1-0.4-1-1c0-0.6,0.4-1,1-1l10.1,0
		l-1.9-1.9c-0.4-0.4-0.4-1,0-1.4C17.1,5.3,17.8,5.3,18.2,5.7z"/>
</g>
<g id="check" class="st0">
	<path id="Check" class="st1" d="M6.7,14.3c-0.4-0.4-0.4-1,0-1.4s1-0.4,1.4,0l4.2,4.2l8.5-8.5c0.4-0.4,1-0.4,1.4,0s0.4,1,0,1.4
		l-9.2,9.2l0,0c-0.4,0.4-0.9,0.4-1.3,0.1l-0.1-0.1l0,0L6.7,14.3z"/>
</g>
<g id="city_1_" class="st0">
	<path id="city" class="st1" d="M17.9,21.6l-2.6,0v-2.7c0-0.3-0.3-0.6-0.6-0.6h-1.4c-0.3,0-0.6,0.3-0.6,0.6v2.7l-2.6,0V6h7.9V21.6z
		 M17.9,4H10C8.9,4,8,4.9,8,6v15.6c0,1.1,0.9,2,2,2l7.9,0h0c0.5,0,1-0.2,1.4-0.6c0.4-0.4,0.6-0.9,0.6-1.4V6C19.9,4.9,19,4,17.9,4
		L17.9,4z M12.6,7.4h-0.7c-0.4,0-0.6,0.3-0.6,0.6v1c0,0.4,0.3,0.6,0.6,0.6h0.7c0.4,0,0.6-0.3,0.6-0.6V8C13.3,7.7,13,7.4,12.6,7.4
		 M16,7.4h-0.7c-0.4,0-0.6,0.3-0.6,0.6v1c0,0.4,0.3,0.6,0.6,0.6H16c0.4,0,0.6-0.3,0.6-0.6v-1C16.7,7.7,16.4,7.4,16,7.4 M12.6,10.8
		h-0.7c-0.4,0-0.6,0.3-0.6,0.6v1c0,0.4,0.3,0.6,0.6,0.6h0.7c0.4,0,0.6-0.3,0.6-0.6v-1C13.3,11.1,13,10.8,12.6,10.8 M16,10.8h-0.7
		c-0.4,0-0.6,0.3-0.6,0.6v1c0,0.4,0.3,0.6,0.6,0.6H16c0.4,0,0.6-0.3,0.6-0.6v-1C16.6,11.1,16.3,10.8,16,10.8 M12.6,14h-0.7
		c-0.4,0-0.6,0.3-0.6,0.6v1c0,0.4,0.3,0.6,0.6,0.6h0.7c0.4,0,0.6-0.3,0.6-0.6v-1C13.3,14.3,13,14,12.6,14 M16,14h-0.7
		c-0.4,0-0.6,0.3-0.6,0.6v1c0,0.4,0.3,0.6,0.6,0.6H16c0.4,0,0.6-0.3,0.6-0.6v-1C16.7,14.3,16.4,14,16,14"/>
</g>
<g id="close" class="st0">
	<path class="st1" d="M14,12.6l-3.2-3.2c-0.4-0.4-1-0.4-1.4,0c-0.4,0.4-0.4,1,0,1.4l3.2,3.2l-3.2,3.2c-0.4,0.4-0.4,1,0,1.4
		c0.4,0.4,1,0.4,1.4,0l3.2-3.2l3.2,3.2c0.4,0.4,1,0.4,1.4,0c0.4-0.4,0.4-1,0-1.4L15.4,14l3.2-3.2c0.4-0.4,0.4-1,0-1.4
		c-0.4-0.4-1-0.4-1.4,0L14,12.6z M21.8,6.2c4.3,4.3,4.3,11.3,0,15.6c-2.7,2.7-6.5,3.7-9.9,3c-2.1-0.4-4-1.4-5.6-3
		c-1.6-1.6-2.6-3.6-3-5.6c-0.7-3.5,0.3-7.2,3-9.9C10.5,1.9,17.5,1.9,21.8,6.2z"/>
</g>
<g id="close_1_" class="st0">
	<path id="Shape_4_" class="st1" d="M21.1,19.7c0.4,0.4,0.4,1,0,1.4c-0.4,0.4-1,0.4-1.4,0L14,15.4l-5.7,5.7c-0.4,0.4-1,0.4-1.4,0
		c-0.4-0.4-0.4-1,0-1.4l5.7-5.7L6.9,8.3c-0.4-0.4-0.4-1,0-1.4c0.4-0.4,1-0.4,1.4,0l5.7,5.7l5.7-5.7c0.4-0.4,1-0.4,1.4,0
		c0.4,0.4,0.4,1,0,1.4L15.4,14L21.1,19.7z"/>
</g>
<g id="cloud" class="st0">
	<path class="st1" d="M14.2,7c0,0-0.1,0-0.1,0C10.8,7.2,9,9.2,8.3,10.9c-0.9,0.2-2.1,0.6-3,1.5C4.4,13.3,4,14.5,4,15.8
		C4,19.5,7,21,9,21c0,0,0,0,0.1,0c0.3,0,8.2,0,8.8,0c0.8,0,1.5-0.1,1.6-0.1c0,0,0.1,0,0.1,0c1.2-0.3,3.5-1.6,3.4-4.5
		c-0.1-1.8-1.2-3.2-2.6-3.9c-0.2-1.1-0.5-1.7-0.6-2C18.5,7.9,16,7,14.2,7 M14.2,9c0.3,0,2.7,0.1,3.8,2.4c0,0,0.5,0.8,0.5,2.5
		c0,0,2.5,0.4,2.5,2.5c0.1,2-1.9,2.5-1.9,2.5S18.6,19,17.9,19c-0.7,0-8.8,0-8.8,0S6,18.9,6,15.8c0-3,3.4-3,3.8-3h0
		C9.8,12.8,10.3,9.2,14.2,9C14.2,9,14.2,9,14.2,9"/>
</g>
<g id="color_palette" class="st0">
	<path id="color" class="st1" d="M14,4c-1.6,0-3.1,0.4-4.5,1.1c-3.9,2-4.9,5.5-5.1,6.3c-0.3,0.9-1.6,6,3,10.1
		c0.4,0.3,2.7,2.4,5.9,2.4c0.5,0,1-0.1,1.6-0.2c1.1-0.2,1.7-1.3,1.5-2.4c-0.1-0.6-0.6-1.1-0.6-1.7c0-0.1,0-0.2,0-0.3
		c0.1-0.2,0.3-0.3,0.5-0.3c0.3,0,0.6,0,0.9,0c0.2,0,0.3,0,0.5,0c0.5,0,1.2,0,1.9-0.2c1.3-0.4,2.4-1.2,3.2-2.2
		c0.9-1.1,1.9-3.7,0.5-6.8C21.8,6.3,18.6,5,18,4.7C17.7,4.6,16.1,4,14,4 M14,6c1.9,0,3.3,0.6,3.3,0.6s2.9,1,4.2,3.9
		c1.3,2.9-0.2,4.8-0.2,4.8c-0.5,0.7-1.3,1.3-2.1,1.5C18.7,17,18.2,17,17.7,17c-0.3,0-0.6,0-0.9,0c-0.1,0-0.2,0-0.2,0
		c-0.1,0-0.2,0-0.3,0c-0.4,0-0.9,0.1-1.3,0.3c-0.5,0.3-0.8,0.7-1.1,1.2c-0.2,0.4-0.2,0.9-0.1,1.3c0.1,0.5,0.2,0.9,0.4,1.3
		c0,0,0.2,0.6,0.3,0.6h0c-0.4,0.1-0.8,0.1-1.1,0.1c-2.6,0-4.6-1.9-4.6-1.9c-4-3.6-2.4-8.1-2.4-8.1s0.7-3.3,4.1-5
		C11.7,6.2,12.9,6,14,6 M19.5,14c-0.8,0-1.5-0.7-1.5-1.5s0.7-1.5,1.5-1.5s1.5,0.7,1.5,1.5S20.3,14,19.5,14 M16.5,10
		C15.7,10,15,9.3,15,8.5S15.7,7,16.5,7C17.3,7,18,7.7,18,8.5S17.3,10,16.5,10 M11.5,10C10.7,10,10,9.3,10,8.5S10.7,7,11.5,7
		C12.3,7,13,7.7,13,8.5S12.3,10,11.5,10 M8.5,14C7.7,14,7,13.3,7,12.5S7.7,11,8.5,11s1.5,0.7,1.5,1.5S9.3,14,8.5,14"/>
</g>
<g id="coverup_active" class="st0">
	<path class="st1" d="M14.6,4.1L21.1,7C21.7,7.3,22,7.8,22,8.4v4.4c0,4.8-3.2,9.3-7.6,10.6c-0.3,0.1-0.6,0.1-0.8,0
		C9.2,22,6,17.5,6,12.7V8.4C6,7.8,6.3,7.3,6.9,7l6.5-2.9C13.8,4,14.2,4,14.6,4.1"/>
</g>
<g id="coverup_inactive" class="st0">
	<path id="Shape_5_" class="st1" d="M14.6,4.1L21.1,7C21.7,7.3,22,7.8,22,8.4v4.4c0,4.8-3.2,9.3-7.6,10.6c-0.3,0.1-0.6,0.1-0.8,0
		C9.2,22,6,17.5,6,12.7V8.4C6,7.8,6.3,7.3,6.9,7l6.5-2.9C13.8,4,14.2,4,14.6,4.1L14.6,4.1z M14,6L8,8.7v4.1c0,3.9,2.6,7.5,6,8.6
		c3.4-1.1,6-4.7,6-8.6V8.7L14,6z"/>
</g>
<g id="create_new" class="st0">
	<path id="Create-New" class="st1" d="M17.5,6l-1.6,2H7v14h14V12l2-2.5V23c0,0.6-0.4,1-1,1H6c-0.6,0-1-0.4-1-1V7c0-0.6,0.4-1,1-1
		H17.5z M14.8,16.6c-0.3,0.4-2.7,1.7-2.9,1.5s0.6-2.7,0.9-3.1C13.2,14.7,15.1,16.2,14.8,16.6z M20.8,6L22,7c0.2,0.2,0.2,0.5,0.1,0.7
		l-6.3,7.8c-0.2,0.2-0.5,0.2-0.7,0.1l-1.2-0.9c-0.2-0.2-0.2-0.5-0.1-0.7l6.3-7.8C20.3,5.9,20.6,5.9,20.8,6z M23,3.3l1.2,0.9
		c0.2,0.2,0.2,0.5,0.1,0.7l-0.9,1.2c-0.2,0.2-0.5,0.2-0.7,0.1l-1.2-0.9c-0.2-0.2-0.2-0.5-0.1-0.7l0.9-1.2C22.5,3.2,22.8,3.1,23,3.3z
		"/>
</g>
<g id="delete" class="st0">
	<path class="st1" d="M14,3c6.1,0,11,4.9,11,11c0,3.8-2,7.2-4.9,9.2C18.4,24.3,16.3,25,14,25s-4.4-0.7-6.1-1.8C5,21.2,3,17.8,3,14
		C3,7.9,7.9,3,14,3z M19,13H9c-0.6,0-1,0.4-1,1s0.4,1,1,1l0,0h10c0.6,0,1-0.4,1-1S19.6,13,19,13L19,13z"/>
</g>
<g id="arrow_x5F_right_x5F_discolure" class="st0">
	<path id="Disclosure" class="st1" d="M12.7,8.3l5,5l0,0c0.4,0.4,0.4,1,0,1.4l-5,5c-0.4,0.4-1,0.4-1.4,0c-0.4-0.4-0.4-1,0-1.4
		l4.3-4.3l-4.3-4.3c-0.4-0.4-0.4-1,0-1.4C11.7,7.9,12.3,7.9,12.7,8.3z"/>
</g>
<g id="arrow_x5F_down" class="st0">
	<path id="Disclosure_1_" class="st1" d="M19.7,12.2l-5,5l0,0c-0.4,0.4-1,0.4-1.4,0l-5-5c-0.4-0.4-0.4-1,0-1.4c0.4-0.4,1-0.4,1.4,0
		l4.3,4.3l4.3-4.3c0.4-0.4,1-0.4,1.4,0C20.1,11.2,20.1,11.8,19.7,12.2z"/>
</g>
<g id="arrow_x5F_up" class="st0">
	<path id="Disclosure_2_" class="st1" d="M8.3,15.8l5-5l0,0c0.4-0.4,1-0.4,1.4,0l5,5c0.4,0.4,0.4,1,0,1.4c-0.4,0.4-1,0.4-1.4,0
		L14,12.9l-4.3,4.3c-0.4,0.4-1,0.4-1.4,0C7.9,16.8,7.9,16.2,8.3,15.8z"/>
</g>
<g id="arrow_x5F_left" class="st0">
	<path id="Disclosure_3_" class="st1" d="M15.8,19.7l-5-5l0,0c-0.4-0.4-0.4-1,0-1.4l5-5c0.4-0.4,1-0.4,1.4,0c0.4,0.4,0.4,1,0,1.4
		L12.9,14l4.3,4.3c0.4,0.4,0.4,1,0,1.4S16.2,20.1,15.8,19.7z"/>
</g>
<g id="edit" class="st0">
	<path id="Edit" class="st1" d="M10.9,19.4C10.6,19.8,8.2,21.1,8,21c-0.2-0.2,0.6-2.7,0.9-3.1C9.3,17.5,11.2,19,10.9,19.4z
		 M16.9,8.8l1.2,0.9c0.2,0.2,0.2,0.5,0.1,0.7l-6.3,7.8c-0.2,0.2-0.5,0.2-0.7,0.1L10,17.4c-0.2-0.2-0.2-0.5-0.1-0.7l6.3-7.8
		C16.4,8.7,16.7,8.7,16.9,8.8z M19.1,6.1l1.2,0.9c0.2,0.2,0.2,0.5,0.1,0.7l-0.9,1.2c-0.2,0.2-0.5,0.2-0.7,0.1l-1.2-0.9
		c-0.2-0.2-0.2-0.5-0.1-0.7l0.9-1.2C18.6,6,18.9,5.9,19.1,6.1z"/>
</g>
<g id="exchange" class="st0">
	<path id="Fill-1_1_" class="st1" d="M18.4,9.4l1.4,1.4l-4.9,4.8l-3.3-3.2c-0.4-0.4-1-0.4-1.4,0l-6,5.9c-0.4,0.4-0.4,1,0,1.4
		c0.4,0.4,1,0.4,1.4,0l5.3-5.2l3.3,3.3c0.4,0.4,1,0.4,1.4,0l5.6-5.5l1.4,1.4c0.3,0.3,0.9,0.1,0.9-0.3L24,8.5C24,8.2,23.8,8,23.5,8
		l-4.8,0.6C18.3,8.6,18.1,9.1,18.4,9.4"/>
</g>
<g id="exclamation_mark_filled" class="st0">
	<path class="st1" d="M15.1,15.1c0,0.6-0.5,1.1-1.1,1.1s-1.1-0.5-1.1-1.1V9.1c0-0.6,0.5-1.1,1.1-1.1s1.1,0.5,1.1,1.1V15.1z M14,19.5
		c-0.6,0-1.1-0.5-1.1-1.1c0-0.6,0.5-1.1,1.1-1.1s1.1,0.5,1.1,1.1C15.1,19,14.6,19.5,14,19.5L14,19.5z M14,3C7.9,3,3,7.9,3,14
		s4.9,11,11,11s11-4.9,11-11S20.1,3,14,3L14,3z"/>
</g>
<g id="exclamation_mark" class="st0">
	<path id="Combined-Shape_1_" class="st1" d="M14,17.3c0.6,0,1.1,0.5,1.1,1.1c0,0.6-0.5,1.1-1.1,1.1s-1.1-0.5-1.1-1.1
		C12.9,17.8,13.4,17.3,14,17.3z M14,7.9c0.6,0,1.1,0.5,1.1,1.1v6.1c0,0.6-0.5,1.1-1.1,1.1s-1.1-0.5-1.1-1.1V9.1
		C12.9,8.4,13.4,7.9,14,7.9z"/>
</g>
<g id="exclamation_mark_outlined" class="st0">
	<g class="st1">
		<polygon id="zone" class="st3" points="0,28 28,28 28,0 0,0 		"/>
		<path id="Exclamation-mark" d="M22,14c0-4.4-3.6-8-8-8s-8,3.6-8,8s3.6,8,8,8S22,18.4,22,14z M24,14c0,5.5-4.5,10-10,10
			S4,19.5,4,14S8.5,4,14,4S24,8.5,24,14z M14,16c-0.6,0-1-0.4-1-1V9.5c0-0.6,0.4-1,1-1s1,0.4,1,1V15C15,15.6,14.6,16,14,16z M15,18
			c0,0.6-0.4,1-1,1s-1-0.4-1-1s0.4-1,1-1S15,17.4,15,18z"/>
	</g>
</g>
<g id="exit" class="st0">
	<path id="Combined-Shape_2_" class="st1" d="M22,5c0.6,0,1,0.4,1,1v16c0,0.6-0.4,1-1,1H8c-0.6,0-1-0.4-1-1v-5h2v4h12V7H9v4H7V6
		c0-0.6,0.4-1,1-1H22z M13.7,9.8l3.5,3.5c0.4,0.4,0.4,1,0,1.4l-3.5,3.5c-0.4,0.4-1,0.4-1.4,0c-0.4-0.4-0.4-1,0-1.4l1.8-1.8H4
		c-0.6,0-1-0.4-1-1c0-0.6,0.4-1,1-1h10.1l-1.9-1.9c-0.4-0.4-0.4-1,0-1.4C12.6,9.4,13.3,9.4,13.7,9.8z"/>
</g>
<g id="facebook" class="st0">
	<path class="st1" d="M11.3,8.5c0-0.7,0.1-1.3,0.4-1.9c0.6-1.3,1.9-2.1,3.9-2.1h2.8c0.3,0,0.5,0.2,0.5,0.5v3.1
		c0,0.3-0.2,0.5-0.5,0.5h-2c-0.1,0-0.3,0.2-0.3,0.2v1.6h2.3c0.3,0,0.5,0.2,0.5,0.5c0,0.5-0.1,1-0.1,1.5c0,0.4-0.1,0.8-0.1,1.1
		c0,0.2-0.1,0.4-0.1,0.4c0,0.2-0.2,0.4-0.5,0.4h-2V23c0,0.3-0.2,0.5-0.5,0.5h-3.7c-0.3,0-0.5-0.2-0.5-0.5v-8.5H10
		c-0.3,0-0.5-0.2-0.5-0.5v-3c0-0.3,0.2-0.5,0.5-0.5h1.3V8.5z"/>
</g>
<g id="faceid" class="st0">
	<path class="st1" d="M22.1,11.6c-0.7,0-1.1-0.4-1.1-1.1V8.4c0-0.9-0.5-1.3-1.3-1.3h-2.2c-0.7,0-1.1-0.4-1.1-1.1
		c0-0.7,0.4-1.1,1.1-1.1h2.4c2.2,0,3.3,1.2,3.3,3.3v2.4C23.2,11.2,22.8,11.6,22.1,11.6z M5.9,11.6c-0.7,0-1.1-0.4-1.1-1.1V8.1
		C4.8,6,6,4.8,8.2,4.8h2.4c0.7,0,1.1,0.4,1.1,1.1c0,0.7-0.4,1.1-1.1,1.1H8.4c-0.8,0-1.3,0.4-1.3,1.3v2.1C7.1,11.2,6.7,11.6,5.9,11.6
		z M12.4,15c0-0.3,0.3-0.6,0.6-0.6h0.3c0.1,0,0.2-0.1,0.2-0.2v-3c0-0.4,0.3-0.6,0.6-0.6c0.4,0,0.6,0.2,0.6,0.6v3
		c0,1-0.5,1.5-1.5,1.5h-0.1C12.7,15.7,12.4,15.4,12.4,15z M9.8,11.4c0-0.4,0.3-0.8,0.8-0.8c0.5,0,0.8,0.3,0.8,0.8v1.3
		c0,0.5-0.3,0.8-0.8,0.8c-0.4,0-0.8-0.3-0.8-0.8V11.4z M16.6,11.4c0-0.4,0.3-0.8,0.8-0.8c0.4,0,0.8,0.3,0.8,0.8v1.3
		c0,0.5-0.3,0.8-0.8,0.8c-0.5,0-0.8-0.3-0.8-0.8V11.4z M13.9,18.6c-1.2,0-2.4-0.5-3.1-1.3c-0.1-0.1-0.2-0.3-0.2-0.5
		c0-0.4,0.3-0.6,0.6-0.6c0.2,0,0.3,0.1,0.5,0.3c0.5,0.5,1.4,0.9,2.2,0.9c0.8,0,1.7-0.3,2.2-0.9c0.2-0.2,0.3-0.3,0.5-0.3
		c0.4,0,0.6,0.3,0.6,0.6c0,0.2-0.1,0.4-0.2,0.5C16.2,18.1,15.1,18.6,13.9,18.6z M8.2,23.2c-2.2,0-3.3-1.2-3.3-3.3v-2.4
		c0-0.7,0.4-1.1,1.1-1.1c0.7,0,1.1,0.4,1.1,1.1v2.1c0,0.9,0.5,1.3,1.3,1.3h2.2c0.7,0,1.1,0.4,1.1,1.1s-0.4,1.1-1.1,1.1H8.2z
		 M17.5,23.2c-0.7,0-1.1-0.4-1.1-1.1s0.4-1.1,1.1-1.1h2.2c0.8,0,1.3-0.4,1.3-1.3v-2.1c0-0.7,0.4-1.1,1.1-1.1s1.1,0.4,1.1,1.1v2.4
		c0,2.1-1.2,3.3-3.3,3.3H17.5z"/>
</g>
<g id="female" class="st0">
	<path class="st1" d="M14.3,23.9H5c0,0,0.3-2.7,3.1-3.7c2.8-1,3.7-1.7,3.8-2.3v-0.7c0,0-2.7-0.3-3.4-1.1c0,0-0.2-0.3,0.1-0.5
		c0,0,0.5-0.2,0.5-4c0-3.8,1.1-5.4,1.1-5.4s2.4-3.6,5.9-1.7c0,0,2.4-0.2,3.1,2.1c0,0,0.7,2.8,0.5,5c0,0-0.1,4,0.6,4.2
		c0,0,0.1,0.3-0.1,0.4c0,0-0.4,0.8-3.5,1.1v0.6c0,0,0.4,1.4,4,2.4c0,0,2.7,0.9,2.8,3.7H14.3z"/>
</g>
<g id="file" class="st0">
	<path class="st1" d="M8,21.9L8,6h7v5c0,0.5,0.4,1,1,1h4.4v10H8z M21.7,10l-2.9-2.9l-2.5-2.5C16,4.2,15.5,4,14.9,4H8
		C6.9,4,6,4.9,6,6l0,16c0,0.5,0.2,1,0.6,1.4c0.4,0.4,0.9,0.6,1.4,0.6h12.4c1.1,0,2-0.9,2-2V11.4C22.3,10.8,22.1,10.3,21.7,10
		L21.7,10z"/>
</g>
<g id="flashlight_off" class="st0">
	<path class="st1" d="M11.5,11C9.8,8.3,9,6.5,9,5.5v-1h10v1c0,1-0.8,2.8-2.5,5.5v14c0,0.8-0.7,1.5-1.5,1.5h-2
		c-0.8,0-1.5-0.7-1.5-1.5V11L11.5,11z M14,12c-0.8,0-1.5,0.7-1.5,1.5v2c0,0.8,0.7,1.5,1.5,1.5s1.5-0.7,1.5-1.5v-2
		C15.5,12.7,14.8,12,14,12z M14,16.5c-0.6,0-1-0.4-1-1s0.4-1,1-1s1,0.4,1,1S14.6,16.5,14,16.5z M10,2.5h8c0.6,0,1,0.4,1,1V4H9V3.5
		C9,2.9,9.4,2.5,10,2.5z"/>
</g>
<g id="flashlight_on" class="st0">
	<path class="st1" d="M11.5,11C9.8,8.3,9,6.5,9,5.5v-1h10v1c0,1-0.8,2.8-2.5,5.5v14c0,0.8-0.7,1.5-1.5,1.5h-2
		c-0.8,0-1.5-0.7-1.5-1.5V11L11.5,11z M14,12c-0.8,0-1.5,0.7-1.5,1.5v2c0,0.8,0.7,1.5,1.5,1.5s1.5-0.7,1.5-1.5v-2
		C15.5,12.7,14.8,12,14,12z M14,14.5c-0.6,0-1-0.4-1-1s0.4-1,1-1s1,0.4,1,1S14.6,14.5,14,14.5z M10,2.5h8c0.6,0,1,0.4,1,1V4H9V3.5
		C9,2.9,9.4,2.5,10,2.5z"/>
</g>
<g id="home_1_" class="st0">
	<path id="home" class="st1" d="M14,6c-0.5,0-1,0.2-1.4,0.6l-7,6.8c-0.6,0.6-0.8,1.4-0.5,2.2c0.2,0.6,0.7,1,1.2,1.1l0,4.3
		c0,0.5,0.2,1,0.6,1.4C7.3,22.8,7.8,23,8.3,23h2.9c1.1,0,2-0.9,2-2l0-2.1l1.6,0l0,2.1c0,0.5,0.2,1,0.6,1.4c0.4,0.4,0.9,0.6,1.4,0.6
		h2.9c1.1,0,2-0.9,2-2l0-4.3c0.5-0.2,1-0.6,1.2-1.1c0.3-0.8,0.1-1.6-0.5-2.2l-7-6.8C15.1,6.2,14.6,6,14.1,6L14,6C14,6,14,6,14,6
		 M14,8L14,8l7,6.8h-1.4l0,6.2h-2.9l0-4.1l-5.5,0l0,4.1H8.3l0-6.2H7L14,8"/>
</g>
<g id="hourglass" class="st0">
	<path class="st1" d="M9.4,20.9c0-2.2,1.3-3.1,1.9-3.4c1.2-0.6,1.9-1.7,1.9-3c0-1.3-0.7-2.4-1.9-3c-0.6-0.3-1.9-1.2-1.9-3.4V7h9.2
		v1.1c0,2.2-1.5,3.2-1.9,3.4c-1.2,0.6-1.9,1.7-1.9,3c0,1.3,0.7,2.4,1.9,3c0.6,0.3,1.9,1.2,1.9,3.4v1.1H9.4V20.9z M22,21.9h-1.4v-1.1
		c0-2.3-1.1-4.2-3-5.2c-0.5-0.3-0.8-0.7-0.8-1.2c0-0.5,0.3-1,0.8-1.2c1.9-1,3-2.9,3-5.2V7H22c0.6,0,1-0.4,1-1s-0.4-1-1-1H6
		C5.4,5,5,5.4,5,6s0.4,1,1,1h1.4v1.1c0,2.3,1.1,4.2,3,5.2c0.5,0.3,0.8,0.7,0.8,1.2c0,0.5-0.3,1-0.8,1.2c-1.9,1-3,2.9-3,5.2v1.1H6
		c-0.6,0-1,0.4-1,1c0,0.6,0.4,1,1,1h16c0.6,0,1-0.4,1-1C23,22.4,22.5,21.9,22,21.9L22,21.9z"/>
</g>
<g id="idea" class="st0">
	<path class="st1" d="M16,20.7c0,0.4,0,0.9-0.1,1.3c-0.1,0.6-0.5,0.9-1.1,1c-0.1,0-0.2,0.1-0.3,0.2C14.4,23.7,14,24,13.5,24
		c-0.5,0-0.9-0.3-1.1-0.8c-0.1-0.1-0.1-0.2-0.2-0.2c-0.8-0.2-1.1-0.7-1.1-1.5c0-0.3,0-0.6,0-0.9H16z M13.6,4l0.3,0
		c3.6,0.1,6.6,2.8,7.1,6.3c0.4,2.8-0.6,5.3-2.9,7c0,0,0,0,0,0.1l0,0.1l0,0.1l0,0.1c-0.1,1-0.9,1.8-2,1.9l-0.2,0h-4.6
		c-1,0-1.9-0.7-2.1-1.7l0-0.2l0-0.2c0,0,0-0.1,0-0.1c0,0,0-0.1-0.1-0.2C7.2,16,6.2,14.2,6,12.1c-0.3-3.1,1.4-6,4.3-7.4
		C11.3,4.2,12.4,4,13.6,4z M13.6,6.1c-0.8,0-1.6,0.2-2.3,0.5c-2.1,1-3.3,3-3.1,5.3c0.1,1.5,0.8,2.8,2.1,3.7c0.5,0.4,0.8,0.8,0.9,1.4
		l0,0.2l0,0l0,0.2h4.6c0-0.1,0-0.1,0-0.1c0.1-0.7,0.3-1.3,0.9-1.7c1.7-1.3,2.4-3,2.1-5C18.4,7.9,16.1,6.1,13.6,6.1z"/>
</g>
<g id="infinity" class="st0">
	<path class="st1" d="M20.7,19.5c-1.9,0-3.7-0.7-4.9-2c-0.4-0.4-0.3-1,0.1-1.4c0.4-0.4,1-0.3,1.4,0.1c0.8,0.9,2,1.4,3.4,1.4h0.1
		c1.3,0,2.7-0.9,3.3-2.1c0.6-1.2,0.6-2.7-0.1-3.8c-1-1.6-3.2-2.1-4.8-1.3c-1.6,0.8-2.8,2.3-4,3.9l-0.4,0.5c-0.7,1-1.5,2-2.4,2.8
		c-2.4,2.1-6.3,2.8-8.8,0.2c-1.4-1.5-1.9-3.6-1.3-5.6c0.6-1.9,2.1-3.4,4.1-4c2-0.6,5-0.1,6.5,2c0.3,0.4,0.2,1.1-0.2,1.4
		c-0.4,0.3-1.1,0.2-1.4-0.2c-0.9-1.3-2.9-1.6-4.3-1.2c-1.3,0.4-2.3,1.4-2.7,2.7c-0.4,1.2,0,2.7,0.8,3.6c1.6,1.7,4.3,1.2,6-0.3
		c0.8-0.7,1.5-1.6,2.2-2.5l0.4-0.5c1.3-1.8,2.7-3.4,4.6-4.5c2.6-1.4,5.8-0.5,7.4,1.9c1.1,1.7,1.2,4,0.2,5.8
		C24.9,18.2,22.8,19.5,20.7,19.5L20.7,19.5z"/>
</g>
<g id="info" class="st0">
	<path id="Info" class="st1" d="M22,14c0-4.4-3.6-8-8-8s-8,3.6-8,8s3.6,8,8,8S22,18.4,22,14z M24,14c0,5.5-4.5,10-10,10S4,19.5,4,14
		S8.5,4,14,4S24,8.5,24,14z M14,12c0.6,0,1,0.4,1,1v5.5c0,0.6-0.4,1-1,1s-1-0.4-1-1V13C13,12.4,13.4,12,14,12z M15,10
		c0,0.6-0.4,1-1,1s-1-0.4-1-1s0.4-1,1-1S15,9.4,15,10z"/>
</g>
<g id="keyboard" class="st0">
	<path class="st1" d="M24,6c0.6,0,1,0.4,1,1v14c0,0.6-0.4,1-1,1H4c-0.6,0-1-0.4-1-1V7c0-0.6,0.4-1,1-1H24z M23,8H5v12h18V8z
		 M18,16.5c0.3,0,0.5,0.2,0.5,0.5v1.5c0,0.3-0.2,0.5-0.5,0.5h-8c-0.3,0-0.5-0.2-0.5-0.5V17c0-0.3,0.2-0.5,0.5-0.5H18z M8.5,12.5
		C8.8,12.5,9,12.7,9,13v1.5C9,14.8,8.8,15,8.5,15H7c-0.3,0-0.5-0.2-0.5-0.5V13c0-0.3,0.2-0.5,0.5-0.5H8.5z M11.6,12.5
		c0.3,0,0.5,0.2,0.5,0.5v1.5c0,0.3-0.2,0.5-0.5,0.5h-1.5c-0.3,0-0.5-0.2-0.5-0.5V13c0-0.3,0.2-0.5,0.5-0.5H11.6z M14.8,12.5
		c0.3,0,0.5,0.2,0.5,0.5v1.5c0,0.3-0.2,0.5-0.5,0.5h-1.5c-0.3,0-0.5-0.2-0.5-0.5V13c0-0.3,0.2-0.5,0.5-0.5H14.8z M17.9,12.5
		c0.3,0,0.5,0.2,0.5,0.5v1.5c0,0.3-0.2,0.5-0.5,0.5h-1.5c-0.3,0-0.5-0.2-0.5-0.5V13c0-0.3,0.2-0.5,0.5-0.5H17.9z M21,12.5
		c0.3,0,0.5,0.2,0.5,0.5v1.5c0,0.3-0.2,0.5-0.5,0.5h-1.5c-0.3,0-0.5-0.2-0.5-0.5V13c0-0.3,0.2-0.5,0.5-0.5H21z M8.5,9.5
		C8.8,9.5,9,9.7,9,10v1.5C9,11.8,8.8,12,8.5,12H7c-0.3,0-0.5-0.2-0.5-0.5V10c0-0.3,0.2-0.5,0.5-0.5H8.5z M11.6,9.5
		c0.3,0,0.5,0.2,0.5,0.5v1.5c0,0.3-0.2,0.5-0.5,0.5h-1.5c-0.3,0-0.5-0.2-0.5-0.5V10c0-0.3,0.2-0.5,0.5-0.5H11.6z M14.8,9.5
		c0.3,0,0.5,0.2,0.5,0.5v1.5c0,0.3-0.2,0.5-0.5,0.5h-1.5c-0.3,0-0.5-0.2-0.5-0.5V10c0-0.3,0.2-0.5,0.5-0.5H14.8z M17.9,9.5
		c0.3,0,0.5,0.2,0.5,0.5v1.5c0,0.3-0.2,0.5-0.5,0.5h-1.5c-0.3,0-0.5-0.2-0.5-0.5V10c0-0.3,0.2-0.5,0.5-0.5H17.9z M21,9.5
		c0.3,0,0.5,0.2,0.5,0.5v1.5c0,0.3-0.2,0.5-0.5,0.5h-1.5c-0.3,0-0.5-0.2-0.5-0.5V10c0-0.3,0.2-0.5,0.5-0.5H21z"/>
</g>
<g id="legitimation" class="st0">
	<path id="Shape_6_" class="st1" d="M25,5c0.6,0,1,0.4,1,1v15c0,0.6-0.4,1-1,1H3c-0.6,0-1-0.4-1-1V6c0-0.6,0.4-1,1-1H25z M8.5,15.3
		c-1.8,0-3.4,0.8-4.5,2c0,0,0.1,0.1,0.1,0.1c0.3,0.3,0.7,0.6,1,0.9c1,0.7,2.2,1,3.4,1c1.2,0,2.4-0.4,3.4-1c0.4-0.2,0.7-0.5,1-0.9
		c0,0,0.1-0.1,0.1-0.1C11.9,16.1,10.3,15.3,8.5,15.3z M21.5,13.8H16c-0.4,0-0.8,0.3-0.8,0.8s0.3,0.8,0.8,0.8l0,0h5.5
		c0.4,0,0.8-0.3,0.8-0.8S21.9,13.8,21.5,13.8L21.5,13.8z M8.5,8c-1.9,0-3.4,1.5-3.4,3.4c0,1.2,0.6,2.2,1.5,2.8
		c0.5,0.4,1.2,0.6,1.9,0.6s1.3-0.2,1.9-0.6c0.9-0.6,1.5-1.6,1.5-2.8C11.9,9.5,10.4,8,8.5,8z M23,11.3h-7c-0.4,0-0.8,0.3-0.8,0.8
		c0,0.4,0.3,0.7,0.6,0.7l0.1,0h7c0.4,0,0.8-0.3,0.8-0.8S23.4,11.3,23,11.3z M23,8.8h-7c-0.4,0-0.8,0.3-0.8,0.8
		c0,0.4,0.3,0.7,0.6,0.7l0.1,0h7c0.4,0,0.8-0.3,0.8-0.8S23.4,8.8,23,8.8z"/>
</g>
<g id="lock_open" class="st0">
	<path class="st1" d="M13.6,3C15.4,2.9,17,3.7,18,5c0.4,0.6,0.1,1.4-0.5,1.6c-0.4,0.1-0.8,0-1.1-0.4c-0.6-0.8-1.7-1.3-2.8-1.1
		C12,5.3,11,6.6,11,8.1l0,0V10h10c0.6,0,1,0.4,1,1l0,0v12c0,0.6-0.4,1-1,1l0,0H7c-0.6,0-1-0.4-1-1l0,0V11c0-0.6,0.4-1,1-1l0,0h2V8.2
		C9,5.6,11,3.2,13.6,3z M20,12H8v10h12V12z M13,17.2V19c0,0.6,0.4,1,1,1c0.6,0,1-0.4,1-1v-1.8c0.6-0.3,1-1,1-1.7c0-1.1-0.9-2-2-2
		s-2,0.9-2,2C12,16.2,12.4,16.9,13,17.2"/>
</g>
<g id="logout" class="st0">
	<path class="st1" d="M10.5,5.6l0,2.2C7.8,9.1,6,11.8,6,15c0,4.4,3.6,8,8,8c3.5,0,6.4-2.2,7.5-5.3c0.3-0.8,0.5-1.7,0.5-2.7
		c0-0.9-0.2-1.8-0.5-2.7c-0.7-2-2.2-3.6-4-4.5l0-2.2l0.1,0c2.7,1.1,4.8,3.3,5.8,6c0.4,1,0.6,2.2,0.6,3.3c0,1.2-0.2,2.3-0.6,3.3
		C22.1,22.2,18.3,25,14,25C8.5,25,4,20.5,4,15C4,10.7,6.7,7,10.5,5.6z M14,2c0.6,0,1,0.4,1,1v10c0,0.6-0.4,1-1,1s-1-0.4-1-1V3
		C13,2.4,13.4,2,14,2z"/>
</g>
<g id="male" class="st0">
	<path class="st1" d="M19.9,19.9c-1-0.3-1.8-0.6-2.3-0.9c-0.6-0.3-1.2-0.7-1.6-1.3c-0.2-0.3-0.4-0.7-0.4-1c0,0,0-0.2,0.4-0.4
		c0.3-0.2,1.2-1.2,1.1-2.8c0,0,0-0.6,0.4-0.7c0.4-0.1,1-1.1,1-2.2c0,0,0.1-0.7-0.4-0.6c0,0-0.3-0.3-0.1-0.6C18,9,18.9,5.5,17,5.2
		c0,0-0.7-1.4-3.4-1.2c-2.7-0.2-3.4,1.2-3.4,1.2C8.3,5.5,9.1,9,9.3,9.4C9.4,9.7,9.1,10,9.1,10c-0.5-0.1-0.4,0.6-0.4,0.6
		c0,1.1,0.6,2.1,1,2.2c0.4,0.1,0.4,0.7,0.4,0.7c-0.1,1.6,0.8,2.6,1.1,2.8c0.3,0.2,0.4,0.4,0.4,0.4c0,0.3-0.2,0.7-0.4,1
		c-0.4,0.6-1,1-1.6,1.3c-0.5,0.2-1.3,0.6-2.3,0.9c0,0,0,0-0.1,0C5.9,20.3,5,21.6,5,23v1h8.6h8.6v-1C22.2,21.6,21.3,20.3,19.9,19.9
		C19.9,19.9,19.9,19.9,19.9,19.9"/>
</g>
<g id="more" class="st0">
	<path id="Oval-2" class="st1" d="M14,3c6.1,0,11,4.9,11,11s-4.9,11-11,11S3,20.1,3,14S7.9,3,14,3z M14,12.3c-0.9,0-1.7,0.7-1.7,1.7
		s0.7,1.7,1.7,1.7s1.7-0.7,1.7-1.7S14.9,12.3,14,12.3z M9,12.3c-0.9,0-1.7,0.7-1.7,1.7s0.7,1.7,1.7,1.7s1.7-0.7,1.7-1.7
		S9.9,12.3,9,12.3z M19,12.3c-0.9,0-1.7,0.7-1.7,1.7s0.7,1.7,1.7,1.7s1.7-0.7,1.7-1.7S19.9,12.3,19,12.3z"/>
</g>
<g id="no_connection" class="st0">
	<path class="st1" d="M21.2,5.3c0.4-0.4,0.9-0.4,1.3,0c0.4,0.4,0.4,1,0,1.3l0,0L19.1,10l-1.3,1.3l-7.9,8l-1.8,1.9L6,23.4
		c-0.2,0.2-0.4,0.3-0.7,0.3c-0.2,0-0.5-0.1-0.7-0.3c-0.4-0.4-0.4-1,0-1.3l0,0l2.4-2.4L7.7,19L21.2,5.3z M18.3,12.3l1.5-1.5
		c0,0,0,0,0,0c0.2,0.3,0.5,1,0.6,2c1.4,0.7,2.6,2,2.6,3.9c0.1,2.9-2.2,4.2-3.4,4.5c0,0-0.1,0-0.1,0c-0.1,0-0.8,0.1-1.6,0.1l-0.1,0
		c-0.8,0-4.6,0-6.9,0l-1.5,0l2-2l0.8,0c2.2,0,5,0,5.7,0l0.1,0c0.7,0,1.3-0.1,1.3-0.1s1.9-0.5,1.9-2.5s-2.5-2.5-2.5-2.5
		c0-0.8-0.1-1.4-0.2-1.8L18.3,12.3l1.5-1.5L18.3,12.3z M14.2,7.3c0.8,0,1.7,0.2,2.5,0.6L17.1,8l-1.5,1.5c-0.6-0.2-0.9-0.2-1.1-0.2
		l-0.1,0h-0.2c-3.8,0.2-4.4,3.6-4.4,3.8l0,0l-0.1,0c-0.5,0-3.8,0.2-3.8,3c0,1,0.3,1.7,0.7,2.2l0.1,0.1l-1.4,1.4
		C4.6,19,4,17.8,4,16.1c0-1.3,0.4-2.5,1.3-3.4c0.9-0.9,2-1.3,3-1.5c0.8-1.8,2.5-3.8,5.8-3.9C14.2,7.3,14.2,7.3,14.2,7.3z"/>
</g>
<g id="fees" class="st0">
	<path class="st1" d="M21.7,7.3c0.5,0.5,0.4,1.3-0.1,1.7S20.3,9.5,19.8,9c-1-1.1-2.6-1.7-4.2-1.5c-1.4,0.1-2.8,0.9-3.7,2
		c-0.3,0.4-0.6,0.9-0.8,1.4l4,0c0.7,0,1.2,0.5,1.2,1.2c0,0.7-0.6,1.2-1.2,1.2l-4.5,0c0,0.3,0,0.7,0,1.1l4.5,0c0.7,0,1.2,0.5,1.2,1.2
		c0,0.7-0.6,1.2-1.2,1.2l-4,0c0.4,1.1,0.9,1.9,1.6,2.5c0.7,0.7,1.7,1.1,2.8,1.2c1.6,0.2,3.4-0.4,4.5-1.5c0.5-0.5,1.3-0.5,1.8,0
		c0.5,0.5,0.5,1.2,0,1.7C20,22.4,17.5,23.2,15,23c-1.6-0.2-3.1-0.8-4.2-1.9c-1.2-1.1-2-2.6-2.5-4.3l-2.1,0c-0.7,0-1.2-0.5-1.2-1.2
		c0-0.7,0.6-1.2,1.2-1.2l1.7,0c0-0.4,0-0.7,0-1.1l-1.7,0C5.6,13.3,5,12.7,5,12c0-0.7,0.6-1.2,1.2-1.2l2.1,0c0.3-1.1,0.8-2.1,1.6-2.9
		c1.3-1.6,3.3-2.6,5.4-2.8C17.7,4.8,20.1,5.7,21.7,7.3z"/>
</g>
<g id="number" class="st0">
	<path class="st1" d="M7.1,17.4c-0.5,0-0.8-0.3-0.8-0.8c0-0.6,0.4-1,1-1h2.5l0.8-4.2H8.3c-0.5,0-0.8-0.3-0.8-0.8c0-0.6,0.4-1,1-1H11
		l0.7-3.6c0.1-0.6,0.4-0.9,1-0.9c0.5,0,0.9,0.3,0.9,0.8c0,0.1,0,0.3,0,0.3L13,9.5h3.8l0.7-3.6c0.1-0.5,0.4-0.9,1-0.9
		c0.5,0,0.9,0.3,0.9,0.8c0,0.1,0,0.3,0,0.3l-0.7,3.3h2.6c0.5,0,0.8,0.4,0.8,0.8c0,0.6-0.4,1-1,1h-2.7l-0.8,4.2h2.6
		c0.5,0,0.8,0.4,0.8,0.8c0,0.6-0.4,1-1,1h-2.8l-0.8,4c-0.1,0.6-0.5,0.8-1,0.8c-0.5,0-0.9-0.3-0.9-0.8c0-0.1,0-0.2,0-0.3l0.7-3.7
		h-3.8l-0.8,4c-0.1,0.6-0.5,0.8-1,0.8c-0.5,0-0.9-0.3-0.9-0.8c0-0.1,0-0.2,0-0.3l0.7-3.7H7.1z M11.7,15.6h3.8l0.8-4.2h-3.8
		L11.7,15.6z"/>
</g>
<g id="one_way" class="st0">
	<path id="One-Way" class="st1" d="M17.7,9.3l3.5,3.5l0,0c0.4,0.4,0.4,1,0,1.4l-3.5,3.5c-0.4,0.4-1,0.4-1.4,0c-0.4-0.4-0.4-1,0-1.4
		l1.8-1.8l-10,0c-0.6,0-1-0.4-1-1c0-0.6,0.4-1,1-1l10.1,0l-1.9-1.9c-0.4-0.4-0.4-1,0-1.4C16.6,8.9,17.3,8.9,17.7,9.3z"/>
</g>
<g id="passport" class="st0">
	<path class="st1" d="M20.7,4H8C6.9,4,6,4.9,6,6v16c0,1.1,0.9,2,2,2h12.7c0.5,0,1-0.2,1.4-0.6c0.4-0.4,0.6-0.9,0.6-1.4V6
		c0-0.5-0.2-1-0.6-1.4C21.7,4.2,21.2,4,20.7,4 M20.7,6v16v0H8c0,0,0,0,0,0V6H20.7 M17.9,18.5c0.5,0,0.9,0.4,0.9,0.9
		s-0.4,0.9-0.9,0.9h-7.2c-0.5,0-0.9-0.4-0.9-0.9s0.4-0.9,0.9-0.9H17.9z M14.3,7.6c2.5,0,4.5,2,4.5,4.5s-2,4.5-4.5,4.5
		s-4.5-2-4.5-4.5S11.8,7.6,14.3,7.6z M15.2,14h-1.7c0.2,0.7,0.5,1.3,0.9,1.8C14.7,15.2,15,14.6,15.2,14L15.2,14z M17.5,14h-1.3
		c-0.2,0.6-0.4,1.1-0.6,1.6C16.3,15.3,17,14.7,17.5,14L17.5,14z M12.5,14h-1.3c0.4,0.8,1.1,1.3,2,1.6C12.9,15.1,12.7,14.5,12.5,14
		L12.5,14z M17.8,11.2h-1.5c0,0.3,0.1,0.6,0.1,0.9c0,0.3,0,0.6-0.1,0.9l0,0h1.5c0.1-0.3,0.1-0.6,0.1-0.9
		C17.9,11.8,17.9,11.5,17.8,11.2L17.8,11.2z M15.4,11.2h-2.1c0,0.3-0.1,0.6-0.1,0.9c0,0.3,0,0.6,0.1,0.9l0,0h2.1
		c0-0.3,0.1-0.6,0.1-0.9C15.5,11.8,15.4,11.5,15.4,11.2L15.4,11.2z M12.3,11.2h-1.5c-0.1,0.3-0.1,0.6-0.1,0.9c0,0.3,0,0.6,0.1,0.9
		l0,0h1.5c0-0.3-0.1-0.6-0.1-0.9C12.3,11.8,12.3,11.5,12.3,11.2L12.3,11.2z M13.1,8.7c-0.8,0.3-1.5,0.9-2,1.6l0,0h1.3
		C12.7,9.8,12.9,9.2,13.1,8.7z M14.3,8.5c-0.4,0.6-0.7,1.2-0.9,1.8l0,0h1.7C15,9.7,14.7,9.1,14.3,8.5z M15.5,8.7
		c0.3,0.5,0.5,1.1,0.6,1.6l0,0h1.3C17,9.6,16.3,9,15.5,8.7z"/>
</g>
<g id="card" class="st0">
	<path id="Card-Transfer" class="st1" d="M24,10c0.6,0,1,0.4,1,1v10c0,0.6-0.4,1-1,1H8c-0.6,0-1-0.4-1-1V11c0-0.6,0.4-1,1-1H24z
		 M23,15.5H9V20h14V15.5z M19,6c0.6,0,1,0.4,1,1v2h-2V8H4v8h2v2H3c-0.6,0-1-0.4-1-1V7c0-0.6,0.4-1,1-1H19z M23,12H9v1.5h14V12z"/>
</g>
<g id="paypal" class="st0">
	<path id="Shape_7_" class="st1" d="M10.8,24c-0.1,0-0.2-0.2-0.3-0.3c0-0.1-0.1,0.1,0.6-4.1c0.6-3.8,0.6-3.7,0.7-3.8
		c0.1-0.2,0.1-0.2,1.6-0.2c1.3,0,1.6,0,2.2-0.1c3.2-0.4,5.3-2.4,6-5.7c0-0.2,0.1-0.4,0.1-0.4c0,0,0.1,0,0.1,0.1c1,0.8,1.4,2.2,1,4.1
		c-0.5,2.3-1.7,3.8-3.6,4.5c-0.8,0.3-1.5,0.4-2.7,0.4c-0.8,0-0.8,0-1,0.2c-0.2,0.2-0.2,0.1-0.6,2.6c-0.3,1.7-0.4,2.3-0.4,2.3
		c-0.1,0.2-0.2,0.3-0.4,0.4L14.1,24h-1.6C11.2,24,10.9,24,10.8,24L10.8,24L10.8,24z M6.3,21.7C6.1,21.6,6,21.5,6,21.3
		C6,21,8.6,4.7,8.7,4.5C8.8,4.3,9,4.1,9.2,4.1L9.3,4h3.5c3.9,0,3.8,0,4.6,0.2c2.6,0.6,3.8,2.3,3.4,4.9c-0.5,2.9-2,4.7-4.5,5.3
		c-0.9,0.2-1.5,0.3-3.1,0.3c-1.3,0-1.4,0-1.7,0.2c-0.3,0.1-0.5,0.4-0.6,0.8c0,0.1-0.3,1.5-0.5,3.1c-0.3,1.6-0.5,3-0.5,3l0,0.1H8.2
		C6.6,21.8,6.4,21.8,6.3,21.7L6.3,21.7z"/>
</g>
<g id="postident" class="st0">
	<path class="st1" d="M9.2,12.1L9.2,12.1c0,2.2,1.8,4.1,4,4.1c2.2,0,4-1.8,4-4.1c0-2.2-1.8-4.1-4-4.1C11,8.1,9.2,9.9,9.2,12.1
		L9.2,12.1z M19.2,12c0.5-1.3,0.8-3.4,0.9-4.8L25,8.4c-0.4,5.9-4.8,11.1-11.2,11.1C6.5,19.6,3.7,13.1,4,8.1l2.1-0.7
		c-0.3,2.8,0.5,4.8,1.1,5.8C6.6,9.2,9.5,6,13.2,6C16.5,6,19.2,8.5,19.2,12L19.2,12z M20.9,20.1h-2.8l2.8,2.9h2.8L20.9,20.1z
		 M17.1,20.1h-2.8l2.8,2.9h2.8L17.1,20.1z M7.1,20.1h2.8L7.1,23H4.3L7.1,20.1z M10.9,20.1h2.8L10.9,23H8.1L10.9,20.1z"/>
</g>
<g id="profile" class="st0">
	<path class="st1" d="M14,4c5.5,0,10,4.5,10,10c0,2.7-1.1,5.1-2.8,6.9c-0.5,0.5-1.1,1-1.7,1.4C18,23.4,16.1,24,14,24s-4-0.6-5.5-1.7
		c-0.6-0.4-1.2-0.9-1.7-1.4C5.1,19.1,4,16.7,4,14C4,8.5,8.5,4,14,4z M14,16.9c-2.4,0-4.6,1-6.1,2.7c0,0,0.1,0.1,0.1,0.1
		c0.4,0.5,0.9,0.8,1.4,1.2c1.4,0.9,3,1.4,4.6,1.4c1.7,0,3.2-0.5,4.6-1.4c0.5-0.3,1-0.7,1.4-1.2c0,0,0.1-0.1,0.1-0.1
		C18.6,18,16.4,16.9,14,16.9z M14,7.3c-2.3,0-4.2,1.9-4.2,4.2c0,1.4,0.7,2.7,1.9,3.5c0.7,0.4,1.5,0.7,2.3,0.7s1.6-0.3,2.3-0.7
		c1.1-0.7,1.9-2,1.9-3.5C18.2,9.2,16.3,7.3,14,7.3z"/>
</g>
<g id="close_2_" class="st0">
	<path id="Info_1_" class="st1" d="M22,14c0-4.4-3.6-8-8-8s-8,3.6-8,8s3.6,8,8,8S22,18.4,22,14z M24,14c0,5.5-4.5,10-10,10
		S4,19.5,4,14S8.5,4,14,4S24,8.5,24,14z M20.2,7.6c0.4,0.4,0.4,1,0,1.4l-11,11c-0.4,0.4-1,0.4-1.4,0c-0.4-0.4-0.4-1,0-1.4l11-11
		C19.2,7.2,19.8,7.2,20.2,7.6z"/>
</g>
<g id="rocket" class="st0">
	<path class="st1" d="M21.6,17.3c-0.8,1.1-1.7,2.1-2.7,3.1c0-0.1,0-0.3-0.1-0.4c-0.1-0.5-0.2-1-0.2-1.5c1.4-1.1,2.6-2.3,3.4-3.7
		c0,0,0,0.1,0,0.1C22.2,15.8,22.1,16.6,21.6,17.3 M16,18c-1.1,0.4-1.5,0.3-2,0c-1.2-0.8-2.3-1.9-3.2-3.2c-0.1-0.1-0.1-0.2-0.1-0.2
		c-0.1-0.3-0.2-0.6,0-0.9c1-2.3,2.5-4,4.7-5.3c1.7-1,3.7-1.6,6-1.8c0.1,0,0.3,0,0.4,0c0,0,0,0,0.1,0c0.2,0,0.5,0.1,0.6,0.7
		c0,0.3,0,0.7-0.1,1l0,0.3c-0.4,3.4-1.8,6-4.2,8.1C17.3,17.3,16.5,17.8,16,18 M13.8,21.2c-1.2-0.5-2.4-1.4-3.6-2.7
		c-1-1.1-1.9-2.3-2.5-3.6c0.5-0.1,1,0,1.4,0c0.1,0.1,0.2,0.2,0.2,0.4c0,0,0,0,0,0.1c0,0,0.1,0.1,0.1,0.1c0.9,1.4,2.1,2.7,3.7,3.8
		c0.2,0.2,0.5,0.3,0.7,0.4C14,20.3,13.9,20.7,13.8,21.2 M6.5,21.5C6.5,21.5,6.5,21.5,6.5,21.5c0.3-2.3,1.6-2.9,1.6-2.9l1.6,1.8
		C8.9,21.6,6.7,21.5,6.5,21.5 M8.5,10.5c1-1,1.9-2,3-2.8c0.7-0.5,1.5-0.7,2.4-0.6c0,0,0,0,0.1,0c-1.3,0.9-2.5,2.1-3.6,3.6
		c-0.4,0-1-0.1-1.5-0.1C8.8,10.5,8.7,10.5,8.5,10.5 M24,7c-0.2-1.3-1-2-2.2-2c-0.2,0-0.4,0-0.6,0c-1.9,0.2-3.6,0.6-5.2,1.3
		c0,0,0,0,0,0c-0.4-0.3-1.4-0.6-1.9-0.7c-1.3-0.2-2.5,0.1-3.5,0.9C9,7.6,7.8,9,6.4,10.6l0,0c-0.2,0.2-0.2,0.5-0.1,0.8
		c0.1,0.3,0.4,0.4,0.7,0.4c0.5,0,1.2,0.1,1.9,0.2c0.3,0,0.7,0.1,1,0.1c-0.2,0.3-0.3,0.6-0.5,1c-0.1,0.1-0.1,0.3-0.1,0.4
		c-0.7,0-1.5,0-2.3,0.1c-0.4,0-0.6,0.3-0.7,0.4c-0.3,0.4-0.1,0.9,0,1c0.3,0.8,0.7,1.5,1.2,2.2c-0.4,0.2-2,1.3-2.4,4
		c-0.1,0.4,0.1,0.8,0.3,1.1C5.6,22.8,6,23,6.4,23h0c0.6,0,3.3,0.1,4.6-1.8c0.8,0.6,1.6,1.1,2.5,1.5c0.2,0.1,0.4,0.2,0.7,0.2
		c0.1,0,0.3,0,0.4-0.1c0.4-0.2,0.5-0.6,0.6-0.9c0.2-0.7,0.2-1.4,0.3-2.2c0.4-0.1,0.7-0.2,1-0.3l0,0c0.2-0.1,0.4-0.2,0.6-0.3
		c0,0.4,0.1,0.7,0.2,1.1c0.1,0.6,0.2,1.3,0.2,1.8c0,0.3,0.2,0.5,0.5,0.6c0.1,0,0.2,0,0.3,0c0.2,0,0.4-0.1,0.5-0.2
		c1.5-1.4,2.9-2.7,4-4.3c0.7-1.1,0.9-2.2,0.7-3.5c-0.1-0.5-0.5-1.4-0.8-1.8c0.5-1.3,0.9-2.6,1.1-4.1l0-0.3C24,8,24,7.5,24,7 M17,9.5
		L17,9.5c-0.3,0-0.5,0-0.8,0.1c-0.6,0.2-1.1,0.7-1.4,1.3c-0.3,0.6-0.4,1.3-0.1,1.9c0.3,1,1.3,1.7,2.4,1.7c0.3,0,0.5,0,0.8-0.1
		c1.3-0.4,2-1.8,1.6-3.1C19,10.2,18.1,9.5,17,9.5 M17,10.9c0.5,0,0.9,0.3,1,0.7c0.2,0.6-0.1,1.2-0.7,1.3C17.2,13,17.1,13,17,13
		c-0.4,0-0.9-0.3-1-0.7c-0.2-0.6,0.1-1.2,0.7-1.3C16.8,10.9,16.9,10.9,17,10.9"/>
</g>
<g id="round_checkmark" class="st0">
	<g class="st1">
		<circle id="Shape_8_" class="st4" cx="14" cy="14" r="10"/>
	</g>
</g>
<g id="round_checkmark_on" class="st0">
	<path class="st1" d="M14,3c6.1,0,11,4.9,11,11s-4.9,11-11,11S3,20.1,3,14S7.9,3,14,3z M19.8,10c-0.4-0.4-1-0.4-1.4,0l0,0l-5.7,5.7
		l-2.8-2.8c-0.4-0.4-1-0.4-1.4,0c-0.4,0.4-0.4,1,0,1.4l0,0l3.5,3.5c0.4,0.4,1,0.4,1.4,0l0,0l6.4-6.4C20.2,11,20.2,10.4,19.8,10z"/>
</g>
<g id="security" class="st0">
	<path class="st1" d="M18.2,12.8c-1.1,0-2.1-0.9-2.1-2.1s0.9-2.1,2.1-2.1c1.1,0,2.1,0.9,2.1,2.1S19.4,12.8,18.2,12.8 M16.6,5
		c-4.1,0-7.4,3.3-7.4,7.4c0,1.1,0.2,2.2,0.7,3.1l-4.6,4.6h0l-0.1,0.1l0,0C5.1,20.3,5,20.5,5,20.7v2.5C5,23.6,5.4,24,5.8,24h2.5
		c0.2,0,0.3-0.1,0.5-0.2l0,0l0.1-0.1h0l4.6-4.6c0.9,0.4,2,0.7,3.1,0.7c4.1,0,7.4-3.3,7.4-7.4S20.7,5,16.6,5"/>
</g>
<g id="share" class="st0">
	<path id="Share-Content" class="st1" d="M11,9v2H7v12h14V11h-4V9h5c0.6,0,1,0.4,1,1v14c0,0.6-0.4,1-1,1H6c-0.6,0-1-0.4-1-1V10
		c0-0.6,0.4-1,1-1H11z M14.7,1.3l3.5,3.5c0.4,0.4,0.4,1,0,1.4c-0.4,0.4-1,0.4-1.4,0l-1.8-1.8v10c0,0.6-0.4,1-1,1c-0.6,0-1-0.4-1-1
		V4.4l-1.9,1.9c-0.4,0.4-1,0.4-1.4,0c-0.4-0.4-0.4-1,0-1.4l3.5-3.5C13.7,0.9,14.4,0.9,14.7,1.3z"/>
</g>
<g id="swipe" class="st0">
	<path class="st1" d="M14.7,8.3l5,5c0.4,0.4,0.4,1,0,1.4l-5,5c-0.4,0.4-1,0.4-1.4,0c-0.4-0.4-0.4-1,0-1.4l4.3-4.3l-4.3-4.3
		c-0.4-0.4-0.4-1,0-1.4C13.7,7.9,14.3,7.9,14.7,8.3z M9.7,8.3l5,5l0,0c0.4,0.4,0.4,1,0,1.4l-5,5c-0.4,0.4-1,0.4-1.4,0
		c-0.4-0.4-0.4-1,0-1.4l4.3-4.3L8.3,9.7c-0.4-0.4-0.4-1,0-1.4C8.7,7.9,9.3,7.9,9.7,8.3z"/>
</g>
<g id="thumbs_up" class="st0">
	<path class="st1" d="M14,5c-0.3,0-0.6,0-0.9,0.1c-1,0.2-1.7,1.1-1.7,2.2v2.5c0,0.1,0,0.5-0.6,1C10.4,11,10,11.1,10,11.1
		c0,0-0.1,0-0.1,0l-0.3,0.1c0,0-0.1,0-0.1,0c-0.4-0.3-0.8-0.4-1.3-0.4H7.1c-1.2,0-2.1,1-2.1,2.2v7.5c0,1.2,1,2.2,2.1,2.2h1.2
		c0.6,0,1.1-0.3,1.5-0.7c0.7,0.6,1.6,0.9,2.6,0.9h5.8c2.2,0,3.7-1.4,4-3.4v0l0.8-5.3c0.2-1.4-0.3-2.8-1.4-3.6
		c-0.6-0.5-1.3-0.7-2.1-0.7c0,0-0.1,0-0.1,0h-1.6V9.1c0-1.9-0.8-2.9-1.5-3.4C15.6,5.2,14.9,5,14,5L14,5z M7.1,20.6h1.2v-7.5H7.1
		V20.6z M14,7.2c0.3,0,0.6,0.1,0.9,0.3c0.4,0.3,0.6,0.8,0.6,1.6v2.2c0,0.5,0.4,0.9,0.9,0.9h3v0c0.3,0,0.6,0.1,0.8,0.3
		c0.4,0.3,0.7,0.9,0.6,1.5L20,19.3v0c-0.2,1.3-1.1,1.5-1.8,1.5h-5.8c-1.1,0-2.1-1-2.1-2.1v-5.3l0.3-0.1c0.1,0,0.8-0.2,1.5-0.7
		c1-0.7,1.5-1.7,1.5-2.8V7.2C13.7,7.2,13.8,7.2,14,7.2L14,7.2z"/>
</g>
<g id="time" class="st0">
	<path class="st1" d="M13.8,4C8.4,4,4,8.4,4,13.8c0,5.4,4.4,9.8,9.8,9.8s9.8-4.4,9.8-9.8C23.7,8.4,19.3,4,13.8,4 M13.8,6
		c4.3,0,7.8,3.5,7.8,7.8s-3.5,7.8-7.8,7.8c-4.3,0-7.8-3.5-7.8-7.8S9.5,6,13.8,6 M17.3,16h-5.4v-5.6c0-0.6,0.4-1,1-1s1,0.4,1,1V14
		h3.4c0.6,0,1,0.4,1,1C18.3,15.6,17.9,16,17.3,16"/>
</g>
<g id="trust" class="st0">
	<path class="st1" d="M14,4c-1.1,0-1.8,0.7-2.1,1l-1.1,1.1l-1.6,0c-1.9,0-3,1.1-3,3l0,1.6L5,11.9c-1.4,1.4-1.4,2.8,0,4.2l1.1,1.1
		l0,1.6c0,1.9,1.1,3,3,3l1.6,0l1.1,1.1c0.3,0.3,1,1,2.1,1s1.8-0.7,2.1-1l1.1-1.1l1.6,0c1.9,0,3-1.1,3-3l0-1.6l1.1-1.1
		c1.3-1.4,1.3-2.8,0-4.2l-1.2-1.1l0-1.6c0-1.9-1.1-3-3-3l-1.6,0L16.1,5C15.8,4.7,15.1,4,14,4 M14,6.1c0.2,0,0.4,0.1,0.6,0.4L16.1,8
		c0.2,0.2,0.4,0.2,0.6,0.2l2.1,0c0.7,0,0.9,0.1,0.9,0.9l0,2.1c0,0.2,0.1,0.4,0.2,0.6l1.5,1.5c0.5,0.5,0.5,0.7,0,1.2L20,16.1
		c-0.2,0.2-0.2,0.4-0.2,0.6l0,2.1c0,0.7-0.1,0.9-0.9,0.9l-2.1,0c-0.3,0-0.4,0.1-0.6,0.2l-1.5,1.5c-0.3,0.3-0.4,0.4-0.6,0.4
		c-0.2,0-0.4-0.1-0.6-0.4L11.9,20c-0.2-0.2-0.4-0.2-0.6-0.2l-2.1,0c-0.8,0-0.9-0.1-0.9-0.9l0-2.1c0-0.3-0.1-0.4-0.2-0.6l-1.5-1.5
		c-0.5-0.5-0.5-0.7,0-1.2L8,11.9c0.2-0.2,0.2-0.4,0.2-0.6l0-2.1c0-0.8,0.1-0.9,0.9-0.9l2.1,0c0.2,0,0.4-0.1,0.6-0.2l1.5-1.5
		C13.6,6.2,13.8,6.1,14,6.1 M12.7,18.2c-0.3,0-0.6-0.1-0.8-0.3L9.5,15c-0.1-0.2-0.2-0.4-0.2-0.6c0-0.5,0.4-0.9,0.9-0.9
		c0.3,0,0.5,0.1,0.7,0.3l1.8,2.1l3.7-5.4c0.2-0.3,0.4-0.4,0.8-0.4c0.6,0,1,0.4,1,0.9c0,0.2-0.1,0.4-0.2,0.6l-4.4,6.2
		C13.3,18.1,13.1,18.2,12.7,18.2"/>
</g>
<g id="Ebene_74" class="st0">
	<path class="st1" d="M23.9,13.1c0.2,0,0.4,0.2,0.2,0.4c-0.6,0.6-1.3,0.9-2.4,1c-1.9,7-13.1,9.1-18,2.4c-0.2-0.2,0.2-0.5,0.4-0.3
		c1.8,1.7,4.7,1.8,6.6,0.2c-0.4-0.1-0.8-0.3-1-0.6c-0.2-0.4-0.1-0.7,0.2-1c-0.9-0.1-1.5-0.6-1.9-1.3c0-0.1,0-0.2,0-0.3
		c0.2-0.2,0.4-0.3,0.6-0.4c-0.9-0.4-1.4-1-1.5-1.9c0-0.1,0.1-0.3,0.2-0.3c0.2,0,0.3-0.1,0.5-0.1c-0.8-0.7-1.3-1.5-1.2-2.3
		c0-0.2,0.2-0.3,0.3-0.2c2.2,0.8,3.7,1.5,5.2,2.3c0.4,0.2,0.8,0.5,1.3,1c0.9-2.4,1.8-3.8,3.1-4.6c0.1-0.1,0.3,0,0.4,0.1
		c0.3-0.2,0.6-0.3,1-0.3c0.2,0,0.3,0.1,0.3,0.3c0,0,0,0,0,0.1C18.7,7,19,7.1,19.1,7.4C19.3,7.8,19,8,18.4,8.2
		c1.5,0.4,2.8,1.7,3.2,3.4c0,0.1,0.1,0.2,0.1,0.3c0.6,0.1,1.6,0,2-0.3c0.2-0.1,0.5,0.1,0.4,0.3c-0.2,0.5-0.7,0.9-1.3,1.2
		C23.2,13.2,23.6,13.2,23.9,13.1z"/>
</g>
<g id="videoident" class="st0">
	<path class="st1" d="M18.9,6L19,6c0.6,0.1,1.1,0.6,1.1,1.2l0,0v4.4L23.7,8l0.1-0.1c0.5-0.4,1.3,0,1.3,0.6l0,0v9.9l0,0.1
		c-0.1,0.6-0.9,0.9-1.3,0.4l0,0l-3.5-3.6v4.4l0,0.1C20,20.5,19.5,21,18.9,21l0,0H4.2l-0.1,0C3.5,20.9,3,20.4,3,19.7l0,0V7.3l0-0.1
		C3.1,6.5,3.6,6,4.2,6l0,0H18.9z M18,8H5v11h13V8z"/>
</g>
<g id="board" class="st0">
	<path id="VIMpay-Board" class="st1" d="M10,14.9c0.5,0,0.9,0.4,0.9,0.9v5.3c0,0.5-0.4,0.9-0.9,0.9H4.9C4.4,22,4,21.6,4,21.1v-5.3
		c0-0.5,0.4-0.9,0.9-0.9H10z M23.1,14.9c0.5,0,0.9,0.4,0.9,0.9v5.3c0,0.5-0.4,0.9-0.9,0.9H12.6c-0.5,0-0.9-0.4-0.9-0.9v-5.3
		c0-0.5,0.4-0.9,0.9-0.9H23.1z M23.1,7C23.6,7,24,7.4,24,7.9v5.3c0,0.5-0.4,0.9-0.9,0.9H18c-0.5,0-0.9-0.4-0.9-0.9V7.9
		C17.1,7.4,17.5,7,18,7H23.1z M15.4,7c0.5,0,0.9,0.4,0.9,0.9v5.3c0,0.5-0.4,0.9-0.9,0.9H4.9c-0.5,0-0.9-0.4-0.9-0.9V7.9
		C4,7.4,4.4,7,4.9,7H15.4z"/>
</g>
<g id="visibility_off" class="st0">
	<path id="visibility-off" class="st1" d="M4.5,4.2L4.5,4.2l19.7,18.1c0.4,0.4,0.4,1,0.1,1.4c-0.2,0.2-0.5,0.3-0.7,0.3
		c-0.2,0-0.4-0.1-0.6-0.2l-0.1-0.1l-4-3.7c-1.3,0.6-2.8,0.9-4.4,0.9c-4.6,0-8.6-2.8-10.4-6.9c-0.1-0.3-0.1-0.7,0-1
		c0.6-1.4,1.5-2.7,2.7-3.7L7,9.1L3.3,5.7c-0.4-0.4-0.4-1-0.1-1.4C3.6,4,4.1,3.9,4.5,4.2z M10,11.9c-0.2,0.5-0.3,1.1-0.3,1.7
		c0,2.7,2.2,4.9,4.8,4.9c0.7,0,1.3-0.2,1.9-0.4l0.2-0.1L15,16.5c-0.2,0-0.3,0-0.5,0c-1.6,0-2.9-1.3-2.9-2.9l0-0.1l0-0.1L10,11.9z
		 M14.5,6.2c4.6,0,8.6,2.8,10.4,6.9c0.1,0.3,0.1,0.7,0,1c-0.7,1.6-1.8,3.1-3.1,4.2l0,0l-2.9-2.7c0.3-0.6,0.4-1.3,0.4-2
		c0-2.7-2.2-4.9-4.8-4.9c-0.9,0-1.7,0.3-2.4,0.7l0,0L9.8,7.2C11.2,6.6,12.8,6.2,14.5,6.2z M14.5,10.6c1.6,0,2.9,1.3,2.9,2.9
		c0,0.1,0,0.3,0,0.4l0,0.2l-3.7-3.4C13.9,10.7,14.2,10.6,14.5,10.6z"/>
</g>
<g id="visibility_on" class="st0">
	<g class="st1">
		<polygon id="zone_1_" class="st3" points="0,28 28,28 28,0 0,0 		"/>
		<path id="visibility" d="M14,19.5c-2.8,0-5-2.2-5-5s2.3-5,5-5s5,2.2,5,5S16.8,19.5,14,19.5 M24.9,14C23,9.9,18.9,7,14,7
			S5,9.9,3.1,14c-0.1,0.3-0.1,0.7,0,1c1.9,4.1,6,7,10.9,7s9-2.9,10.9-7C25,14.7,25,14.3,24.9,14 M14,11.5c-1.7,0-3,1.3-3,3
			s1.4,3,3,3s3-1.3,3-3S15.7,11.5,14,11.5"/>
	</g>
</g>
<g id="warning" class="st0">
	<g class="st1">
		<path d="M13.9,6c0.8,0,1.5,0.4,1.9,1.1l0,0l7.7,12.5c0.4,0.7,0.4,1.6,0,2.3c-0.4,0.7-1.1,1.1-1.9,1.1l0,0H6.2
			c-0.8,0-1.6-0.4-1.9-1.1c-0.4-0.7-0.4-1.6,0-2.3l0,0L12,7.1C12.4,6.4,13.1,6,13.9,6z M13.9,8.2L6.2,20.7h15.4L13.9,8.2z
			 M13.9,16.8c-0.6,0-1-0.4-1-1v-3.7c0-0.6,0.4-1,1-1s1,0.4,1,1v3.7C14.9,16.4,14.5,16.8,13.9,16.8 M13.9,17.8c-0.6,0-1,0.4-1,1
			c0,0.6,0.4,1,1,1c0.6,0,1-0.4,1-1C14.9,18.2,14.5,17.8,13.9,17.8"/>
	</g>
</g>
<g id="youtube" class="st0">
	<g class="st1">
		<polygon id="zone_2_" class="st3" points="0,28 28,28 28,0 0,0 		"/>
		<path d="M21.6,6.6c1.8,0,3.2,1.4,3.2,3.2l0,0v8.7c0,1.8-1.4,3.2-3.2,3.2l0,0H6.4c-1.8,0-3.2-1.4-3.2-3.2l0,0V9.8
			c0-1.8,1.4-3.2,3.2-3.2l0,0H21.6z M13.4,11.1c-0.3-0.2-0.8,0-0.8,0.4l0,0V16c0,0.4,0.4,0.6,0.8,0.4l0,0l3.4-2.2
			c0.3-0.2,0.3-0.6,0-0.8l0,0L13.4,11.1z"/>
	</g>
</g>
<g id="qr_code" class="st0">
	<g id="Squares" transform="translate(5.000000, 5.000000)" class="st1">
		<path id="Combined-Shape_3_" d="M2.1,11C2.1,11,2,11.1,2,11.1v3.8C2,14.9,2.1,15,2.1,15h3.8C5.9,15,6,14.9,6,14.9v-3.8
			C6,11.1,5.9,11,5.9,11H2.1z M2.1,9h3.8C7,9,8,10,8,11.1v3.8C8,16,7,17,5.9,17H2.1C1,17,0,16,0,14.9v-3.8C0,10,1,9,2.1,9z M11.1,2
			C11.1,2,11,2.1,11,2.1v3.8C11,5.9,11.1,6,11.1,6h3.8C14.9,6,15,5.9,15,5.9V2.1C15,2.1,14.9,2,14.9,2H11.1z M11.1,0h3.8
			C16,0,17,1,17,2.1v3.8C17,7,16,8,14.9,8h-3.8C10,8,9,7,9,5.9V2.1C9,1,10,0,11.1,0z M2.1,2C2.1,2,2,2.1,2,2.1v3.8
			C2,5.9,2.1,6,2.1,6h3.8C5.9,6,6,5.9,6,5.9V2.1C6,2.1,5.9,2,5.9,2H2.1z M2.1,0h3.8C7,0,8,1,8,2.1v3.8C8,7,7,8,5.9,8H2.1
			C1,8,0,7,0,5.9V2.1C0,1,1,0,2.1,0z"/>
	</g>
	<path id="Dots" class="st1" d="M15.5,20c0.6,0,1,0.5,1,1s-0.5,1-1,1c-0.6,0-1-0.5-1-1S15,20,15.5,20z M18.3,20c0.6,0,1,0.5,1,1
		s-0.5,1-1,1s-1-0.5-1-1S17.7,20,18.3,20z M21,20c0.6,0,1,0.5,1,1s-0.5,1-1,1s-1-0.5-1-1S20.4,20,21,20z M15.5,17.2c0.6,0,1,0.5,1,1
		s-0.5,1-1,1c-0.6,0-1-0.5-1-1S15,17.2,15.5,17.2z M18.3,17.2c0.6,0,1,0.5,1,1s-0.5,1-1,1s-1-0.5-1-1S17.7,17.2,18.3,17.2z M21,17.2
		c0.6,0,1,0.5,1,1s-0.5,1-1,1s-1-0.5-1-1S20.4,17.2,21,17.2z M15.5,14.5c0.6,0,1,0.5,1,1c0,0.6-0.5,1-1,1c-0.6,0-1-0.5-1-1
		C14.5,15,15,14.5,15.5,14.5z M18.3,14.5c0.6,0,1,0.5,1,1c0,0.6-0.5,1-1,1s-1-0.5-1-1C17.2,15,17.7,14.5,18.3,14.5z M21,14.5
		c0.6,0,1,0.5,1,1c0,0.6-0.5,1-1,1s-1-0.5-1-1C20,15,20.4,14.5,21,14.5z"/>
</g>
<g id="address" class="st0">
	<path class="st1" d="M22,19H6v-0.6v-7l7.5,5c0.3,0.2,0.7,0.2,0.9,0l7.5-5v7V19z M20.3,10L14,14.2L7.7,10H20.3z M23.1,8H4.9
		C4.4,8,4,8.4,4,8.9v11.3C4,20.6,4.4,21,4.9,21h18.2c0.5,0,0.9-0.4,0.9-0.9V8.9C24,8.4,23.6,8,23.1,8L23.1,8z"/>
</g>
<g id="app_pin" class="st0">
	<path class="st1" d="M12,15.5c0-1.1,0.9-2,2-2s2,0.9,2,2c0,0.7-0.4,1.4-1,1.7V19c0,0.6-0.4,1-1,1s-1-0.4-1-1v-1.8
		C12.4,16.9,12,16.2,12,15.5z M11,10h6V8c0-1.7-1.3-3-3-3s-3,1.3-3,3V10z M9,10V8c0-2.8,2.2-5,5-5s5,2.2,5,5v2h2c0.6,0,1,0.4,1,1v12
		c0,0.6-0.4,1-1,1H7c-0.6,0-1-0.4-1-1V11c0-0.6,0.4-1,1-1H9z M20,12H8v10h12V12z"/>
</g>
<g id="delete_1_" class="st0">
	<path class="st1" d="M20.1,8C20.6,8,21,8.4,21,8.9c0,0,0,0,0,0.1l-0.8,13.1c0,0.5-0.4,0.9-0.9,0.9H8.6c-0.5,0-0.8-0.4-0.9-0.9L7,9
		c0-0.5,0.3-1,0.8-1l0,0L20.1,8z M19,10H9l0.5,11h9.1L19,10z M14,12c0.6,0,1,0.4,1,1v5c0,0.6-0.4,1-1,1s-1-0.4-1-1v-5
		C13,12.4,13.4,12,14,12z M16.5,4c0.6,0,1,0.4,1,1h3C20.8,5,21,5.2,21,5.5v1C21,6.8,20.8,7,20.5,7h-13C7.2,7,7,6.8,7,6.5v-1
		C7,5.2,7.2,5,7.5,5h3l0,0c0-0.6,0.4-1,1-1H16.5z"/>
</g>
<g id="automatic_lock" class="st0">
	<g class="st1">
		<polygon id="zone_3_" class="st3" points="0,28 28,28 28,0 0,0 		"/>
		<path d="M14.7,4.8c0.4,0.3,0.4,0.9,0.1,1.3c4.6,0.4,8.3,4.2,8.3,9c0,5-4,9-9,9s-9-4-9-9c0-0.6,0.4-1,1-1s1,0.4,1,1
			c0,3.9,3.1,7,7,7s7-3.1,7-7c0-3.6-2.7-6.5-6.2-7c0.3,0.4,0.2,0.9-0.1,1.2c-0.4,0.4-1.1,0.4-1.5,0l-1.8-1.6c-0.3-0.3-0.4-0.7-0.2-1
			c0.1-0.1,0.1-0.2,0.2-0.3l1.8-1.6C13.6,4.4,14.3,4.4,14.7,4.8z M14,12c1.1,0,2,0.9,2,2c0,0.7-0.4,1.4-1,1.7l0,1.8c0,0.6-0.4,1-1,1
			s-1-0.4-1-1l0-1.8c-0.6-0.3-1-1-1-1.7C12,12.9,12.9,12,14,12z"/>
	</g>
</g>
<g id="bug" class="st0">
	<g class="st1">
		<path d="M19,4.2L19,4c0,1.6-0.8,3.1-2,4l1.1,0C18.6,8,19,8.4,19,9v1l1,0V8c0-0.6,0.4-1,1-1c0.5,0,0.9,0.4,1,0.9L22,8v3
			c0,0.5-0.4,0.9-0.9,1L21,12l-2,0v1l3,0c0.6,0,1,0.4,1,1s-0.4,1-1,1l-3,0v1l2,0c0.6,0,1,0.4,1,1v3c0,0.6-0.4,1-1,1s-1-0.4-1-1v-2
			l-1.1,0c-0.4,2.6-2.5,4.5-4.9,4.5S9.5,20.6,9.1,18L8,18v2c0,0.6-0.4,1-1,1c-0.5,0-0.9-0.4-1-0.9L6,20v-3c0-0.5,0.4-0.9,0.9-1L7,16
			l2,0v-1l-3,0c-0.6,0-1-0.4-1-1c0-0.5,0.4-0.9,0.9-1L6,13l3,0v-1l-2,0c-0.6,0-1-0.4-1-1V8c0-0.6,0.4-1,1-1s1,0.4,1,1v2l1,0V9
			c0-0.6,0.4-1,0.9-1L11,8C9.8,7.1,9.1,5.8,9,4.2C9.5,4.7,10.2,5,11,5l0,0l0.2,0c0.4,1.2,1.5,2,2.8,2s2.4-0.8,2.8-2L17,5
			C17.8,5,18.5,4.7,19,4.2z M17.2,10h-6.4v7c0,1.9,1.4,3.5,3.2,3.5s3.2-1.6,3.2-3.5V10z"/>
	</g>
</g>
<g id="change_password" class="st0">
	<g class="st1">
		<polygon id="zone_4_" class="st3" points="0,28 28,28 28,0 0,0 		"/>
		<path d="M9,9c2.2,0,4.1,1.5,4.8,3.5l8.2,0c0.6,0,1,0.4,1,1v1c0,0.6-0.4,1-1,1v2c0,0.3-0.2,0.5-0.5,0.5h-1c-0.3,0-0.5-0.2-0.5-0.5
			V17h-0.5c-0.3,0-0.5-0.2-0.5-0.5v-1l-5.2,0c-0.6,2-2.5,3.5-4.8,3.5c-2.8,0-5-2.2-5-5S6.2,9,9,9z M9,11c-1.7,0-3,1.3-3,3s1.3,3,3,3
			s3-1.3,3-3S10.7,11,9,11z"/>
	</g>
</g>
<g id="feedback" class="st0">
	<g class="st1">
		<polygon id="zone_5_" class="st3" points="0,28 28,28 28,0 0,0 		"/>
		<path id="Fill-1_2_" d="M22,6H7C5.9,6,5,6.9,5,8v8.9c0,1.1,0.9,2,2,2l0.1,0V20c0,0.8,0.5,1.5,1.2,1.8C8.6,21.9,8.9,22,9.1,22
			c0.5,0,1-0.2,1.3-0.5l2.9-2.6H22c1.1,0,2-0.9,2-2V8C24,6.9,23.1,6,22,6 M22,8v9h-9.4L9.1,20v-3.1l-2.1,0V8H22"/>
	</g>
</g>
<g id="location" class="st0">
	<g class="st1">
		<polygon id="zone_6_" class="st3" points="0,28 28,28 28,0 0,0 		"/>
		<path id="Shape_9_" d="M12.3,16l-4.7-1.7c-0.9-0.3-0.9-1.5,0-1.9L18,8.4c0.8-0.3,1.5,0.4,1.3,1.2l-3,10.8c-0.2,0.9-1.5,1-1.9,0.2
			L12.3,16z"/>
	</g>
</g>
<g id="law" class="st0">
	<path class="st1" d="M11.6,21.7v-0.4c0-0.2,0.2-0.4,0.4-0.4H16c0.2,0,0.4,0.2,0.4,0.4v0.4h0.4c0.2,0,0.4,0.2,0.4,0.4v1.5
		c0,0.2-0.2,0.4-0.4,0.4h-5.5c-0.2,0-0.4-0.2-0.4-0.4v-1.5c0-0.2,0.2-0.4,0.4-0.4H11.6z M16.1,22.1v0.8h-4.9v-0.8H16.1z M21.3,4
		c0.6,0,1,0.5,1,1c0,0.3-0.1,0.6-0.3,0.8l2.4,4.4l-0.9,0l-2.3-4.1L19,10.2l-0.9,0l2.4-4.4c0,0-0.1-0.1-0.1-0.1l-5,1.3
		c0,0,0,0.1,0,0.1c0,0.5-0.2,0.9-0.5,1.1l0,13.7H13l0-13.7c-0.2-0.1-0.3-0.3-0.4-0.5L7.6,9c-0.2,0.4-0.5,0.7-1,0.7c-0.6,0-1-0.5-1-1
		c0-0.6,0.5-1,1-1c0.4,0,0.8,0.2,0.9,0.6L12.4,7l0,0c0.1-0.8,0.7-1.4,1.6-1.4c0.5,0,1,0.3,1.3,0.7l5-1.3C20.3,4.4,20.8,4,21.3,4z
		 M25,10.2v0.4c0,2-1.6,3.7-3.7,3.7s-3.7-1.7-3.7-3.7v-0.4H25z M6.7,8.1l3.1,5.6l-0.9,0L6.7,9.6l-2.3,4.1l-0.9,0L6.7,8.1z
		 M10.3,13.7v0.4c0,2-1.6,3.7-3.7,3.7S3,16.2,3,14.2v-0.4H10.3z"/>
</g>
<g id="location_point" class="st0">
	<path id="Shape_10_" class="st1" d="M20.2,8.1c1.4,2,1.7,4.5,0.9,6.7c-0.2,0.6-0.6,1.2-1.1,1.7l-5.5,6.2C14.3,22.9,14.2,23,14,23
		c-0.2,0-0.3-0.1-0.5-0.2l-5.5-6.2C7.6,16,7.2,15.4,7,14.8c-0.9-2.2-0.5-4.7,0.9-6.7C9.2,6.1,11.5,5,14,5C16.5,5,18.8,6.1,20.2,8.1z
		 M14,15.5c1.9,0,3.4-1.5,3.4-3.3S15.9,9,14,9s-3.4,1.5-3.4,3.3S12.1,15.5,14,15.5z"/>
</g>
<g id="nfc" class="st0">
	<path class="st1" d="M18.8,6.5l0.4,0.6c1.3,2.4,2,5,2,7.7c0,2.7-0.7,5.4-2,7.7l-0.4,0.6c-0.2,0.3-0.5,0.5-0.9,0.5
		c-0.2,0-0.3,0-0.5-0.1c-0.5-0.3-0.7-0.9-0.4-1.4l0.4-0.6c1.2-2.1,1.8-4.4,1.8-6.8c0-2.4-0.6-4.7-1.8-6.8L17,7.5
		C16.8,7,17,6.4,17.4,6.1C17.9,5.9,18.5,6,18.8,6.5z M15.5,8.3l0.4,0.6c1,1.8,1.5,3.8,1.5,6c0,2.1-0.6,4.1-1.7,5.9l-0.4,0.6
		c-0.2,0.3-0.5,0.5-0.9,0.5c-0.2,0-0.4,0-0.5-0.1c-0.5-0.3-0.6-0.9-0.3-1.4l0.4-0.6c0.9-1.5,1.4-3.2,1.4-4.9c0-1.8-0.4-3.4-1.2-4.9
		l-0.4-0.6c-0.3-0.5-0.1-1.1,0.4-1.4C14.6,7.7,15.2,7.8,15.5,8.3z M12.3,10l0.3,0.6c0.7,1.3,1,2.7,0.9,4.2c-0.1,1.3-0.5,2.7-1.3,4.1
		l-0.4,0.6C11.7,19.8,11.4,20,11,20c-0.2,0-0.4,0-0.5-0.1c-0.5-0.3-0.6-0.9-0.3-1.4l0.4-0.6c0.6-1.1,1-2.1,1-3.1
		c0.1-1.1-0.2-2.2-0.7-3.1L10.5,11c-0.3-0.5-0.1-1.1,0.4-1.4S12,9.6,12.3,10z M9,11.8l0.3,0.6c0.4,0.7,0.6,1.6,0.6,2.5
		c0,0.8-0.3,1.6-0.7,2.4l-0.3,0.6c-0.2,0.3-0.5,0.5-0.9,0.5c-0.2,0-0.3,0-0.5-0.1c-0.5-0.3-0.6-0.9-0.4-1.4l0.3-0.6
		c0.3-0.5,0.5-1,0.5-1.5c0-0.5-0.1-1-0.3-1.4l-0.3-0.6c-0.3-0.5-0.1-1.1,0.4-1.4C8.1,11.1,8.8,11.3,9,11.8z"/>
</g>
<g id="notification" class="st0">
	<path id="Icon" class="st1" d="M15.3,22.7c0,0.4-0.4,0.8-0.9,0.8c-0.5,0-0.9-0.4-0.9-0.8c0-0.1,0-0.2,0.1-0.3h1.7
		C15.2,22.5,15.3,22.6,15.3,22.7L15.3,22.7z M13.5,6.7c0-0.4,0.4-0.7,0.8-0.7c0.4,0,0.8,0.3,0.8,0.7v0.8c-0.3,0-0.5-0.1-0.8-0.1
		s-0.5,0-0.8,0.1V6.7z M22.5,20.2l-1.3-2.1c-0.5-0.8-0.7-1.7-0.7-2.7v-1.8c0-2.4-1.3-4.4-3.3-5.4V6.7c0-1.5-1.3-2.7-2.9-2.7
		s-2.9,1.2-2.9,2.7v1.5c-2,1-3.3,3.1-3.3,5.4v1.8c0,0.9-0.3,1.9-0.7,2.7l-1.3,2.1c-0.3,0.4-0.3,1,0,1.4c0.2,0.4,0.7,0.7,1.2,0.7H11
		c0,0.1,0,0.2,0,0.3c0,1.6,1.5,2.9,3.3,2.9c1.8,0,3.3-1.3,3.3-2.9c0-0.1,0-0.2,0-0.3h3.6c0.5,0,1-0.3,1.2-0.7
		C22.7,21.2,22.7,20.7,22.5,20.2L22.5,20.2z"/>
</g>
<g id="notification_1_" class="st0">
	<path class="st1" d="M8.6,19.3l0.7-1.1c0.7-1.1,1-2.4,1-3.7v-1.8c0-2.3,1.8-4.1,4.1-4.1s4.1,1.8,4.1,4.1v1.8c0,1.3,0.4,2.6,1,3.7
		l0.7,1.1H8.6z M15.3,21.7c0,0.4-0.4,0.8-0.9,0.8c-0.5,0-0.9-0.4-0.9-0.8c0-0.1,0-0.2,0.1-0.3h1.7C15.2,21.5,15.3,21.6,15.3,21.7
		L15.3,21.7z M13.5,5.7c0-0.4,0.4-0.7,0.8-0.7c0.4,0,0.8,0.3,0.8,0.7v0.8c-0.3,0-0.5-0.1-0.8-0.1s-0.5,0-0.8,0.1V5.7z M22.5,19.2
		l-1.3-2.1c-0.5-0.8-0.7-1.7-0.7-2.7v-1.8c0-2.4-1.3-4.4-3.3-5.4V5.7c0-1.5-1.3-2.7-2.9-2.7s-2.9,1.2-2.9,2.7v1.5
		c-2,1-3.3,3.1-3.3,5.4v1.8c0,0.9-0.3,1.9-0.7,2.7l-1.3,2.1c-0.3,0.4-0.3,1,0,1.4c0.2,0.4,0.7,0.7,1.2,0.7H11c0,0.1,0,0.2,0,0.3
		c0,1.6,1.5,2.9,3.3,2.9c1.8,0,3.3-1.3,3.3-2.9c0-0.1,0-0.2,0-0.3h3.6c0.5,0,1-0.3,1.2-0.7C22.7,20.2,22.7,19.7,22.5,19.2L22.5,19.2
		z"/>
</g>
<g id="personal_data" class="st0">
	<path class="st1" d="M7,21.3c1.3-2.8,3.7-4.8,6.6-4.8s5.4,1.9,6.6,4.8H7z M13.6,6c2.4,0,4.3,1.9,4.3,4.3c0,1.5-0.8,2.8-1.9,3.5
		c-0.7,0.5-1.5,0.7-2.4,0.7s-1.7-0.3-2.4-0.7c-1.1-0.8-1.9-2.1-1.9-3.5C9.3,7.9,11.2,6,13.6,6L13.6,6z M22,20.5
		c-1.1-2.4-2.8-4.2-4.8-5.1c1.7-1.2,2.7-3.1,2.7-5.1c0-3.5-2.8-6.3-6.3-6.3s-6.3,2.8-6.3,6.3c0,2,1,3.9,2.7,5.1
		c-2.1,1-3.8,2.8-4.8,5.1c-0.3,0.6-0.2,1.3,0.2,1.9c0.4,0.6,1,0.9,1.7,0.9h13.2c0.7,0,1.3-0.3,1.7-0.9C22.2,21.9,22.3,21.1,22,20.5
		L22,20.5z"/>
</g>
<g id="phone" class="st0">
	<path class="st1" d="M19,3H9C8.2,3,7.5,3.7,7.5,4.5v19C7.5,24.3,8.2,25,9,25h10c0.8,0,1.5-0.7,1.5-1.5v-19C20.5,3.7,19.8,3,19,3z
		 M12.7,4h2.7c0.1,0,0.2,0.1,0.2,0.1c0,0.1-0.1,0.1-0.2,0.1h-2.7c-0.1,0-0.2-0.1-0.2-0.1C12.5,4.1,12.6,4,12.7,4z M14,24.5
		c-0.6,0-1-0.4-1-1c0-0.6,0.4-1,1-1s1,0.4,1,1C15,24.1,14.6,24.5,14,24.5z M18.5,22h-9V5h9V22z"/>
</g>
<g id="promo" class="st0">
	<path class="st1" d="M23.2,14.2h-0.4h-0.9H6.1H5.2H4.8v-3.3c0,0,0,0,0,0h4.1h4.4h1.5h4.4h4.1V14.2z M21.9,23.2H6.1V16h15.9
		L21.9,23.2C21.9,23.2,21.9,23.2,21.9,23.2L21.9,23.2z M9.1,6.3C9.4,6,9.8,5.8,10.3,5.8c0.5,0,0.9,0.2,1.2,0.5
		C11.9,6.7,12.7,8,13,9.1h-0.6h-3C9.3,9,9.2,8.9,9.1,8.8C8.4,8.1,8.4,7,9.1,6.3L9.1,6.3z M16.5,6.3c0.6-0.6,1.8-0.6,2.4,0
		c0.7,0.7,0.7,1.8,0,2.5c-0.1,0.1-0.2,0.2-0.4,0.3h-3h0H15C15.3,8,16.1,6.7,16.5,6.3L16.5,6.3z M22.8,9.1h-2c0.6-1.3,0.4-3-0.7-4.1
		c-0.6-0.7-1.5-1-2.5-1c-0.9,0-1.9,0.4-2.5,1C15,5.3,14.5,6,14,6.8C13.5,6,13,5.3,12.8,5c-0.6-0.7-1.5-1-2.5-1C9.4,4,8.5,4.4,7.8,5
		C6.7,6.1,6.5,7.8,7.1,9.1h-2C4,9.1,3,10.1,3,11.3v3.2c0,0.8,0.5,1.4,1.3,1.5v6.8c0,1.2,1,2.2,2.2,2.2h15.1c1.2,0,2.2-1,2.2-2.2V16
		c0.7-0.1,1.3-0.8,1.3-1.5v-3.2C25,10.1,24,9.1,22.8,9.1L22.8,9.1z"/>
</g>
<g id="faq" class="st0">
	<path class="st1" d="M14.1,6C9.6,6,6,9.6,6,14.1c0,4.5,3.6,8.1,8.1,8.1s8.1-3.6,8.1-8.1C22.2,9.6,18.6,6,14.1,6 M14.1,24.2
		C8.5,24.2,4,19.7,4,14.1S8.5,4,14.1,4s10.1,4.5,10.1,10.1S19.7,24.2,14.1,24.2 M14,18.1c0.6,0,1.1,0.5,1.1,1.1
		c0,0.6-0.5,1.1-1.1,1.1c-0.6,0-1.1-0.5-1.1-1.1C12.9,18.6,13.3,18.1,14,18.1z M14.8,8c0.8,0.1,1.6,0.5,2.1,1c0.9,0.8,1.3,2.1,1,3.3
		c-0.2,0.7-0.5,1.4-1.1,1.9c-0.4,0.4-0.8,0.7-1.4,1c-0.3,0.2-0.5,0.6-0.5,1c0.1,0.5-0.3,1.1-0.8,1.2c-0.1,0-0.1,0-0.2,0
		c-0.5,0-0.9-0.3-1-0.8c-0.2-1.2,0.4-2.5,1.5-3.1c0.4-0.2,0.8-0.5,1-0.7c0.3-0.3,0.5-0.6,0.5-0.9c0.1-0.5,0-1.1-0.4-1.4
		c-0.3-0.2-0.6-0.4-1-0.5c-0.4-0.1-0.9,0-1.2,0.2c-0.6,0.3-1,0.9-1,1.6c0,0.6-0.4,1-1,1c-0.5,0-1-0.4-1-1c-0.1-1.5,0.7-2.8,2.1-3.5
		C13.2,8.1,14,7.9,14.8,8z"/>
</g>
<g id="star" class="st0">
	<path class="st1" d="M13.5,18.7c0.3-0.2,0.6-0.2,0.9,0l4.1,2.1l-0.8-4.5c-0.1-0.3,0.1-0.7,0.3-0.9l3.3-3.2l-4.6-0.7
		c-0.3,0-0.6-0.3-0.8-0.5l-2-4.1L12,11c-0.1,0.3-0.4,0.5-0.8,0.5l-4.6,0.7l3.3,3.2c0.2,0.2,0.3,0.6,0.3,0.9l-0.8,4.5L13.5,18.7z
		 M8.6,23.6C7.9,24,7,23.3,7.1,22.5l1-6l-4.4-4.3c-0.6-0.6-0.3-1.6,0.6-1.7l6.1-0.9l2.7-5.5c0.4-0.7,1.4-0.7,1.8,0l2.7,5.5l6.1,0.9
		c0.8,0.1,1.1,1.1,0.6,1.7l-4.4,4.3l1,6c0.1,0.8-0.7,1.4-1.5,1.1L14,20.7L8.6,23.6z"/>
</g>
<g id="tell_your_friend" class="st0">
	<path class="st1" d="M20.1,10.7c-1.1-2.1-3.8-2.4-5.3,0c-0.4,0.6-1.3,0.6-1.7,0c-1.5-2.3-4.2-2.1-5.3,0c-1.3,2.5,0.5,6.1,6.1,9.2
		C19.6,16.8,21.4,13.2,20.1,10.7z M21.9,9.8c1.9,3.7-0.6,8.5-7.4,12.1c-0.3,0.2-0.6,0.2-0.9,0c-6.8-3.6-9.4-8.4-7.4-12.1
		C7.7,6.7,11.5,6,14,8.5C16.5,6,20.3,6.7,21.9,9.8z"/>
</g>
<g id="comfort" class="st0">
	<g id="editierbar" class="st1">
		<path class="st5" d="M19.6,14.8c0-0.4,0.1-0.7,0.3-1.1c0.4-0.7,1-1.2,1.7-1.4l0.1,0c0.4-0.1,0.7-0.1,1.1-0.1
			c1.3,0.2,2.3,1.2,2.4,2.5c0.1,0.9-0.2,1.7-0.8,2.4c-1.4,1.4-2.2,3.2-2.2,5v0.3c0,0.6-0.5,1.1-1.1,1.1h-3.5H9.3H5.7
			c-0.6,0-1-0.5-1-1V22c0-1.8-0.8-3.6-2.2-5c-0.6-0.6-0.9-1.5-0.8-2.4c0.1-1.3,1.2-2.3,2.4-2.5c0.1,0,0.3,0,0.4,0
			c0.3,0,0.6,0.1,0.9,0.2c0.1,0,0.1,0,0.2,0.1c0.1,0,0.2,0.1,0.3,0.1c0.1,0,0.1,0.1,0.2,0.1c0.1,0.1,0.2,0.1,0.3,0.2
			c0.3,0.2,0.5,0.5,0.7,0.9c0.2,0.3,0.3,0.7,0.3,1.1"/>
		<path class="st5" d="M5.2,12.2c0,0,0-0.1,0-0.1c0-0.1,0-0.2,0-0.2C5,10.7,4.9,9.6,4.8,8.5c0-0.2,0-0.3,0-0.5
			c-0.2-1.2,0.2-2.5,1-3.4s2.1-1.5,3.5-1.5h8.4c1.3,0,2.6,0.5,3.5,1.5c0.9,0.9,1.3,2.2,1,3.4c-0.1,0.8-0.2,1.7-0.3,2.5
			c-0.1,0.5-0.1,0.9-0.2,1.4c0,0,0,0.1,0,0.2"/>
		<path class="st6" d="M7.7,24.8c-0.4,0-0.8-0.1-0.9-0.4h1.9C8.4,24.7,8,24.8,7.7,24.8z"/>
		<path class="st6" d="M19.3,24.8c-0.4,0-0.8-0.1-0.9-0.4h1.9C20.1,24.7,19.7,24.8,19.3,24.8z"/>
		<g>
			<path d="M18.4,15.6c0.7,0,1.3,0.7,1.3,1.5v0.5c0,0.3-0.2,0.6-0.5,0.6H8c-0.3,0-0.5-0.3-0.5-0.6v-0.5c0-0.8,0.6-1.5,1.3-1.5H18.4
				 M18.4,13.6H8.8c-1.8,0-3.3,1.6-3.3,3.5v0.5c0,1.4,1.1,2.6,2.5,2.6h11.2c1.4,0,2.5-1.2,2.5-2.6v-0.5
				C21.7,15.2,20.2,13.6,18.4,13.6L18.4,13.6z"/>
		</g>
	</g>
	<path class="st1" d="M26.4,14.6c-0.2-1.7-1.6-3.1-3.3-3.4c0,0-0.1,0-0.1,0l0.3-3c0.3-1.5-0.2-3.1-1.3-4.3c-1.1-1.1-2.6-1.8-4.2-1.8
		H9.5c-1.6,0-3.2,0.7-4.2,1.8C4.1,5.1,3.7,6.6,3.9,8.1l0.3,3.1c0,0,0,0,0,0c-1.7,0.2-3.1,1.7-3.3,3.4c-0.1,1.2,0.3,2.3,1,3.2
		c1.2,1.3,1.9,2.8,1.9,4.3v0.4c0,1.1,0.9,2,2,2L6,24.9c0.3,0.6,1,0.9,1.8,0.9c0.8,0,1.5-0.3,1.8-0.9l0.2-0.4h7.6l0.2,0.4
		c0.3,0.6,1,0.9,1.8,0.9c0.8,0,1.5-0.3,1.8-0.9l0.2-0.4c1.1-0.1,2-1,2-2.1v-0.3c0-1.5,0.7-3.1,1.9-4.3
		C26.2,16.9,26.6,15.8,26.4,14.6z M6.7,5.3c0.7-0.7,1.7-1.2,2.8-1.2h8.4c1.1,0,2.1,0.4,2.8,1.2c0.7,0.7,0.9,1.6,0.8,2.6L21,11.5
		c-0.8,0.4-1.4,1-1.8,1.7c-0.1,0.1-0.1,0.3-0.2,0.4c-0.1,0-0.3,0-0.4,0H9c-0.2,0-0.5,0-0.7,0.1c-0.1-0.2-0.1-0.3-0.2-0.5
		c-0.2-0.5-0.6-0.9-0.9-1.2c-0.1-0.1-0.3-0.2-0.4-0.3c-0.1,0-0.1-0.1-0.2-0.1c-0.1-0.1-0.2-0.1-0.3-0.2L5.9,7.8C5.7,6.9,6,6,6.7,5.3
		z M7.7,17.2c0-0.8,0.6-1.5,1.3-1.5h9.6c0.7,0,1.3,0.7,1.3,1.5v0.5c0,0.3-0.2,0.6-0.5,0.6H8.2c-0.3,0-0.5-0.3-0.5-0.6V17.2z
		 M23.9,16.3c-1.6,1.6-2.4,3.7-2.4,5.7v0.3c0,0.1-0.1,0.1-0.1,0.1l-15.6,0v-0.4c0-2.1-0.9-4.1-2.4-5.7c-0.4-0.4-0.6-1-0.5-1.5
		C3,14,3.6,13.3,4.5,13.2c0.3,0,0.5,0,0.8,0.1l0.1,0c0.1,0,0.1,0.1,0.2,0.1l0.1,0.1c0.1,0,0.1,0.1,0.2,0.1c0.2,0.2,0.3,0.4,0.5,0.6
		c0.1,0.2,0.2,0.4,0.2,0.7c-0.5,0.6-0.8,1.4-0.8,2.3v0.5c0,1.4,1.1,2.6,2.5,2.6h11.2c1.4,0,2.5-1.2,2.5-2.6v-0.5
		c0-1-0.4-1.9-1.1-2.6c0-0.1,0.1-0.3,0.1-0.4c0.2-0.4,0.6-0.8,1.2-1c0.2-0.1,0.5-0.1,0.7,0c0.8,0.1,1.5,0.8,1.6,1.6
		C24.5,15.4,24.3,15.9,23.9,16.3z"/>
</g>
<g id="premium" class="st0">
	<path id="Shape_11_" class="st1" d="M8.5,11.6l5.1-5.9c0.2-0.2,0.6-0.2,0.8,0l5.1,5.9l3.1-3.9c0.3-0.4,0.9-0.2,0.9,0.3v9
		c0,0.3-0.2,0.5-0.5,0.5H5c-0.3,0-0.5-0.2-0.5-0.5V8c0-0.5,0.6-0.7,0.9-0.3L8.5,11.6z M5,19h18c0.3,0,0.5,0.2,0.5,0.5v1
		c0,0.3-0.2,0.5-0.5,0.5H5c-0.3,0-0.5-0.2-0.5-0.5v-1C4.5,19.2,4.7,19,5,19z"/>
</g>
<g id="ultra" class="st0">
	<path class="st1" d="M21.2,11.1c0.3,1.3,0.3,2.7,0.3,4.1c-0.1-0.1-0.2-0.2-0.4-0.3c-0.4-0.3-0.8-0.6-1.2-0.9c0.2-1.8,0.2-3.5-0.2-5
		c0,0,0,0,0.1,0C20.6,9.6,21,10.3,21.2,11.1 M17.7,15.6c-0.5,1-0.9,1.3-1.4,1.4c-1.4,0.3-2.9,0.3-4.5-0.1c-0.1,0-0.2,0-0.3-0.1
		c-0.3-0.1-0.5-0.3-0.6-0.6c-0.9-2.3-1.1-4.6-0.5-7.1c0.5-1.9,1.5-3.7,3-5.5c0.1-0.1,0.2-0.2,0.3-0.3c0,0,0,0,0,0
		c0.2-0.1,0.5-0.4,0.9,0.1c0.2,0.2,0.5,0.5,0.7,0.8l0.2,0.2c2.1,2.7,3,5.5,2.7,8.7C18.2,14.2,17.9,15.1,17.7,15.6 M18.5,19.4
		c-1.2,0.5-2.6,0.7-4.4,0.6c-1.5-0.1-2.9-0.3-4.3-0.8c0.3-0.4,0.7-0.7,1-1c0.1,0,0.3,0.1,0.4,0.1c0,0,0,0,0.1,0c0.1,0,0.1,0,0.2,0
		c1.7,0.4,3.4,0.4,5.3,0.1c0.3,0,0.5-0.1,0.8-0.2C17.9,18.6,18.2,19,18.5,19.4 M13.5,24.8C13.5,24.8,13.5,24.8,13.5,24.8
		c-1.4-1.8-0.9-3.2-0.9-3.2l2.4,0.1C15.3,23.2,13.7,24.6,13.5,24.8 M7.1,15.6C7,14.1,7,12.8,7.3,11.4c0.1-0.9,0.6-1.6,1.3-2.1
		c0,0,0,0,0.1,0c-0.3,1.6-0.3,3.3,0,5c-0.3,0.3-0.7,0.6-1.2,1C7.3,15.4,7.2,15.5,7.1,15.6 M15.6,2.2c-1-0.8-2.2-0.7-3,0.1
		c-0.1,0.1-0.3,0.3-0.4,0.4c-1.2,1.5-2.2,3-2.8,4.6c0,0,0,0,0,0C9,7.4,8,7.8,7.6,8.1c-1,0.8-1.7,1.8-1.9,3.1c-0.3,2-0.2,3.9-0.1,5.9
		l0,0c0,0.3,0.2,0.5,0.5,0.6c0.3,0.1,0.6,0,0.8-0.2c0.4-0.4,0.9-0.8,1.4-1.2c0.3-0.2,0.5-0.4,0.8-0.6c0.1,0.3,0.2,0.7,0.4,1
		c0.1,0.1,0.1,0.3,0.2,0.4c-0.5,0.5-1.1,1-1.5,1.7c-0.3,0.3-0.2,0.6-0.2,0.8c0.1,0.5,0.6,0.7,0.8,0.7c0.8,0.3,1.6,0.5,2.4,0.7
		c-0.1,0.5-0.5,2.3,1.2,4.5c0.2,0.3,0.6,0.5,1,0.6c0.4,0,0.8-0.1,1.1-0.4l0,0c0.4-0.4,2.4-2.3,2-4.5c1-0.1,1.9-0.4,2.8-0.8
		c0.2-0.1,0.4-0.2,0.6-0.4c0.1-0.1,0.2-0.2,0.2-0.4c0.2-0.4-0.1-0.8-0.2-1.1c-0.4-0.7-0.8-1.2-1.3-1.7c0.2-0.3,0.4-0.6,0.5-0.9l0,0
		c0.1-0.2,0.2-0.4,0.2-0.7c0.3,0.2,0.6,0.4,0.9,0.7c0.5,0.4,1.1,0.8,1.5,1.1c0.2,0.2,0.5,0.2,0.8,0.1c0.1,0,0.2-0.1,0.2-0.2
		c0.1-0.1,0.2-0.3,0.2-0.5c0.1-2,0.1-3.9-0.3-5.9c-0.2-1.3-0.9-2.3-2-3c-0.4-0.3-1.3-0.6-1.8-0.7c-0.5-1.3-1.2-2.5-2.1-3.7l-0.2-0.2
		C16.3,2.9,16,2.5,15.6,2.2 M12.4,8.8L12.4,8.8c-0.2,0.2-0.4,0.4-0.5,0.7c-0.3,0.6-0.3,1.3-0.1,1.9c0.2,0.6,0.7,1.2,1.2,1.5
		c1,0.5,2.1,0.3,2.9-0.4c0.2-0.2,0.3-0.4,0.5-0.6c0.6-1.2,0.1-2.7-1.1-3.4C14.4,7.9,13.2,8.1,12.4,8.8 M13.4,9.9
		c0.3-0.3,0.8-0.4,1.2-0.2c0.5,0.3,0.7,0.9,0.5,1.4c-0.1,0.1-0.1,0.2-0.2,0.3c-0.3,0.3-0.8,0.4-1.2,0.2c-0.5-0.3-0.7-0.9-0.5-1.4
		C13.3,10,13.3,9.9,13.4,9.9"/>
</g>
<g id="zusatzkarten" class="st0">
	<path id="Card-Transfer_1_" class="st1" d="M24,9.2c0.6,0,1,0.4,1,1v10c0,0.6-0.4,1-1,1H8c-0.6,0-1-0.4-1-1v-10c0-0.6,0.4-1,1-1H24
		z M23,14.7H9v4.5h14V14.7z M19,5.2c0.6,0,1,0.4,1,1v2h-2v-1H4v8h2v2H3c-0.6,0-1-0.4-1-1v-10c0-0.6,0.4-1,1-1H19z M23,11.2H9v1.5h14
		V11.2z"/>
</g>
<g id="kartenlimit" class="st0">
	<path class="st1" d="M22.5,16.5l-2.6-2.3c0,0-0.1-0.1-0.2-0.1c0,0-0.1-0.1-0.1-0.1c-0.1,0-0.2-0.1-0.4-0.1c0,0,0,0,0,0c0,0,0,0,0,0
		c-0.1,0-0.2,0-0.4,0.1c0,0-0.1,0.1-0.1,0.1c-0.1,0-0.1,0.1-0.2,0.1L16,16.5c-0.4,0.4-0.5,1-0.1,1.4c0.2,0.2,0.5,0.3,0.7,0.3
		c0.2,0,0.5-0.1,0.7-0.3l0.9-0.8v2.1c0,0.6,0.4,1,1,1s1-0.4,1-1v-2.1l0.9,0.8c0.4,0.4,1,0.3,1.4-0.1C22.9,17.5,22.9,16.8,22.5,16.5z
		"/>
	<path id="Card-Transfer_3_" class="st1" d="M20.6,13.2H5.4v4.9h8.8l0,2.2H4.3c-0.6,0-1.1-0.5-1.1-1.1V8.3c0-0.6,0.5-1.1,1.1-1.1
		h17.4c0.6,0,1.1,0.5,1.1,1.1l0.1,4.9L20.6,13.2z M20.6,9.4H5.4v1.6h15.2V9.4z"/>
</g>
<g id="send_money" class="st0">
	<path class="st1" d="M22,23.1H6v-9.2l2.3,1.4l2,1.2l2.1,1.3l1.1,0.7c0.3,0.2,0.7,0.2,1.1,0l1.1-0.7l2.2-1.3l2-1.2l2.3-1.4V23.1z
		 M8.3,11.1V13l-1.5-0.9L8.3,11.1z M10.3,9.9V7.5V6.7c0.1,0,0.1,0,0.2,0c0.8,0,1.5-0.7,1.5-1.5c0-0.1,0-0.2,0-0.3h4.2
		c0,0.1,0,0.2,0,0.3c0,0.8,0.7,1.5,1.5,1.5c0.1,0,0.1,0,0.2,0v0.9v2.3v4.3L14,16.5l-3.7-2.3V9.9z M19.7,11.2l1.4,0.9l-1.4,0.9V11.2z
		 M24,12C24,11.9,24,11.9,24,12c0-0.2-0.1-0.3-0.1-0.4c0,0,0,0,0-0.1c-0.1-0.1-0.1-0.1-0.2-0.2c0,0,0,0,0,0l-3.8-2.4V4
		c0-0.5-0.4-1-1-1H9.3c-0.6,0-1,0.4-1,1v4.8l-3.9,2.5c0,0,0,0,0,0c-0.1,0.1-0.2,0.1-0.2,0.2c0,0,0,0,0,0.1c-0.1,0.1-0.1,0.2-0.1,0.3
		c0,0,0,0.1,0,0.1c0,0,0,0.1,0,0.1V24c0,0.5,0.4,1,1,1h18c0.6,0,1-0.4,1-1V12.1C24,12,24,12,24,12L24,12z M14,11.4
		c-0.3,0-0.6,0.2-0.6,0.6s0.3,0.6,0.6,0.6c0.3,0,0.6-0.2,0.6-0.6S14.3,11.4,14,11.4 M14,14.5c-1.4,0-2.6-1.1-2.6-2.5
		c0-1.4,1.1-2.5,2.6-2.5s2.6,1.1,2.6,2.5C16.6,13.3,15.4,14.5,14,14.5"/>
</g>
<g id="faceid_x5F_touchid" class="st0">
	<path class="st1" d="M12,15.5c0-1.1,0.9-2,2-2s2,0.9,2,2c0,0.7-0.4,1.4-1,1.7V19c0,0.6-0.4,1-1,1s-1-0.4-1-1v-1.8
		C12.4,16.9,12,16.2,12,15.5z M11,10h6V8c0-1.7-1.3-3-3-3s-3,1.3-3,3V10z M9,10V8c0-2.8,2.2-5,5-5s5,2.2,5,5v2h2c0.6,0,1,0.4,1,1v12
		c0,0.6-0.4,1-1,1H7c-0.6,0-1-0.4-1-1V11c0-0.6,0.4-1,1-1H9z M20,12H8v10h12V12z"/>
</g>
<g id="alias" class="st0">
	<path class="st1" d="M6,20h16v-9.4h-4.1L16.2,8h-4.5l-1.7,2.7H6V20z M23,22H5c-0.5,0-1-0.4-1-1V9.7c0-0.5,0.4-1,1-1h4l1.4-2.2
		C10.6,6.2,10.9,6,11.2,6h5.6c0.3,0,0.7,0.2,0.8,0.5L19,8.7h4c0.5,0,1,0.4,1,1V21C24,21.6,23.6,22,23,22L23,22z M14.1,12.6
		c-1.2,0-2.1,0.9-2.1,2.1c0,1.2,0.9,2.1,2.1,2.1s2.1-0.9,2.1-2.1C16.2,13.5,15.3,12.6,14.1,12.6 M14.1,18.8c-2.3,0-4.2-1.9-4.2-4.2
		s1.9-4.2,4.2-4.2c2.3,0,4.2,1.9,4.2,4.2S16.5,18.8,14.1,18.8"/>
</g>
<g id="mehrere_Konten" class="st0">
	<path id="Shape_12_" class="st1" d="M23.1,19.4c0.5,0,1,0.5,1,1c0,0.6-0.4,1-1,1h-14c-0.5,0-1-0.5-1-1c0-0.6,0.4-1,1-1H23.1z
		 M11.1,12.1c0.5,0,1,0.5,1,1v4.4c0,0.5-0.4,0.9-0.9,1l-0.1,0c-0.5,0-1-0.5-1-1v-4.4C10.1,12.6,10.5,12.1,11.1,12.1z M16.1,12.1
		c0.5,0,1,0.5,1,1v4.4c0,0.5-0.4,0.9-0.9,1l-0.1,0c-0.5,0-1-0.5-1-1v-4.4C15.1,12.6,15.5,12.1,16.1,12.1z M21.1,12.1
		c0.5,0,1,0.5,1,1v4.4c0,0.5-0.4,0.9-0.9,1l-0.1,0c-0.5,0-1-0.5-1-1v-4.4C20.1,12.6,20.5,12.1,21.1,12.1z M16.4,5.5l0.1,0.1l7,3.9
		c0.9,0.5,0.6,1.8-0.4,1.9l-0.1,0h-14c-1,0-1.4-1.3-0.6-1.8l0.1-0.1l7-3.9C15.8,5.4,16.2,5.4,16.4,5.5z"/>
	<g class="st1">
		<path d="M14.7,4.7l-2.8-1.6l-0.1-0.1C11.5,3,11.2,3,10.9,3.2l-7,3.9L3.8,7.2C3,7.7,3.4,9,4.4,9h3l0,0L14.7,4.7z"/>
		<path d="M6.5,17H4.4c-0.5,0-1,0.5-1,1c0,0.6,0.4,1,1,1h2.1c0.5,0,1-0.5,1-1C7.5,17.5,7,17,6.5,17z"/>
		<path d="M6.5,16.2c0.5-0.1,0.9-0.5,0.9-1v-4.4c0-0.6-0.4-1-1-1s-1,0.5-1,1v4.4c0,0.6,0.4,1,1,1L6.5,16.2z"/>
	</g>
</g>
<g id="banking" class="st0">
	<path id="Shape_14_" class="st1" d="M21,20c0.5,0,1,0.5,1,1c0,0.6-0.4,1-1,1H7c-0.5,0-1-0.5-1-1c0-0.6,0.4-1,1-1H21z M9,12.7
		c0.5,0,1,0.5,1,1v4.4c0,0.5-0.4,0.9-0.9,1l-0.1,0c-0.5,0-1-0.5-1-1v-4.4C8,13.2,8.5,12.7,9,12.7z M14,12.7c0.5,0,1,0.5,1,1v4.4
		c0,0.5-0.4,0.9-0.9,1l-0.1,0c-0.5,0-1-0.5-1-1v-4.4C13,13.2,13.5,12.7,14,12.7z M19,12.7c0.5,0,1,0.5,1,1v4.4c0,0.5-0.4,0.9-0.9,1
		l-0.1,0c-0.5,0-1-0.5-1-1v-4.4C18,13.2,18.5,12.7,19,12.7z M14.4,6.1l0.1,0.1l7,3.9c0.9,0.5,0.6,1.8-0.4,1.9l-0.1,0H7
		c-1,0-1.4-1.3-0.6-1.8l0.1-0.1l7-3.9C13.8,6,14.1,6,14.4,6.1z"/>
</g>
<g id="online_x5F_banking" class="st0">
	<g class="st1">
		<path class="st6" d="M18.4,20.6H8.8c-0.1,0-0.2-0.1-0.2-0.2V8.2C8.6,8.1,8.7,8,8.8,8h9.6c0.1,0,0.2,0.1,0.2,0.2v12.1
			C18.7,20.5,18.6,20.6,18.4,20.6z"/>
		<g>
			<rect x="10.4" y="10.3" width="6.5" height="1.2"/>
		</g>
		<g>
			<path class="st7" d="M11.8,14.6h-1.3c0,0-0.1,0-0.1-0.1v-0.9c0,0,0-0.1,0.1-0.1h1.3c0,0,0.1,0,0.1,0.1L11.8,14.6
				C11.8,14.6,11.8,14.6,11.8,14.6z"/>
			<path d="M11.8,13.6h-1.3c0,0-0.1,0-0.1,0.1v0.9c0,0,0,0.1,0.1,0.1h1.3c0,0,0.1,0,0.1-0.1L11.8,13.6
				C11.8,13.6,11.8,13.6,11.8,13.6L11.8,13.6z"/>
		</g>
		<g>
			<path class="st7" d="M14.3,14.6H13c0,0-0.1,0-0.1-0.1v-0.9c0,0,0-0.1,0.1-0.1h1.3c0,0,0.1,0,0.1,0.1L14.3,14.6
				C14.4,14.6,14.3,14.6,14.3,14.6z"/>
			<path d="M14.3,13.6H13c0,0-0.1,0-0.1,0.1v0.9c0,0,0,0.1,0.1,0.1h1.3c0,0,0.1,0,0.1-0.1L14.3,13.6C14.4,13.6,14.3,13.6,14.3,13.6
				L14.3,13.6z"/>
		</g>
		<g>
			<path class="st7" d="M16.8,14.6h-1.3c0,0-0.1,0-0.1-0.1v-0.9c0,0,0-0.1,0.1-0.1h1.3c0,0,0.1,0,0.1,0.1L16.8,14.6
				C16.9,14.6,16.9,14.6,16.8,14.6z"/>
			<path d="M16.8,13.6h-1.3c0,0-0.1,0-0.1,0.1v0.9c0,0,0,0.1,0.1,0.1h1.3c0,0,0.1,0,0.1-0.1L16.8,13.6
				C16.9,13.6,16.9,13.6,16.8,13.6L16.8,13.6z"/>
		</g>
		<g>
			<path class="st7" d="M11.8,16.8h-1.3c0,0-0.1,0-0.1-0.1v-0.9c0,0,0-0.1,0.1-0.1h1.3c0,0,0.1,0,0.1,0.1L11.8,16.8
				C11.8,16.7,11.8,16.8,11.8,16.8z"/>
			<path d="M11.8,15.7h-1.3c0,0-0.1,0-0.1,0.1v0.9c0,0,0,0.1,0.1,0.1h1.3c0,0,0.1,0,0.1-0.1L11.8,15.7
				C11.8,15.8,11.8,15.7,11.8,15.7L11.8,15.7z"/>
		</g>
		<g>
			<path class="st7" d="M14.3,16.8H13c0,0-0.1,0-0.1-0.1v-0.9c0,0,0-0.1,0.1-0.1h1.3c0,0,0.1,0,0.1,0.1L14.3,16.8
				C14.3,16.7,14.3,16.8,14.3,16.8z"/>
			<path d="M14.3,15.7H13c0,0-0.1,0-0.1,0.1v0.9c0,0,0,0.1,0.1,0.1h1.3c0,0,0.1,0,0.1-0.1L14.3,15.7C14.3,15.8,14.3,15.7,14.3,15.7
				L14.3,15.7z"/>
		</g>
		<g>
			<path class="st7" d="M16.8,16.8h-1.3c0,0-0.1,0-0.1-0.1v-0.9c0,0,0-0.1,0.1-0.1h1.3c0,0,0.1,0,0.1,0.1L16.8,16.8
				C16.9,16.8,16.9,16.8,16.8,16.8z"/>
			<path d="M16.8,15.8h-1.3c0,0-0.1,0-0.1,0.1v0.9c0,0,0,0.1,0.1,0.1h1.3c0,0,0.1,0,0.1-0.1L16.8,15.8
				C16.9,15.8,16.9,15.8,16.8,15.8L16.8,15.8z"/>
		</g>
		<g>
			<path class="st7" d="M11.8,19h-1.3c0,0-0.1,0-0.1-0.1V18c0,0,0-0.1,0.1-0.1h1.3c0,0,0.1,0,0.1,0.1L11.8,19
				C11.8,18.9,11.8,19,11.8,19z"/>
			<path d="M11.8,17.9h-1.3c0,0-0.1,0-0.1,0.1v0.9c0,0,0,0.1,0.1,0.1h1.3c0,0,0.1,0,0.1-0.1L11.8,17.9C11.8,18,11.8,17.9,11.8,17.9
				L11.8,17.9z"/>
		</g>
		<g>
			<path class="st7" d="M14.3,19H13c0,0-0.1,0-0.1-0.1V18c0,0,0-0.1,0.1-0.1h1.3c0,0,0.1,0,0.1,0.1L14.3,19
				C14.3,18.9,14.3,19,14.3,19z"/>
			<path d="M14.3,17.9H13c0,0-0.1,0-0.1,0.1v0.9c0,0,0,0.1,0.1,0.1h1.3c0,0,0.1,0,0.1-0.1L14.3,17.9C14.3,18,14.3,17.9,14.3,17.9
				L14.3,17.9z"/>
		</g>
		<g>
			<path class="st7" d="M16.8,19h-1.3c0,0-0.1,0-0.1-0.1V18c0,0,0-0.1,0.1-0.1h1.3c0,0,0.1,0,0.1,0.1L16.8,19
				C16.9,18.9,16.9,19,16.8,19z"/>
			<path d="M16.8,17.9h-1.3c0,0-0.1,0-0.1,0.1v0.9c0,0,0,0.1,0.1,0.1h1.3c0,0,0.1,0,0.1-0.1L16.8,17.9C16.9,18,16.9,17.9,16.8,17.9
				L16.8,17.9z"/>
		</g>
	</g>
	<g class="st1">
		<g>
			<path d="M18.4,21.6H8.8c-0.7,0-1.3-0.6-1.3-1.3V8.2C7.6,7.6,8.2,7,8.8,7h9.6c0.7,0,1.3,0.6,1.3,1.3v12.1
				C19.7,21,19.1,21.6,18.4,21.6z M9.6,19.6h8.1V9H9.6V19.6z"/>
		</g>
		<g>
			<rect x="10.4" y="10.3" width="6.5" height="1.2"/>
		</g>
		<g>
			<path class="st7" d="M11.8,14.6h-1.3c0,0-0.1,0-0.1-0.1v-0.9c0,0,0-0.1,0.1-0.1h1.3c0,0,0.1,0,0.1,0.1L11.8,14.6
				C11.8,14.6,11.8,14.6,11.8,14.6z"/>
			<path d="M11.8,13.6h-1.3c0,0-0.1,0-0.1,0.1v0.9c0,0,0,0.1,0.1,0.1h1.3c0,0,0.1,0,0.1-0.1L11.8,13.6
				C11.8,13.6,11.8,13.6,11.8,13.6L11.8,13.6z"/>
		</g>
		<g>
			<path class="st7" d="M14.3,14.6H13c0,0-0.1,0-0.1-0.1v-0.9c0,0,0-0.1,0.1-0.1h1.3c0,0,0.1,0,0.1,0.1L14.3,14.6
				C14.4,14.6,14.3,14.6,14.3,14.6z"/>
			<path d="M14.3,13.6H13c0,0-0.1,0-0.1,0.1v0.9c0,0,0,0.1,0.1,0.1h1.3c0,0,0.1,0,0.1-0.1L14.3,13.6C14.4,13.6,14.3,13.6,14.3,13.6
				L14.3,13.6z"/>
		</g>
		<g>
			<path class="st7" d="M16.8,14.6h-1.3c0,0-0.1,0-0.1-0.1v-0.9c0,0,0-0.1,0.1-0.1h1.3c0,0,0.1,0,0.1,0.1L16.8,14.6
				C16.9,14.6,16.9,14.6,16.8,14.6z"/>
			<path d="M16.8,13.6h-1.3c0,0-0.1,0-0.1,0.1v0.9c0,0,0,0.1,0.1,0.1h1.3c0,0,0.1,0,0.1-0.1L16.8,13.6
				C16.9,13.6,16.9,13.6,16.8,13.6L16.8,13.6z"/>
		</g>
		<g>
			<path class="st7" d="M11.8,16.8h-1.3c0,0-0.1,0-0.1-0.1v-0.9c0,0,0-0.1,0.1-0.1h1.3c0,0,0.1,0,0.1,0.1L11.8,16.8
				C11.8,16.7,11.8,16.8,11.8,16.8z"/>
			<path d="M11.8,15.7h-1.3c0,0-0.1,0-0.1,0.1v0.9c0,0,0,0.1,0.1,0.1h1.3c0,0,0.1,0,0.1-0.1L11.8,15.7
				C11.8,15.8,11.8,15.7,11.8,15.7L11.8,15.7z"/>
		</g>
		<g>
			<path class="st7" d="M14.3,16.8H13c0,0-0.1,0-0.1-0.1v-0.9c0,0,0-0.1,0.1-0.1h1.3c0,0,0.1,0,0.1,0.1L14.3,16.8
				C14.3,16.7,14.3,16.8,14.3,16.8z"/>
			<path d="M14.3,15.7H13c0,0-0.1,0-0.1,0.1v0.9c0,0,0,0.1,0.1,0.1h1.3c0,0,0.1,0,0.1-0.1L14.3,15.7C14.3,15.8,14.3,15.7,14.3,15.7
				L14.3,15.7z"/>
		</g>
		<g>
			<path class="st7" d="M16.8,16.8h-1.3c0,0-0.1,0-0.1-0.1v-0.9c0,0,0-0.1,0.1-0.1h1.3c0,0,0.1,0,0.1,0.1L16.8,16.8
				C16.9,16.8,16.9,16.8,16.8,16.8z"/>
			<path d="M16.8,15.8h-1.3c0,0-0.1,0-0.1,0.1v0.9c0,0,0,0.1,0.1,0.1h1.3c0,0,0.1,0,0.1-0.1L16.8,15.8
				C16.9,15.8,16.9,15.8,16.8,15.8L16.8,15.8z"/>
		</g>
		<g>
			<path class="st7" d="M11.8,19h-1.3c0,0-0.1,0-0.1-0.1V18c0,0,0-0.1,0.1-0.1h1.3c0,0,0.1,0,0.1,0.1L11.8,19
				C11.8,18.9,11.8,19,11.8,19z"/>
			<path d="M11.8,17.9h-1.3c0,0-0.1,0-0.1,0.1v0.9c0,0,0,0.1,0.1,0.1h1.3c0,0,0.1,0,0.1-0.1L11.8,17.9C11.8,18,11.8,17.9,11.8,17.9
				L11.8,17.9z"/>
		</g>
		<g>
			<path class="st7" d="M14.3,19H13c0,0-0.1,0-0.1-0.1V18c0,0,0-0.1,0.1-0.1h1.3c0,0,0.1,0,0.1,0.1L14.3,19
				C14.3,18.9,14.3,19,14.3,19z"/>
			<path d="M14.3,17.9H13c0,0-0.1,0-0.1,0.1v0.9c0,0,0,0.1,0.1,0.1h1.3c0,0,0.1,0,0.1-0.1L14.3,17.9C14.3,18,14.3,17.9,14.3,17.9
				L14.3,17.9z"/>
		</g>
		<g>
			<path class="st7" d="M16.8,19h-1.3c0,0-0.1,0-0.1-0.1V18c0,0,0-0.1,0.1-0.1h1.3c0,0,0.1,0,0.1,0.1L16.8,19
				C16.9,18.9,16.9,19,16.8,19z"/>
			<path d="M16.8,17.9h-1.3c0,0-0.1,0-0.1,0.1v0.9c0,0,0,0.1,0.1,0.1h1.3c0,0,0.1,0,0.1-0.1L16.8,17.9C16.9,18,16.9,17.9,16.8,17.9
				L16.8,17.9z"/>
		</g>
	</g>
</g>
<g id="aufladekonten_x5F_wechseln" class="st0">
	<g class="st1">
		<path d="M21.8,16.4c-0.1-0.1-0.3,0-0.4,0.1L21,16.8c-1-1-2.8-1-3.8,0c-0.4,0.4-0.6,0.9-0.7,1.4c0,0.2,0,0.4,0.1,0.6
			c0.1,0.2,0.3,0.2,0.5,0.2c0.3,0,0.6-0.2,0.7-0.5c0.2-0.9,1.4-1.4,2.2-0.7l-0.3,0.3c-0.1,0.1-0.1,0.3-0.1,0.4
			c0.1,0.1,0.2,0.2,0.3,0.2h1.6c0.2,0,0.4-0.2,0.4-0.4v-1.6C22,16.6,21.9,16.5,21.8,16.4z"/>
		<path d="M21.3,19c-0.3,0-0.6,0.2-0.7,0.5c-0.2,0.9-1.4,1.4-2.2,0.7l0.3-0.3c0.1-0.1,0.1-0.3,0.1-0.4c-0.1-0.1-0.2-0.2-0.3-0.2
			h-1.6c-0.2,0-0.4,0.2-0.4,0.4v1.6c0,0.2,0.1,0.3,0.2,0.3c0.1,0.1,0.3,0,0.4-0.1l0.3-0.3c0.5,0.5,1.2,0.7,1.9,0.7
			c0.7,0,1.4-0.3,1.9-0.8c0.4-0.4,0.6-0.9,0.7-1.4c0-0.2,0-0.4-0.1-0.6C21.7,19.1,21.5,19,21.3,19z"/>
		<path d="M18,13.7v0.4c0,0.6,0.4,1,1,1l0.1,0c0.5-0.1,0.9-0.5,0.9-1v-0.4c0-0.6-0.4-1-1-1C18.5,12.7,18,13.2,18,13.7z"/>
		<path d="M7,11.9h14l0.1,0c0.9-0.1,1.2-1.4,0.4-1.9l-7-3.9l-0.1-0.1C14.1,6,13.8,6,13.5,6.1l-7,3.9l-0.1,0.1
			C5.7,10.7,6,11.9,7,11.9z"/>
		<path d="M14,12.7c-0.5,0-1,0.5-1,1v4.4c0,0.6,0.4,1,1,1l0.1,0c0.5-0.1,0.9-0.5,0.9-1v-4.4C15,13.2,14.6,12.7,14,12.7z"/>
		<path d="M14,20H7c-0.5,0-1,0.5-1,1c0,0.6,0.4,1,1,1h7c0.5,0,1-0.5,1-1C15,20.4,14.6,20,14,20z"/>
		<path d="M8,13.7v4.4c0,0.6,0.4,1,1,1l0.1,0c0.5-0.1,0.9-0.5,0.9-1v-4.4c0-0.6-0.4-1-1-1C8.5,12.7,8,13.2,8,13.7z"/>
	</g>
</g>
<g id="eigene_Farben" class="st0">
	<path id="color_1_" class="st1" d="M14,4c-1.6,0-3.1,0.4-4.5,1.1c-3.9,2-4.9,5.5-5.1,6.3c-0.3,0.9-1.6,6,3,10.1
		c0.4,0.3,2.7,2.4,5.9,2.4c0.5,0,1-0.1,1.6-0.2c1.1-0.2,1.7-1.3,1.5-2.4c-0.1-0.6-0.6-1.1-0.6-1.7c0-0.1,0-0.2,0-0.3
		c0.1-0.2,0.3-0.3,0.5-0.3c0.3,0,0.6,0,0.9,0c0.2,0,0.3,0,0.5,0c0.5,0,1.2,0,1.9-0.2c1.3-0.4,2.4-1.2,3.2-2.2
		c0.9-1.1,1.9-3.7,0.5-6.8C21.8,6.3,18.6,5,18,4.7C17.7,4.6,16.1,4,14,4 M14,6c1.9,0,3.3,0.6,3.3,0.6s2.9,1,4.2,3.9
		c1.3,2.9-0.2,4.8-0.2,4.8c-0.5,0.7-1.3,1.3-2.1,1.5C18.7,17,18.2,17,17.7,17c-0.3,0-0.6,0-0.9,0c-0.1,0-0.2,0-0.2,0
		c-0.1,0-0.2,0-0.3,0c-0.4,0-0.9,0.1-1.3,0.3c-0.5,0.3-0.8,0.7-1.1,1.2c-0.2,0.4-0.2,0.9-0.1,1.3c0.1,0.5,0.2,0.9,0.4,1.3
		c0,0,0.2,0.6,0.3,0.6h0c-0.4,0.1-0.8,0.1-1.1,0.1c-2.6,0-4.6-1.9-4.6-1.9c-4-3.6-2.4-8.1-2.4-8.1s0.7-3.3,4.1-5
		C11.7,6.2,12.9,6,14,6 M19.5,14c-0.8,0-1.5-0.7-1.5-1.5s0.7-1.5,1.5-1.5s1.5,0.7,1.5,1.5S20.3,14,19.5,14 M16.5,10
		C15.7,10,15,9.3,15,8.5S15.7,7,16.5,7C17.3,7,18,7.7,18,8.5S17.3,10,16.5,10 M11.5,10C10.7,10,10,9.3,10,8.5S10.7,7,11.5,7
		C12.3,7,13,7.7,13,8.5S12.3,10,11.5,10 M8.5,14C7.7,14,7,13.3,7,12.5S7.7,11,8.5,11s1.5,0.7,1.5,1.5S9.3,14,8.5,14"/>
</g>
<g id="girokonto" class="st0">
	<path id="Card-Transfer_2_" class="st1" d="M22,6.4c0.6,0,1,0.4,1,1v10c0,0.6-0.4,1-1,1H6c-0.6,0-1-0.4-1-1v-10c0-0.6,0.4-1,1-1
		C6,6.4,22,6.4,22,6.4z M21,11.9H7v4.5h14V11.9z M21,8.4H7v1.5h14V8.4z"/>
	<g class="st1">
		<g>
			<path d="M10,16.1c-0.3,0-0.6-0.1-0.9-0.2c-0.3-0.1-0.5-0.3-0.8-0.5c-0.2-0.2-0.4-0.5-0.5-0.8c-0.1-0.3-0.2-0.6-0.2-1
				c0-0.4,0.1-0.7,0.2-1c0.1-0.3,0.3-0.6,0.5-0.8c0.2-0.2,0.5-0.4,0.8-0.5c0.3-0.1,0.6-0.2,0.9-0.2c0.3,0,0.6,0,0.9,0.1
				c0.2,0.1,0.5,0.2,0.6,0.3c0.2,0.1,0.3,0.3,0.4,0.5c0.1,0.2,0.2,0.3,0.2,0.5l0.1,0.2l-1,0.3h0.9V16H11l0-0.2c0,0-0.1,0.1-0.1,0.1
				C10.6,16.1,10.3,16.1,10,16.1z M10,12.6c-0.1,0-0.2,0-0.4,0.1c-0.1,0-0.2,0.1-0.3,0.2s-0.2,0.2-0.2,0.3C9.1,13.3,9,13.5,9,13.7
				c0,0.2,0,0.4,0.1,0.5c0.1,0.1,0.1,0.2,0.2,0.3c0.1,0.1,0.2,0.2,0.3,0.2c0.1,0,0.3,0.1,0.4,0.1c0.1,0,0.3,0,0.4-0.1
				c0.1,0,0.2-0.1,0.2-0.1H9.6v-1.3h1.3l0-0.1c0,0,0-0.1-0.1-0.2c0-0.1-0.1-0.1-0.1-0.2c-0.1-0.1-0.1-0.1-0.2-0.1
				C10.3,12.7,10.1,12.6,10,12.6z"/>
			<path class="st7" d="M10,11.5c0.3,0,0.6,0,0.8,0.1c0.2,0.1,0.4,0.2,0.6,0.3c0.2,0.1,0.3,0.3,0.4,0.4c0.1,0.2,0.2,0.3,0.2,0.4
				l-0.9,0.3c0-0.1,0-0.1-0.1-0.2c0-0.1-0.1-0.2-0.2-0.2c-0.1-0.1-0.2-0.1-0.3-0.2s-0.3-0.1-0.4-0.1c-0.1,0-0.3,0-0.4,0.1
				c-0.1,0-0.3,0.1-0.4,0.2c-0.1,0.1-0.2,0.2-0.3,0.4c-0.1,0.2-0.1,0.4-0.1,0.6c0,0.2,0,0.4,0.1,0.6c0.1,0.2,0.2,0.3,0.3,0.4
				c0.1,0.1,0.3,0.2,0.4,0.3C9.7,15,9.9,15,10,15c0.2,0,0.3,0,0.4-0.1c0.1,0,0.2-0.1,0.3-0.2c0.1-0.1,0.1-0.1,0.2-0.2
				c0-0.1,0.1-0.1,0.1-0.2H9.8v-0.8h2.1v2.2h-0.8l-0.1-0.4c-0.1,0.1-0.2,0.3-0.4,0.4c-0.2,0.1-0.4,0.2-0.7,0.2
				c-0.3,0-0.6-0.1-0.8-0.2c-0.3-0.1-0.5-0.2-0.7-0.4c-0.2-0.2-0.3-0.4-0.5-0.7c-0.1-0.3-0.2-0.6-0.2-0.9c0-0.3,0.1-0.6,0.2-0.9
				c0.1-0.3,0.3-0.5,0.5-0.7c0.2-0.2,0.4-0.3,0.7-0.4C9.4,11.6,9.7,11.5,10,11.5 M10,11c-0.4,0-0.7,0.1-1,0.2
				c-0.3,0.1-0.6,0.3-0.9,0.5c-0.2,0.2-0.4,0.5-0.6,0.9c-0.1,0.3-0.2,0.7-0.2,1.1c0,0.4,0.1,0.8,0.2,1.1c0.1,0.3,0.3,0.6,0.6,0.8
				c0.2,0.2,0.5,0.4,0.8,0.6c0.3,0.1,0.7,0.2,1,0.2c0.3,0,0.6,0,0.8-0.1l0,0h0.4h0.8h0.5v-0.5v-2.2v-0.4l0.1,0l-0.2-0.5
				c-0.1-0.2-0.1-0.4-0.3-0.6c-0.1-0.2-0.3-0.4-0.5-0.5c-0.2-0.2-0.4-0.3-0.7-0.4C10.7,11.1,10.4,11,10,11L10,11z M9.5,13
				C9.6,13,9.7,13,9.7,12.9c0.1,0,0.2,0,0.3,0c0.1,0,0.2,0,0.3,0c0.1,0,0.1,0.1,0.2,0.1c0,0,0,0,0,0H9.8H9.5L9.5,13z M9.3,14
				c0-0.1,0-0.2,0-0.3c0-0.1,0-0.2,0-0.3v0.2V14L9.3,14z"/>
		</g>
		<g>
			<path d="M12.6,16v-3.4h0.3c0,0-0.1-0.1-0.1-0.1c-0.1-0.1-0.1-0.2-0.2-0.2c0-0.1-0.1-0.2-0.1-0.3c0-0.1,0-0.2,0.1-0.3
				c0-0.1,0.1-0.2,0.2-0.2c0.1-0.1,0.1-0.1,0.2-0.2c0.1,0,0.2-0.1,0.3-0.1c0.2,0,0.4,0.1,0.6,0.2s0.2,0.3,0.2,0.5
				c0,0.2-0.1,0.4-0.2,0.5c0,0-0.1,0.1-0.1,0.1H14V16H12.6z"/>
			<path class="st7" d="M13.3,11.4c0.1,0,0.3,0.1,0.4,0.2c0.1,0.1,0.2,0.2,0.2,0.4c0,0.1-0.1,0.3-0.2,0.4c-0.1,0.1-0.2,0.2-0.4,0.2
				c-0.1,0-0.1,0-0.2,0c-0.1,0-0.1-0.1-0.2-0.1c0,0-0.1-0.1-0.1-0.2c0-0.1,0-0.1,0-0.2c0-0.1,0-0.1,0-0.2c0-0.1,0.1-0.1,0.1-0.2
				c0,0,0.1-0.1,0.2-0.1C13.2,11.4,13.3,11.4,13.3,11.4 M13.8,12.8v2.9h-0.9v-2.9H13.8 M13.3,10.9c-0.1,0-0.3,0-0.4,0.1
				c-0.1,0.1-0.2,0.1-0.3,0.2c-0.1,0.1-0.2,0.2-0.2,0.3c-0.1,0.1-0.1,0.3-0.1,0.4c0,0.1,0,0.3,0.1,0.4h0v0.5v2.9v0.5h0.5h0.9h0.5
				v-0.5v-2.9v-0.5h0c0.1-0.1,0.1-0.3,0.1-0.4c0-0.3-0.1-0.5-0.3-0.7C13.9,11,13.6,10.9,13.3,10.9L13.3,10.9z"/>
		</g>
		<g>
			<path d="M14.5,16v-3.4h1.4v0.1c0.1,0,0.2-0.1,0.3-0.1c0.1,0,0.2,0,0.2,0c0.1,0,0.2,0,0.3,0l0.2,0.1V14L16.6,14c0,0-0.1,0-0.1,0
				l-0.1,0c-0.1,0-0.1,0-0.2,0c0,0-0.1,0-0.1,0.1c0,0-0.1,0.1-0.1,0.2c0,0.1,0,0.2,0,0.3V16H14.5z"/>
			<path class="st7" d="M16.4,12.8c0.1,0,0.2,0,0.2,0v0.9c-0.1,0-0.1,0-0.1,0c0,0-0.1,0-0.1,0c-0.1,0-0.2,0-0.3,0
				c-0.1,0-0.2,0.1-0.2,0.1c-0.1,0.1-0.1,0.1-0.2,0.2c0,0.1-0.1,0.2-0.1,0.4v1.3h-0.9v-2.9h0.9v0.4c0-0.1,0.1-0.2,0.2-0.2
				c0.1-0.1,0.1-0.1,0.2-0.1c0.1,0,0.1-0.1,0.2-0.1C16.3,12.8,16.3,12.8,16.4,12.8 M16.4,12.3c-0.1,0-0.2,0-0.3,0c0,0,0,0,0,0h-0.5
				h-0.9h-0.5v0.5v2.9v0.5h0.5h0.9h0.5v-0.5v-1.3c0-0.1,0-0.2,0-0.2c0,0,0-0.1,0-0.1c0.1,0,0.1,0,0.1,0c0,0,0.1,0,0.1,0
				c0,0,0,0,0.1,0l0.6,0.1v-0.6v-0.9v-0.4l-0.4-0.1C16.7,12.3,16.5,12.3,16.4,12.3L16.4,12.3z"/>
		</g>
		<g>
			<path d="M18.6,16.1c-0.3,0-0.5,0-0.7-0.1c-0.2-0.1-0.4-0.2-0.6-0.4c-0.2-0.2-0.3-0.4-0.4-0.6c-0.1-0.2-0.1-0.5-0.1-0.7
				c0-0.3,0-0.5,0.1-0.7c0.1-0.2,0.2-0.4,0.4-0.6c0.2-0.2,0.4-0.3,0.6-0.4c0.2-0.1,0.5-0.1,0.7-0.1s0.5,0,0.7,0.1
				c0.2,0.1,0.4,0.2,0.6,0.4c0.2,0.2,0.3,0.4,0.4,0.6c0.1,0.2,0.1,0.5,0.1,0.7s0,0.5-0.1,0.7c-0.1,0.2-0.2,0.4-0.4,0.6
				s-0.4,0.3-0.6,0.4C19.1,16.1,18.9,16.1,18.6,16.1z M18.6,13.8c-0.1,0-0.1,0-0.2,0c0,0-0.1,0-0.1,0.1c0,0-0.1,0.1-0.1,0.1
				c0,0.1,0,0.1,0,0.2s0,0.2,0,0.2c0,0.1,0.1,0.1,0.1,0.1c0,0,0.1,0.1,0.1,0.1c0.1,0,0.1,0,0.2,0c0.1,0,0.1,0,0.2,0
				c0,0,0.1,0,0.1-0.1c0,0,0.1-0.1,0.1-0.1c0-0.1,0-0.1,0-0.2c0-0.1,0-0.2,0-0.2c0-0.1-0.1-0.1-0.1-0.1c0,0-0.1-0.1-0.1-0.1
				C18.7,13.8,18.7,13.8,18.6,13.8z"/>
			<path class="st7" d="M18.6,12.8c0.2,0,0.4,0,0.6,0.1c0.2,0.1,0.4,0.2,0.5,0.3c0.1,0.1,0.3,0.3,0.3,0.5c0.1,0.2,0.1,0.4,0.1,0.6
				c0,0.2,0,0.4-0.1,0.6c-0.1,0.2-0.2,0.4-0.3,0.5c-0.1,0.1-0.3,0.2-0.5,0.3c-0.2,0.1-0.4,0.1-0.6,0.1c-0.2,0-0.4,0-0.6-0.1
				c-0.2-0.1-0.4-0.2-0.5-0.3c-0.1-0.1-0.3-0.3-0.3-0.5c-0.1-0.2-0.1-0.4-0.1-0.6c0-0.2,0-0.4,0.1-0.6c0.1-0.2,0.2-0.4,0.3-0.5
				c0.1-0.1,0.3-0.2,0.5-0.3C18.2,12.8,18.4,12.8,18.6,12.8 M18.6,15c0.1,0,0.2,0,0.2,0c0.1,0,0.1-0.1,0.2-0.1
				c0.1-0.1,0.1-0.1,0.1-0.2c0-0.1,0.1-0.2,0.1-0.3c0-0.1,0-0.2-0.1-0.3c0-0.1-0.1-0.2-0.1-0.2c-0.1-0.1-0.1-0.1-0.2-0.1
				c-0.1,0-0.2,0-0.2,0c-0.1,0-0.2,0-0.2,0c-0.1,0-0.2,0.1-0.2,0.1c-0.1,0.1-0.1,0.1-0.1,0.2c0,0.1-0.1,0.2-0.1,0.3
				c0,0.1,0,0.2,0.1,0.3c0,0.1,0.1,0.2,0.1,0.2c0.1,0.1,0.1,0.1,0.2,0.1C18.5,15,18.5,15,18.6,15 M18.6,12.3c-0.3,0-0.6,0.1-0.8,0.2
				c-0.2,0.1-0.5,0.2-0.7,0.4c-0.2,0.2-0.3,0.4-0.4,0.6c-0.1,0.3-0.2,0.5-0.2,0.8c0,0.3,0.1,0.6,0.2,0.8c0.1,0.3,0.3,0.5,0.4,0.7
				c0.2,0.2,0.4,0.3,0.7,0.4c0.2,0.1,0.5,0.2,0.8,0.2c0.3,0,0.6-0.1,0.8-0.2c0.2-0.1,0.5-0.2,0.7-0.4c0.2-0.2,0.3-0.4,0.4-0.7
				c0.1-0.3,0.2-0.5,0.2-0.8c0-0.3-0.1-0.6-0.2-0.8c-0.1-0.2-0.3-0.5-0.4-0.6c-0.2-0.2-0.4-0.3-0.7-0.4
				C19.2,12.3,18.9,12.3,18.6,12.3L18.6,12.3z M18.6,14.5C18.6,14.5,18.6,14.5,18.6,14.5c-0.1,0-0.1-0.1-0.1-0.1c0,0,0-0.1,0-0.1
				c0-0.1,0-0.1,0-0.1c0,0,0-0.1,0-0.1c0.1,0,0.1,0,0.1,0c0,0,0.1,0,0.1,0c0,0,0.1,0,0.1,0.1c0,0,0,0.1,0,0.1c0,0.1,0,0.1,0,0.1
				c0,0,0,0.1,0,0.1C18.7,14.5,18.7,14.5,18.6,14.5L18.6,14.5z"/>
		</g>
	</g>
</g>
<g id="plastikkarte" class="st0">
	<path id="Card-Transfer_4_" class="st1" d="M22,6.4c0.6,0,1,0.4,1,1v10c0,0.6-0.4,1-1,1H6c-0.6,0-1-0.4-1-1v-10c0-0.6,0.4-1,1-1
		C6,6.4,22,6.4,22,6.4z M21,11.9H7v4.5h14V11.9z M21,8.4H7v1.5h14V8.4z"/>
	<path class="st1" d="M19,13.4c-0.5,0-0.8,0.2-1.1,0.6c-0.2-0.4-0.6-0.6-1.1-0.6c-0.7,0-1.3,0.6-1.3,1.3c0,0.7,0.6,1.3,1.3,1.3
		c0.5,0,0.8-0.2,1.1-0.6c0.2,0.4,0.6,0.6,1.1,0.6c0.7,0,1.3-0.6,1.3-1.3C20.3,14,19.8,13.4,19,13.4z"/>
</g>
<g id="sanduhr" class="st0">
	<path class="st1" d="M9.4,20.9c0-2.2,1.3-3.1,1.9-3.4c1.2-0.6,1.9-1.7,1.9-3c0-1.3-0.7-2.4-1.9-3c-0.6-0.3-1.9-1.2-1.9-3.4V7h9.2
		v1.1c0,2.2-1.5,3.2-1.9,3.4c-1.2,0.6-1.9,1.7-1.9,3c0,1.3,0.7,2.4,1.9,3c0.6,0.3,1.9,1.2,1.9,3.4v1.1H9.4V20.9z M22,21.9h-1.4v-1.1
		c0-2.3-1.1-4.2-3-5.2c-0.5-0.3-0.8-0.7-0.8-1.2c0-0.5,0.3-1,0.8-1.2c1.9-1,3-2.9,3-5.2V7H22c0.6,0,1-0.4,1-1s-0.4-1-1-1H6
		C5.4,5,5,5.4,5,6s0.4,1,1,1h1.4v1.1c0,2.3,1.1,4.2,3,5.2c0.5,0.3,0.8,0.7,0.8,1.2c0,0.5-0.3,1-0.8,1.2c-1.9,1-3,2.9-3,5.2v1.1H6
		c-0.6,0-1,0.4-1,1c0,0.6,0.4,1,1,1h16c0.6,0,1-0.4,1-1C23,22.4,22.5,21.9,22,21.9L22,21.9z"/>
</g>
<g id="vimpaygo" class="st0">
	<g class="st1">
		<path class="st7" d="M20.8,9.4l-10.8,0c-0.2,0-0.4,0.1-0.6,0.2l0,0l0,0l-1.4,1.2c-0.2,0.2-0.4,0.4-0.4,0.7l0,5.4
			c0,0.5,0.4,0.9,0.9,0.9l12.3,0c0.5,0,0.9-0.4,0.9-0.9l0-6.5C21.7,9.8,21.3,9.4,20.8,9.4L20.8,9.4z"/>
		<path d="M20.8,9.4c0.5,0,0.9,0.4,0.9,0.9l0,6.5c0,0.5-0.4,0.9-0.9,0.9l-12.3,0c0,0,0,0,0,0c-0.5,0-0.9-0.4-0.9-0.9l0-5.4
			c0-0.3,0.1-0.6,0.4-0.7l1.4-1.2l0,0l0,0c0.2-0.1,0.4-0.2,0.6-0.2L20.8,9.4C20.8,9.4,20.8,9.4,20.8,9.4 M20.8,7.4L20.8,7.4
			L20.8,7.4l-10.8,0C9.3,7.4,8.6,7.6,8.1,8l0,0l0,0L6.6,9.3C6,9.8,5.6,10.6,5.6,11.5l0,5.4c0,1.6,1.3,2.9,2.9,2.9l12.3,0
			c0.8,0,1.5-0.3,2.1-0.9c0.6-0.6,0.9-1.3,0.9-2.1l0-6.5C23.7,8.7,22.4,7.4,20.8,7.4L20.8,7.4z"/>
	</g>
	<path class="st1" d="M18.6,10.2c-0.4,0-0.7,0.1-1,0.3c-0.3-0.2-0.6-0.3-1-0.3c-1.1,0-1.9,0.9-1.9,1.9c0,1.1,0.9,1.9,1.9,1.9
		c0.4,0,0.7-0.1,1-0.3c0.3,0.2,0.6,0.3,1,0.3c1.1,0,1.9-0.9,1.9-1.9S19.7,10.2,18.6,10.2z"/>
</g>
<g id="business_2_" class="st0">
	<path id="business_3_" class="st1" d="M23,13.6L22,8.8c-0.1-0.5-0.5-0.8-1-0.8H5.9C5.5,8,5.1,8.3,5,8.8L4,13.6c0,0.1,0,0.1,0,0.2
		v1.9c0,0.6,0.4,1,1,1h0.5v5.1c0,0.6,0.4,1,1,1H15c0.5,0,1-0.4,1-1v-5.1h3.1V22c0,0.6,0.4,1,1,1h0.6c0.5,0,1-0.4,1-1v-5.2H22
		c0.5,0,1-0.4,1-1v-1.9C23,13.8,23,13.7,23,13.6L23,13.6z M5.9,14.8v-0.8l0.8-4h13.6l0.8,4v0.8H5.9z M14,17.1v3.8H7.4v-3.8H14z
		 M20.8,5c0.6,0,1,0.4,1,1s-0.5,1-1,1l0,0H6.1c-0.6,0-1-0.4-1-1s0.5-1,1-1l0,0H20.8z"/>
</g>
<g id="ads_free" class="st0">
	<g class="st1">
		<g>
			<path d="M4.4,12c0.2,0,0.5,0.2,0.5,0.5v2.4c0,0.2-0.2,0.5-0.5,0.5s-0.5-0.2-0.5-0.5v-2.4C3.9,12.2,4.1,12,4.4,12 M4.4,10
				c-1.4,0-2.5,1.1-2.5,2.5v2.4c0,1.4,1.1,2.5,2.5,2.5s2.5-1.1,2.5-2.5v-2.4C6.8,11.1,5.7,10,4.4,10L4.4,10z"/>
		</g>
		<polygon class="st8" points="5.8,12.2 5.8,14.8 21.4,20.7 21.4,7.3 		"/>
		<g>
			<path d="M22.9,6.7c0.2,0,0.5,0.2,0.5,0.5v13.5c0,0.2-0.2,0.5-0.5,0.5s-0.5-0.2-0.5-0.5V7.2C22.5,6.9,22.7,6.7,22.9,6.7 M22.9,4.7
				c-1.4,0-2.5,1.1-2.5,2.5v13.5c0,1.4,1.1,2.5,2.5,2.5s2.5-1.1,2.5-2.5V7.2C25.4,5.8,24.3,4.7,22.9,4.7L22.9,4.7z"/>
		</g>
		<path class="st9" d="M11.8,19.8L9,18.7c-0.4-0.1-0.6-0.6-0.4-1l0.3-0.8c0.1-0.4,0.6-0.6,1-0.4l2.9,1.1c0.4,0.1,0.6,0.6,0.4,1
			l-0.3,0.8C12.6,19.7,12.2,19.9,11.8,19.8z"/>
		<line class="st10" x1="3.1" y1="5.8" x2="21.4" y2="24.2"/>
		<line class="st10" x1="4.5" y1="4.7" x2="22.9" y2="23.1"/>
		<line class="st8" x1="3.7" y1="5.2" x2="22.1" y2="23.6"/>
	</g>
	<g id="Ebene_120" class="st1">
		<g>
			<g>
				<path d="M23.6,22.4c0.2,0.2,0.2,0.3,0.3,0.5c0.9-0.4,1.5-1.2,1.5-2.3V7.2c0-1.4-1.1-2.5-2.5-2.5c-1.2,0-2.1,0.8-2.4,1.9l-9.7,3
					l1.6,1.6l8-2.5v10.5L23.6,22.4z M23.4,20.6c0,0.2-0.2,0.5-0.5,0.5s-0.5-0.2-0.5-0.5V7.2c0-0.2,0.2-0.5,0.5-0.5s0.5,0.2,0.5,0.5
					V20.6z"/>
				<path d="M11.9,16l-5-1.9V13l1.5-0.5l-1.6-1.6L6.4,11c-0.4-0.6-1.2-1.1-2-1.1c-1.4,0-2.5,1.1-2.5,2.5v2.4c0,1.4,1.1,2.5,2.5,2.5
					c0.9,0,1.6-0.5,2.1-1.2l1.4,0.5l-0.3,0.7c-0.2,0.4-0.2,0.9,0,1.3s0.5,0.8,1,0.9l2.9,1.1h0c0.2,0.1,0.4,0.1,0.6,0.1
					c0.2,0,0.5-0.1,0.7-0.2c0.4-0.2,0.8-0.5,0.9-1l0.3-0.8l1.3,0.5L11.9,16z M4.4,15.3c-0.2,0-0.5-0.2-0.5-0.5v-2.4
					c0-0.2,0.2-0.5,0.5-0.5c0.2,0,0.4,0.2,0.5,0.4v2.4c0,0,0,0,0,0C4.8,15.1,4.6,15.3,4.4,15.3z"/>
			</g>
			<path d="M4.4,4.5C4.2,4.3,3.9,4.2,3.6,4.2C3.4,4.2,3.2,4.3,3,4.5C2.9,4.6,2.8,4.8,2.7,4.9C2.6,5.2,2.7,5.6,3,5.9l18.4,18.4
				c0.2,0.2,0.5,0.3,0.7,0.3c0.1,0,0.2,0,0.3-0.1c0.1,0,0.3-0.1,0.4-0.2c0.1-0.1,0.1-0.1,0.1-0.2c0.2-0.4,0.2-0.9-0.1-1.2"/>
		</g>
	</g>
</g>
<g id="geld_abheben" class="st0">
	<g class="st1">
		<path d="M14.1,9.9c-2.1,0-3.9,1.7-3.9,3.9s1.7,3.9,3.9,3.9c2.1,0,3.9-1.7,3.9-3.9S16.3,9.9,14.1,9.9z M14.1,15.7
			c-1,0-1.9-0.8-1.9-1.9s0.8-1.9,1.9-1.9c1,0,1.9,0.8,1.9,1.9S15.2,15.7,14.1,15.7z"/>
		<path d="M7.3,12.6c-0.7,0-1.2,0.5-1.2,1.2S6.6,15,7.3,15s1.2-0.5,1.2-1.2S8,12.6,7.3,12.6z"/>
		<path d="M20.8,12.6c-0.7,0-1.2,0.5-1.2,1.2s0.5,1.2,1.2,1.2s1.2-0.5,1.2-1.2S21.4,12.6,20.8,12.6z"/>
		<path d="M24.7,6.9h-3.2c-0.1,0-0.1,0-0.1,0l-14.6,0c0,0-0.2,0-0.2,0H3.5c-0.5,0-0.8,0.4-0.8,0.8v5.9l0,2.8c0,0,0,0.1,0,0.1v3.3
			c0,0.5,0.4,0.8,0.8,0.8h21.2c0.5,0,0.8-0.4,0.8-0.8v-12C25.6,7.2,25.2,6.9,24.7,6.9z M23.6,16.4c-0.2,0-2.1,0.1-2.1,2.2H7.1
			c0,0,0,0,0,0c0-1.3-1.1-2.4-2.4-2.4c0,0,0,0,0,0v-2.6l0-2.3c1.3,0,2.4-1.1,2.4-2.4c0,0,0,0,0,0h14.1c0,1.3,1.1,2.4,2.4,2.4
			L23.6,16.4C23.6,16.4,23.6,16.4,23.6,16.4z"/>
	</g>
</g>
<g id="aufladekonto" class="st0">
	<g class="st1">
		<path id="Shape_16_" d="M14,20c0.5,0,1,0.5,1,1c0,0.6-0.4,1-1,1H7c-0.5,0-1-0.5-1-1c0-0.6,0.4-1,1-1H14z M9,12.7c0.5,0,1,0.5,1,1
			v4.4c0,0.5-0.4,0.9-0.9,1l-0.1,0c-0.5,0-1-0.5-1-1v-4.4C8,13.2,8.5,12.7,9,12.7z M14,12.7c0.5,0,1,0.5,1,1v4.4
			c0,0.5-0.4,0.9-0.9,1l-0.1,0c-0.5,0-1-0.5-1-1v-4.4C13,13.2,13.5,12.7,14,12.7z M19,12.7c0.5,0,1,0.5,1,1v0.4c0,0.5-0.4,0.9-0.9,1
			l-0.1,0c-0.5,0-1-0.5-1-1v-0.4C18,13.2,18.5,12.7,19,12.7z M14.4,6.1l0.1,0.1l7,3.9c0.9,0.5,0.6,1.8-0.4,1.9l-0.1,0H7
			c-1,0-1.4-1.3-0.6-1.8l0.1-0.1l7-3.9C13.8,6,14.1,6,14.4,6.1z"/>
		<path d="M21.7,18.6l-2.3-2c0,0-0.1-0.1-0.1-0.1c0,0-0.1-0.1-0.1-0.1c-0.1,0-0.2-0.1-0.3-0.1c0,0,0,0,0,0c0,0,0,0,0,0
			c-0.1,0-0.2,0-0.3,0.1c0,0-0.1,0-0.1,0.1c0,0-0.1,0-0.1,0.1l-2.3,2c-0.4,0.3-0.4,0.9-0.1,1.3c0.2,0.2,0.4,0.3,0.7,0.3
			c0.2,0,0.4-0.1,0.6-0.2l0.8-0.7v1.9c0,0.5,0.4,0.9,0.9,0.9c0.5,0,0.9-0.4,0.9-0.9v-1.9l0.8,0.7c0.4,0.3,0.9,0.3,1.3-0.1
			C22.1,19.5,22.1,18.9,21.7,18.6z"/>
	</g>
</g>
<g id="fremdwhrungsentgelt" class="st0">
	<g class="st1">
		<path d="M15,20c-1.5,0-2.9-0.6-4-1.5c0.1-0.3,0.2-0.5,0.4-0.7c0.2-0.3,0.5-0.7,0.5-1.1c0-0.8-0.7-0.9-1.1-0.9
			c-0.3,0-0.5-0.1-0.7-0.2c-0.1-0.1-0.2-0.3-0.3-0.5c-0.2-0.3-0.4-0.7-0.7-1c0,0,0,0,0,0c0,0,0,0,0,0c0-3.3,2.7-6,6-6
			c0.2,0,0.5,0,0.7,0c-0.1,0-0.1,0.1-0.2,0.1C14.9,8.5,14.1,8.4,14,9c0,0.3,0.8-0.2,1,0c0.1,0.1,0.9,0,1,0c0.4,0-1,1,0,1
			c0.4,0,0.4-0.3,0.9-0.3c1.2,0,2.2,0.3,2.2,0.6c0,0.1-0.1,0.6-0.1,0.6c-0.2,0.2-0.6-0.3-1.1-0.3c-0.1,0-0.3,0-0.4,0
			c-0.4,0-0.6-0.1-0.7-0.1c-0.2-0.1-0.4-0.2-0.9-0.2c-0.5,0-1.5,0.1-2.1,0.7c-0.5,0.5-0.5,1.1-0.4,1.5c0,0.1,0,0.2,0,0.3
			c0,0.6,0.6,1,1.3,1c1,0,1.8,0.2,1.9,0.3c0,0.4,0.1,0.6,0.2,0.8c0.1,0.2,0.1,0.3,0.1,0.5c0,0.1,0,0.2-0.1,0.3
			c-0.1,0.2-0.2,0.3-0.2,0.7c0,0.7,0.6,1.4,0.7,1.5c0.1,0.1,0.1,0.1,0.2,0.1c0,0,0.1,0,0.1,0c0.2,0,1.8-0.5,1.8-1.6
			c0-0.3,0.1-0.4,0.3-0.6c0.2-0.1,0.4-0.3,0.4-0.7c0-0.3,0.5-0.7,0.9-1.1C21,17.3,18.3,20,15,20 M19.7,11.9c0.3,0.1,0.3,0.2,0.4,0.3
			c0.1,0.1,0.2,0.2,0.4,0.2c0.1,0,0.1,0,0.2-0.1c0.1,0.2,0.1,0.4,0.2,0.7C20,12.6,19,12,19.7,11.9 M15,6c-4.4,0-8,3.7-8,8
			c0,4.4,3.6,8,8,8s8-3.6,8-8S19.4,6,15,6"/>
	</g>
	<g class="st1">
		<g>
			<path class="st7" d="M8.2,6.8C8.2,6.8,8.2,6.8,8.2,6.8c0.1,0,0.2,0.1,0.3,0.1c0.2,0.2,0.4,0.7,0.5,1.3C9,8.6,9,9.2,9,9.9
				c0,0.1,0,0.3,0,0.4l0.9,0.5l0.8,0.4l0.1,0c0,0,0,0,0,0l0.7,0.4l0.9,0.5c0,0,0,0,0.1,0c0,0.1,0.1,0.1,0.1,0.2l0,0.5
				c0,0.1,0,0.1-0.1,0.1c0,0-0.1,0.1-0.1,0.1c0,0,0,0-0.1,0l-2.3-0.7l-0.9,0c0,0.8-0.1,1.6-0.1,2.2c0,0.1,0,0.1,0,0.2l1.2,1
				c0,0,0,0,0,0c0.1,0.1,0.1,0.1,0.1,0.2l0,0.2c0,0.1,0,0.1-0.1,0.1l0,0c0,0-0.1,0.1-0.1,0.1c0,0,0,0-0.1,0l-1.2-0.4c0,0,0,0-0.1,0
				l-0.1,0c0,0.1-0.1,0.1-0.1,0.2c-0.1,0.1-0.1,0.1-0.2,0.1l0,0l0,0c0,0,0,0,0,0c-0.1,0-0.1,0-0.2-0.1c0,0-0.1-0.1-0.1-0.2l-0.1,0
				c0,0,0,0-0.1,0l-1.2,0.4c0,0,0,0-0.1,0c-0.1,0-0.1,0-0.1-0.1c0,0-0.1-0.1-0.1-0.1l0-0.2c0-0.1,0-0.1,0.1-0.2c0,0,0,0,0,0l1.2-1
				c0-0.1,0-0.1,0-0.2c-0.1-0.6-0.1-1.4-0.1-2.2l-0.9,0L4.2,13c0,0,0,0-0.1,0C4.1,13,4,13,4,12.9c0,0-0.1-0.1-0.1-0.1l0-0.5
				c0-0.1,0-0.1,0.1-0.2c0,0,0,0,0.1,0l0.9-0.5l0.7-0.4l0,0l0.8-0.4l0.9-0.5c0-0.1,0-0.3,0-0.4c0-0.7,0-1.3,0-1.7
				c0.1-0.6,0.3-1,0.5-1.3C7.9,6.9,8,6.8,8.2,6.8C8.1,6.8,8.1,6.8,8.2,6.8C8.1,6.8,8.2,6.8,8.2,6.8 M7.5,16.8C7.7,17,7.9,17,8.2,17
				h0l0,0c0.2,0,0.4-0.1,0.5-0.2l0.8,0.3c0.1,0,0.2,0.1,0.3,0.1c0.3,0,0.5-0.1,0.7-0.3c0.2-0.2,0.3-0.4,0.3-0.7l0-0.2
				c0-0.3-0.1-0.5-0.3-0.7l0,0l0,0l-0.9-0.8c0-0.4,0.1-0.8,0.1-1.3l0,0l2.2,0.6c0.1,0,0.2,0,0.3,0c0.3,0,0.5-0.1,0.7-0.3
				c0.2-0.2,0.3-0.4,0.3-0.7l0-0.5c0-0.3-0.1-0.5-0.3-0.7c-0.1-0.1-0.1-0.1-0.2-0.2l-0.9-0.5L11,10.6l-0.1,0l-0.8-0.4L9.7,9.9
				c0-0.7,0-1.4,0-1.8c0,0-1.3,1-2.2,3.2C6.7,13.2,7,15,7,15l0.2,1C7.2,16,7.3,16.5,7.5,16.8z"/>
			<path d="M8.9,8.2c-0.1-0.6-0.3-1-0.5-1.3C8.4,6.9,8.3,6.8,8.2,6.8c0,0,0,0-0.1,0c0,0-0.1,0-0.1,0C8,6.8,7.9,6.9,7.9,6.9
				C7.6,7.2,7.4,7.7,7.4,8.2c-0.1,0.4,0,1,0,1.7c0,0.1,0,0.3,0,0.4l-0.9,0.5l-0.8,0.4l0,0L5,11.6L4,12.1c0,0,0,0-0.1,0
				c0,0.1-0.1,0.1-0.1,0.2l0,0.5c0,0.1,0,0.1,0.1,0.1C4,13,4.1,13,4.2,13l2.3-0.7l0.9,0c0,0.8,0.1,1.6,0.1,2.2c0,0.1,0,0.1,0,0.2
				l-1.2,1c0,0,0,0,0,0c-0.1,0.1-0.1,0.1-0.1,0.2l0,0.2c0,0.1,0,0.1,0.1,0.1c0.1,0.1,0.1,0.1,0.2,0l1.2-0.4c0,0,0,0,0.1,0l0.1,0
				c0,0.1,0.1,0.1,0.1,0.2c0.1,0.1,0.1,0.1,0.2,0.1l0,0l0,0c0.1,0,0.1,0,0.2-0.1c0,0,0.1-0.1,0.1-0.2l0.1,0c0,0,0,0,0.1,0l1.2,0.4
				c0.1,0,0.2,0,0.2,0l0,0c0,0,0.1-0.1,0.1-0.1l0-0.2c0-0.1,0-0.1-0.1-0.2c0,0,0,0,0,0l-1.2-1c0-0.1,0-0.1,0-0.2
				c0.1-0.6,0.1-1.4,0.1-2.2l0.9,0l2.3,0.7c0.1,0,0.2,0,0.2-0.1c0,0,0.1-0.1,0.1-0.1l0-0.5c0-0.1,0-0.1-0.1-0.2c0,0,0,0-0.1,0
				l-0.9-0.5l-0.7-0.4c0,0,0,0,0,0l-0.1,0l-0.8-0.4L9,10.3c0-0.1,0-0.3,0-0.4C9,9.2,9,8.7,8.9,8.2z"/>
		</g>
	</g>
</g>
<g id="fastlane" class="st0">
	<g class="st1">
		<circle class="st8" cx="15.6" cy="15.9" r="6.9"/>
		<circle class="st11" cx="15.6" cy="15.9" r="0.8"/>
		<rect x="14.7" y="7.4" class="st8" width="1.7" height="1.5"/>
		<path class="st12" d="M17.1,6.6h-3.1c-0.5,0-0.9-0.4-0.9-0.9v0c0-0.5,0.4-0.9,0.9-0.9h3.1c0.5,0,0.9,0.4,0.9,0.9v0
			C18.1,6.1,17.6,6.6,17.1,6.6z"/>
		<line class="st8" x1="18.1" y1="13.3" x2="16.2" y2="15.3"/>
		<line class="st8" x1="14" y1="14.3" x2="15" y2="15.3"/>
		<line class="st8" x1="4.7" y1="12.4" x2="9.2" y2="12.4"/>
		<line class="st8" x1="3.1" y1="15.7" x2="8.5" y2="15.7"/>
		<line class="st8" x1="6.1" y1="18.7" x2="8.8" y2="18.7"/>
	</g>
	<g class="st1">
		<path d="M17.4,8.3V7.4c0-0.1,0-0.1,0-0.2c0.8-0.1,1.4-0.8,1.4-1.7c0-0.9-0.8-1.7-1.7-1.7h-3.1c-0.9,0-1.7,0.8-1.7,1.7
			c0,0.8,0.6,1.5,1.4,1.7c0,0.1,0,0.1,0,0.2v0.8c-1.9,0.5-3.5,1.6-4.6,3.1H4.7c-0.6,0-1,0.4-1,1s0.4,1,1,1h3.4
			c-0.1,0.4-0.2,0.8-0.3,1.3H3.1c-0.6,0-1,0.4-1,1s0.4,1,1,1h4.6c0,0.3,0.1,0.7,0.2,1H6.1c-0.6,0-1,0.4-1,1s0.4,1,1,1h2.5
			c1.3,2.5,3.9,4.1,6.9,4.1c4.3,0,7.9-3.5,7.9-7.9C23.4,12.2,20.9,9.1,17.4,8.3z M15.6,21.8c-3.2,0-5.9-2.6-5.9-5.9
			c0-3.2,2.6-5.9,5.9-5.9c3.2,0,5.9,2.6,5.9,5.9C21.4,19.2,18.8,21.8,15.6,21.8z"/>
		<path d="M17.4,12.6l-1.7,1.7c-0.1,0-0.1,0-0.2,0c0,0-0.1,0-0.1,0l-0.8-0.8c-0.4-0.4-1-0.4-1.4,0c-0.4,0.4-0.4,1,0,1.4l0.7,0.7
			c0,0.1,0,0.1,0,0.2c0,0.9,0.7,1.6,1.6,1.6c0.9,0,1.6-0.7,1.6-1.6c0-0.1,0-0.1,0-0.2l1.7-1.7c0.4-0.4,0.4-1,0-1.4
			C18.4,12.2,17.8,12.2,17.4,12.6z"/>
	</g>
</g>
<g id="garmin_x5F_watch" class="st0">
	<g id="garmin" class="st1">
		<g>
			<path class="st13" d="M10.7,20.1h0.8v3H16v-3h0.8v3c0,0.5-0.4,0.8-0.8,0.8h-4.4c-0.5,0-0.8-0.4-0.8-0.8V20.1z"/>
			<rect x="11.6" y="20.1" class="st13" width="4.4" height="3"/>
		</g>
		<g>
			<path class="st13" d="M16.8,8.2H16v-3h-4.4v3h-0.8v-3c0-0.5,0.4-0.8,0.8-0.8H16c0.5,0,0.8,0.4,0.8,0.8V8.2z"/>
			<rect x="11.6" y="5.2" class="st13" width="4.4" height="3"/>
		</g>
		<path class="st13" d="M13.8,7.3c-3.7,0-6.8,3-6.8,6.8s3,6.8,6.8,6.8s6.8-3,6.8-6.8S17.5,7.3,13.8,7.3z M13.8,18.7
			c-2.6,0-4.7-2.1-4.7-4.7s2.1-4.7,4.7-4.7s4.7,2.1,4.7,4.7S16.3,18.7,13.8,18.7z"/>
		<g>
			<path class="st13" d="M13.7,14.5c-0.1,0-0.1,0-0.2,0c-0.2-0.1-0.2-0.3-0.1-0.5l1.8-3.3c0.1-0.2,0.3-0.2,0.5-0.1
				c0.2,0.1,0.2,0.3,0.1,0.5L14,14.3C14,14.4,13.8,14.5,13.7,14.5z"/>
			<path class="st13" d="M11.6,15.9c-0.1,0-0.2-0.1-0.3-0.2c-0.1-0.2-0.1-0.4,0.1-0.5l2.2-1.5c0.2-0.1,0.4-0.1,0.5,0.1
				c0.1,0.2,0.1,0.4-0.1,0.5l-2.2,1.5C11.7,15.8,11.7,15.9,11.6,15.9z"/>
		</g>
		<circle class="st13" cx="13.8" cy="14.1" r="0.8"/>
		<path class="st13" d="M21,14.9h-0.6c-0.1,0-0.3-0.1-0.3-0.3v-1.2c0-0.1,0.1-0.3,0.3-0.3H21c0.1,0,0.3,0.1,0.3,0.3v1.2
			C21.2,14.8,21.1,14.9,21,14.9z"/>
	</g>
	<g class="st1">
		<path d="M21,13.2h-0.5C20.2,10.9,18.8,9,16.8,8V5.2c0-0.5-0.4-0.8-0.8-0.8h-4.4c-0.5,0-0.8,0.4-0.8,0.8V8C8.5,9.1,7,11.4,7,14.1
			c0,2.6,1.5,4.9,3.7,6V23c0,0.5,0.4,0.8,0.8,0.8H16c0.5,0,0.8-0.4,0.8-0.8v-2.9c2-1,3.4-2.9,3.7-5.2H21c0.1,0,0.3-0.1,0.3-0.3v-1.2
			C21.2,13.3,21.1,13.2,21,13.2z M13.8,18.7c-2.6,0-4.7-2.1-4.7-4.7c0-2.6,2.1-4.7,4.7-4.7c2.6,0,4.7,2.1,4.7,4.7
			C18.4,16.6,16.3,18.7,13.8,18.7z"/>
	</g>
</g>
<g id="puzzleteil">
	<path class="st7" d="M26.4,13.2h0.3c0.7,0,1.3-0.6,1.3-1.3l0-5.8c0-0.7-0.6-1.3-1.3-1.3h-6.7l0-1.4c0-1.6-1.1-3.2-2.7-3.5
		c-2.2-0.5-4.2,1.2-4.2,3.4v1.5H6.5c-0.7,0-1.3,0.6-1.3,1.3v6.7H3.5c-1.9,0-3.5,1.9-3.5,3.8c0,1.9,1.6,3.8,3.5,3.8h1.8v6.3
		c0,0.7,0.6,1.3,1.3,1.3H12c0.7,0,1.3-0.6,1.3-1.3l0-0.4c0.1-1.3,1.2-3.2,3.4-3.2c2.2,0,3.4,1.8,3.5,3.1l0,0.5
		c0,0.7,0.6,1.2,1.3,1.2h5.4c0.7,0,1.3-0.6,1.3-1.3l0-5.4c0-0.7-0.6-1.3-1.3-1.3h-0.2c-1.4,0-3.4-1.2-3.4-3.4
		C23.1,14.4,25,13.2,26.4,13.2z"/>
</g>
<g id="styx_x5F_xs2a" class="st0">
	<path class="st1" d="M16.4,9.8h5.1c0.2,0,0.4-0.2,0.4-0.4V6.3c0-0.2-0.2-0.4-0.4-0.4l-6.6,0c-0.3,0-0.5,0.1-0.7,0.3l-1.6,2
		c-0.1,0.2-0.4,0.2-0.5,0l-1.6-2.1C10.4,6,10.3,6,10.1,6H6.7C6.3,6,6,6.4,6.2,6.7l3.5,4.6c0.1,0.1,0.1,0.2,0,0.3l-3.4,4.1
		c-0.3,0.3,0,0.8,0.4,0.8l3.4,0c0.3,0,0.5-0.1,0.7-0.3l1.1-1.3c0.1-0.1,0.3-0.1,0.5,0l0.9,1.2c0.1,0.1,0.1,0.2,0,0.3L12,18.1
		c-0.1,0.1-0.2,0.1-0.3,0.1H6.5c-0.2,0-0.4,0.2-0.4,0.4v3.1c0,0.2,0.2,0.4,0.4,0.4h5.7c0,0,0,0,0,0l0.9,0c0.3,0,0.6-0.1,0.8-0.4
		l1.6-1.9c0.1-0.2,0.4-0.2,0.5,0l1.4,1.9c0.2,0.2,0.5,0.4,0.8,0.4h3.2c0.4,0,0.7-0.5,0.4-0.8l-3.4-4.6c-0.1-0.1-0.1-0.2,0-0.3
		l3.4-4.1c0.3-0.3,0-0.8-0.4-0.8l-3.4,0c-0.3,0-0.6,0.1-0.7,0.3l-1,1.2c-0.1,0.2-0.4,0.2-0.5,0l-0.9-1.2c-0.1-0.1-0.1-0.2,0-0.3
		l1.4-1.6C16.2,9.8,16.3,9.8,16.4,9.8z"/>
</g>
</svg>
