<?xml version="1.0" encoding="utf-8"?>
<!-- Generator: Adobe Illustrator 25.1.0, SVG Export Plug-In . SVG Version: 6.00 Build 0)  -->
<svg version="1.1" id="Ebene_1" xmlns="http://www.w3.org/2000/svg" xmlns:xlink="http://www.w3.org/1999/xlink" x="0px" y="0px"
	 viewBox="0 0 24 24" style="enable-background:new 0 0 24 24;" xml:space="preserve">
<style type="text/css">
	.st0{fill:#FFFFFF;}
</style>
<path class="st0" d="M23.3141403,5.728497c-0.0451126-0.0015521-0.9716587-0.0328341-2.3317699-0.0027752V2.9370997
	c0-0.411082-0.3510132-0.7371159-0.7643051-0.7031529c-2.7119465,0.226403-6.1622791,1.4247458-8.2181129,3.6104565
	c-2.0558329-2.1857111-5.506166-3.3840535-8.2181129-3.6104565C3.3692989,2.2003601,3.0175345,2.5249357,3.0175345,2.9370997
	V5.801126C2.2447622,5.7719612,1.5138087,5.7514048,0.7312993,5.7284026
	C0.3366341,5.7159371,0.0047674,6.033833,0.0047674,6.4336724v12.8499012c0,0.3713341,0.2877433,0.6791172,0.6582299,0.7040005
	c2.8067791,0.1889114,7.5083742,0.2101746,11.0601721,1.7250481c0.3165321,0.1351929,0.6007004-0.0200863,0.5536604,0
	c3.5517035-1.5148277,8.2524519-1.5360413,11.0601721-1.7250481c0.3704395-0.0248833,0.6582317-0.3326664,0.6582317-0.7040005
	V6.4336724C23.9951382,6.0535431,23.6940365,5.7417622,23.3141403,5.728497L23.3141403,5.728497z M19.5711708,3.7307105v12.0934048
	c-2.0347595,0.4551582-4.6134424,1.4264393-6.8656197,3.4858952c0-0.6211624,0-11.7926788,0-12.1286373
	c1.5438509-1.9262853,4.4676647-3.0873256,6.8656197-3.4506619V3.7307105z M4.4287319,3.7307105
	c2.3979554,0.3633366,5.3217697,1.5243764,6.8656206,3.4506621v12.1286383
	c-2.2521782-2.0594559-4.8308601-3.0307369-6.8656206-3.4858952V3.7307105z M1.4159651,18.6196041V7.1603456
	c0.5052561,0.0149584,1.0456507,0.031846,1.6015687,0.053061v9.1858187c0,0.3394871,0.2417853,0.6308537,0.5754397,0.6934624
	c1.6111648,0.3024197,3.7063239,0.9588146,5.6590462,2.372179c-2.7859406-0.6248322-5.7020407-0.7252636-7.8360538-0.8452606
	L1.4159651,18.6196041z M22.5839386,18.6196041c-2.1305332,0.1198101-5.0490322,0.2201462-7.8361015,0.8452606
	c1.9527225-1.4133625,4.0479298-2.0697575,5.6590462-2.3721771c0.3336544-0.0626087,0.5754395-0.3539753,0.5754395-0.6934624
	V7.1373897c0.649435-0.0145354,1.2025776-0.0147238,1.6015701-0.0111012v11.4933157H22.5839386z"/>
<path class="st0" d="M9.4600601,8.810626C8.9135504,8.4298849,7.9713874,7.962543,6.9659085,7.792634
	C6.5818276,7.7274365,6.2175503,7.9865799,6.1525879,8.3708019C6.0876722,8.755024,6.3465333,9.1191607,6.7308021,9.1840754
	c0.7763004,0.1311951,1.5208478,0.5045509,1.9225698,0.7844381c0.3196363,0.2226868,0.7594595,0.1442242,0.9822884-0.1756001
	c0.2227335-0.3197308,0.1441298-0.7595539-0.1756001-0.9822884V8.810626z"/>
<path class="st0" d="M9.3894062,12.7840891c-0.5028095-0.3070297-1.4862733-0.8458252-2.4234977-1.0042076
	c-0.3840809-0.0651035-0.7483582,0.1938982-0.8133206,0.578167c-0.0649157,0.3842697,0.1939454,0.7483587,0.5782142,0.8132734
	c0.7301068,0.1233854,1.5880685,0.6125069,1.9230399,0.817131c0.3329954,0.2032604,0.7670794,0.0977964,0.9699631-0.2343998
	c0.2031183-0.3325729,0.0981731-0.766798-0.2343998-0.969964H9.3894062z"/>
<path class="st0" d="M15.3369951,9.9685144c0.401722-0.2798882,1.1462698-0.653244,1.9225702-0.7844381
	c0.384222-0.0649157,0.6430817-0.4290514,0.5782146-0.8132734c-0.0649166-0.3842697-0.4291935-0.643507-0.8133221-0.5781679
	C16.01898,7.9624958,15.0768175,8.4298849,14.5303068,8.810626c-0.3197308,0.2227345-0.3983335,0.6625586-0.1756001,0.9822884
	c0.2228756,0.3199186,0.6628399,0.3981934,0.9822874,0.1756001H15.3369951z"/>
<path class="st0" d="M17.0244598,11.7799282c-0.9372234,0.1583357-1.9206877,0.6971312-2.4234972,1.0042086
	c-0.3325729,0.2031183-0.4375181,0.6373911-0.2343998,0.9699631c0.2031183,0.3325262,0.6373444,0.4374714,0.9699631,0.2344007
	c0.3349714-0.2046242,1.1929331-0.6937447,1.9230394-0.817131c0.3842239-0.0649157,0.6430836-0.4290037,0.5782146-0.8132734
	C17.7728176,11.9738264,17.4085884,11.7145901,17.0244598,11.7799282z"/>
</svg>
