<?xml version="1.0" encoding="utf-8"?>
<!-- Generator: Adobe Illustrator 25.1.0, SVG Export Plug-In . SVG Version: 6.00 Build 0)  -->
<svg version="1.1" id="Ebene_1" xmlns="http://www.w3.org/2000/svg" xmlns:xlink="http://www.w3.org/1999/xlink" x="0px" y="0px"
	 width="32px" height="31.8999996px" viewBox="0 0 32 31.8999996" style="enable-background:new 0 0 32 31.8999996;"
	 xml:space="preserve">
<style type="text/css">
	.st0{fill:#FFFFFF;}
</style>
<path id="Shape_2_" class="st0" d="M6.8738937,28.6471901h18.2522125V3.2528088H6.8738937V28.6471901z M26.4080334,31.8214893
	H5.5919657c-1.0445876,0-1.8923695-0.8346558-1.8923695-1.8672333V1.9457452c0-1.0307138,0.8477819-1.8672343,1.8923695-1.8672343
	h20.8160667c1.04459,0,1.8923702,0.8365205,1.8923702,1.8672343v28.0085106
	C28.3004036,30.9868336,27.4526234,31.8214893,26.4080334,31.8214893L26.4080334,31.8214893z M20.2512913,19.7951527
	c0.9403839,0,1.7005177,0.7094574,1.7005177,1.5871506c0,0.8776951-0.7601337,1.5871487-1.7005177,1.5871487h-8.5025835
	c-0.9386854,0-1.7005157-0.7094536-1.7005157-1.5871487c0-0.8776932,0.7618303-1.5871506,1.7005157-1.5871506H20.2512913z
	 M20.2512913,13.9047041c0.9403839,0,1.7005177,0.7110434,1.7005177,1.5871496s-0.7601337,1.5871487-1.7005177,1.5871487h-8.5025835
	c-0.9386854,0-1.7005157-0.7110424-1.7005157-1.5871487s0.7618303-1.5871496,1.7005157-1.5871496H20.2512913z M20.2512913,8.0142555
	c0.9403839,0,1.7005177,0.7110424,1.7005177,1.5871487s-0.7601337,1.5871487-1.7005177,1.5871487h-8.5025835
	c-0.9386854,0-1.7005157-0.7110424-1.7005157-1.5871487s0.7618303-1.5871487,1.7005157-1.5871487H20.2512913z"/>
</svg>
