<?xml version="1.0" encoding="utf-8"?>
<!-- Generator: Adobe Illustrator 25.1.0, SVG Export Plug-In . SVG Version: 6.00 Build 0)  -->
<svg version="1.1" id="Ebene_1" xmlns="http://www.w3.org/2000/svg" xmlns:xlink="http://www.w3.org/1999/xlink" x="0px" y="0px"
	 viewBox="0 0 24 11.0849609" style="enable-background:new 0 0 24 11.0849609;" xml:space="preserve">
<style type="text/css">
	.st0{fill:#2395F6;}
</style>
<g>
	<path class="st0" d="M3.3706055,6.8549805v4.0048828H1.300293V0.2250977h3.9750977
		c0.5200195,0,0.9951172,0.0820312,1.425293,0.2470703c0.4296875,0.165039,0.7998047,0.3955078,1.1098633,0.6904297
		c0.3095703,0.2949219,0.5473633,0.6445312,0.7124023,1.0498047c0.1650391,0.4047852,0.2475586,0.8476562,0.2475586,1.3276367
		S8.6879883,4.4648438,8.5229492,4.875s-0.402832,0.7597656-0.7124023,1.0498047
		C7.5004883,6.2148438,7.1303711,6.4423828,6.7006836,6.6074219c-0.4301758,0.1650391-0.9052734,0.2475586-1.425293,0.2475586
		H3.3706055z M5.0205078,5.0698242c0.5200195,0,0.9272461-0.137207,1.2226562-0.4125977
		c0.2944336-0.2749023,0.4423828-0.6420898,0.4423828-1.1025391c0-0.4799805-0.1479492-0.8549805-0.4423828-1.125
		C5.9477539,2.159668,5.5405273,2.0249023,5.0205078,2.0249023H3.3852539v3.0449219H5.0205078z"/>
	<path class="st0" d="M10.3901367,10.8598633V0.2250977h2.1000977v10.6347656H10.3901367z"/>
	<path class="st0" d="M20.2148438,3.3300781c-0.0292969-0.1503906-0.0820312-0.3125-0.1572266-0.487793
		c-0.0751953-0.1748047-0.1875-0.3374023-0.3378906-0.4873047c-0.1494141-0.1499023-0.3427734-0.2749023-0.5771484-0.375
		c-0.2353516-0.1000977-0.5224609-0.1499023-0.8623047-0.1499023c-0.25,0-0.4775391,0.0371094-0.6826172,0.1123047
		s-0.3798828,0.175293-0.5253906,0.2998047c-0.1445312,0.1254883-0.2568359,0.2680664-0.3369141,0.4277344
		C16.6552734,2.8300781,16.6152344,3,16.6152344,3.1796875c0,0.2905273,0.0947266,0.5429688,0.2851562,0.7578125
		c0.1894531,0.2148438,0.4794922,0.3623047,0.8701172,0.4423828l1.484375,0.2851562
		c0.4804688,0.0898438,0.9052734,0.2348633,1.2753906,0.4350586c0.3701172,0.199707,0.6796875,0.4375,0.9296875,0.7124023
		s0.4404297,0.5825195,0.5703125,0.9223633s0.1943359,0.6953125,0.1943359,1.0649414
		c0,0.4101562-0.0849609,0.8125-0.2548828,1.2075195s-0.4169922,0.7451172-0.7421875,1.0498047
		c-0.3251953,0.3051758-0.7255859,0.5527344-1.2001953,0.7426758s-1.0224609,0.2851562-1.6425781,0.2851562
		c-0.7099609,0-1.3193359-0.1025391-1.8300781-0.3076172c-0.5097656-0.2045898-0.9375-0.4672852-1.2822266-0.7875977
		C14.9277344,9.6699219,14.6650391,9.3125,14.4853516,8.9174805c-0.1806641-0.3950195-0.2900391-0.7822266-0.3300781-1.1625977
		l1.9199219-0.5102539c0.0195312,0.2602539,0.0820312,0.5102539,0.1875,0.75
		c0.1044922,0.2402344,0.2519531,0.4526367,0.4423828,0.6376953c0.1894531,0.1850586,0.4248047,0.3325195,0.7050781,0.4423828
		c0.2792969,0.1103516,0.609375,0.1650391,0.9902344,0.1650391c0.5595703,0,0.9873047-0.1220703,1.2822266-0.3671875
		S20.125,8.3149414,20.125,7.9350586c0-0.3100586-0.1103516-0.5776367-0.3300781-0.8027344
		s-0.5400391-0.3774414-0.9599609-0.4575195L17.3496094,6.375C16.5,6.2050781,15.8222656,5.8574219,15.3173828,5.3325195
		C14.8125,4.8071289,14.5605469,4.1396484,14.5605469,3.3300781c0-0.4702148,0.0966797-0.9077148,0.2919922-1.3125
		c0.1953125-0.4052734,0.4628906-0.7578125,0.8027344-1.0576172c0.3398438-0.300293,0.734375-0.5351562,1.1845703-0.7050781
		S17.7646484,0,18.2646484,0c0.640625,0,1.1875,0.0874023,1.6425781,0.262207
		c0.4550781,0.175293,0.8330078,0.3974609,1.1328125,0.6674805s0.5322266,0.5678711,0.6972656,0.8925781
		c0.1650391,0.3251953,0.2773438,0.6376953,0.3378906,0.9375L20.2148438,3.3300781z"/>
</g>
</svg>
