<?xml version="1.0" encoding="utf-8"?>
<!-- Generator: Adobe Illustrator 25.1.0, SVG Export Plug-In . SVG Version: 6.00 Build 0)  -->
<svg version="1.1" id="Ebene_1" xmlns="http://www.w3.org/2000/svg" xmlns:xlink="http://www.w3.org/1999/xlink" x="0px" y="0px"
	 width="32px" height="31.8999996px" viewBox="0 0 32 31.8999996" style="enable-background:new 0 0 32 31.8999996;"
	 xml:space="preserve">
<style type="text/css">
	.st0{fill:#FFFFFF;}
</style>
<path class="st0" d="M24.8413563,12.3601646c0.3381805,1.7086697,0.3845921,3.4532566,0.3577023,5.2675648
	c-0.148716-0.1125107-0.2992535-0.221405-0.4479809-0.3321133c-0.5447674-0.3999348-1.0796833-0.7918282-1.5149155-1.1492138
	c0.2996807-2.2946491,0.2347946-4.416172-0.2032261-6.4383106c0.0323009,0.0160074,0.0573921,0.0338554,0.0798016,0.0490217
	C24.0431042,10.3851433,24.623764,11.2609005,24.8413563,12.3601646 M20.3876762,18.0430298
	c-0.6034279,1.3083763-1.1255798,1.6516037-1.7706757,1.7849884c-1.8506165,0.3852558-3.7437963,0.3586159-5.7768087-0.0667419
	c-0.1159334-0.0254135-0.2300568-0.0526371-0.3450651-0.0825539c-0.3871126-0.1246014-0.6484423-0.3678284-0.8187218-0.7915649
	c-1.2027082-2.9733009-1.3913765-5.9264803-0.5766897-9.031353c0.6443815-2.4550581,1.8872309-4.7660637,3.7986097-7.0639114
	c0.1223526-0.1474013,0.2545452-0.2849617,0.3858328-0.4216163c0.0172081-0.0189989,0.0362177-0.0380082,0.0570374-0.0588276
	c0.1927891-0.1892102,0.6118097-0.4916185,1.1891375,0.0847785c0.3197956,0.2473817,0.591238,0.6075313,0.879652,0.9882793
	l0.233057,0.3072834c2.6846581,3.4558992,3.8222408,7.0972891,3.4781151,11.1307611
	C21.0013351,16.2198639,20.6641293,17.3997879,20.3876762,18.0430298 M21.368679,22.9055748
	c-1.5822849,0.6626358-3.3781948,0.9269829-5.624588,0.8259373c-1.9828014-0.0891018-3.7653913-0.4052505-5.4888077-0.989912
	c0.3943081-0.4855556,0.8368073-0.9030075,1.3017235-1.3070908c0.1832638,0.0529118,0.3720846,0.0787964,0.5553904,0.1245079
	c0.0341434,0.0087967,0.0601397,0.0257416,0.0942936,0.0327396c0.0700979,0.0157852,0.1375532,0.0216866,0.2067671,0.0347767
	c2.1235476,0.485117,4.3531227,0.5385685,6.7934265,0.1075459c0.3513126-0.0614624,0.6803265-0.1560879,0.9879208-0.2811852
	C20.6410408,21.9280987,21.0576515,22.3917789,21.368679,22.9055748 M15.0451202,29.7998924
	c-0.0099478,0.0081577-0.0144739,0.0126839-0.0144739,0.0126839c-1.8370285-2.3783455-1.2004032-4.1278553-1.2004032-4.1278553
	l3.0706224,0.1105881C17.3088417,27.7240372,15.2414236,29.6250591,15.0451202,29.7998924 M6.8519893,18.0022144
	c-0.0892258-1.809124-0.101429-3.5557098,0.1778197-5.2842169c0.1784105-1.108799,0.7245741-2.0145922,1.6365833-2.6993732
	c0.0225992-0.017231,0.0479021-0.0353775,0.0786152-0.055356c-0.365674,2.0403728-0.3592768,4.1613426,0.0168962,6.4475098
	c-0.4116268,0.3704739-0.9360757,0.7983074-1.4731765,1.2352123C7.1431484,17.7647305,6.9975681,17.8834724,6.8519893,18.0022144
	 M17.7108879,0.8828792c-1.2827492-0.9967009-2.7634382-0.9294843-3.7966986,0.1735545
	c-0.1638956,0.1728419-0.3286858,0.3447888-0.4791412,0.5274503c-1.5887327,1.9090006-2.7555513,3.8398106-3.5413179,5.854763
	C9.87572,7.4405537,9.8586378,7.4379539,9.8415251,7.4407539C9.2378445,7.5702944,8.0278606,8.12185,7.5298109,8.4982338
	c-1.3160763,0.9940186-2.1238737,2.3188972-2.3853827,3.9384146c-0.4053769,2.5166416-0.2523985,4.9598017-0.091269,7.546895
	l0.0050282,0.0629616c0.0221291,0.367918,0.2551107,0.6878014,0.5980797,0.8207607
	c0.3420739,0.1320648,0.7655931,0.0341835,1.0027366-0.1993828c0.4922323-0.4582386,1.1704183-1.0147572,1.8241649-1.5468388
	c0.3336611-0.2728291,0.6573772-0.5374985,0.9594412-0.793045c0.1360302,0.4329395,0.2891731,0.8630772,0.4621258,1.2912979
	c0.0744991,0.1849346,0.174345,0.3445263,0.2723799,0.5059242c-0.692029,0.6150951-1.3862934,1.3039913-1.9684534,2.2099972
	c-0.3327212,0.4186039-0.3071733,0.8170967-0.2589145,1.0264835c0.1439252,0.6200657,0.7364955,0.8487415,0.9609532,0.9356079
	c0.9876165,0.3811264,2.0135384,0.6756382,3.0848913,0.8960934c-0.1780615,0.5913677-0.6823673,2.945715,1.5199165,5.7979393
	c0.3170328,0.4111748,0.7924356,0.6711369,1.3131676,0.7211609c0.5216494,0.0473194,1.0409718-0.1213188,1.4407463-0.4656277
	l0.0018101-0.0018101c0.5518284-0.4927845,3.0153866-2.8847733,2.5084419-5.7325916
	c1.3048916-0.1651688,2.4936447-0.4736328,3.5980263-0.9714718c0.2318878-0.1048527,0.5206089-0.2343369,0.7477951-0.4579449
	c0.1285305-0.1267395,0.2365475-0.2848549,0.3061066-0.4832382c0.1922493-0.5554562-0.0676403-1.043457-0.2581081-1.4004841
	c-0.452158-0.8450184-1.0646324-1.5136166-1.7147655-2.205389c0.2695484-0.3876343,0.4879227-0.7956657,0.6665745-1.1818638
	l0.0073051-0.0180397c0.1103783-0.2535172,0.2128124-0.533083,0.3090687-0.8333073
	c0.361002,0.2795334,0.7507172,0.5732956,1.165554,0.8795071c0.6729088,0.4918671,1.3654995,1.0034142,1.8740578,1.4395561
	c0.2802639,0.2368145,0.6752644,0.2443848,1.01091,0.0930271c0.1136856-0.0510635,0.2131214-0.1272373,0.2964535-0.2195148
	c0.1675682-0.185463,0.2698345-0.4362316,0.2766876-0.6828365c0.0701084-2.5821571,0.1375809-5.0221176-0.3508358-7.501996
	c-0.3163052-1.6035128-1.1654549-2.881731-2.5179672-3.7979326c-0.5019321-0.3389959-1.6852207-0.805356-2.3046131-0.9105911
	c-0.6499424-1.6402431-1.553957-3.2285948-2.7364178-4.7514153l-0.2169857-0.2857809
	C18.6054592,1.7828826,18.2277641,1.282078,17.7108879,0.8828792 M13.6377087,9.3995504L13.6377087,9.3995504
	c-0.2485361,0.2450771-0.4555597,0.5282125-0.6150303,0.8433704c-0.3844528,0.7598324-0.4473972,1.6271582-0.1786489,2.4412985
	c0.2678843,0.8132734,0.8345156,1.4713783,1.5952225,1.855834c1.225771,0.6165228,2.7037134,0.3858042,3.678874-0.5755177
	c0.2433586-0.2398968,0.4469337-0.5161276,0.6029587-0.8209209c0.8034153-1.5645494,0.1852264-3.4944353-1.3759727-4.303134
	C16.1132698,8.2040806,14.6240902,8.4287386,13.6377087,9.3995504 M14.9247427,10.7072954
	c0.4099112-0.4047213,1.0421896-0.5180426,1.5816069-0.2392397c0.6664906,0.3454733,0.9274712,1.1656504,0.5843868,1.8356781
	c-0.0689621,0.134697-0.157814,0.2529564-0.2596455,0.3530569c-0.4055977,0.4004087-1.0335512,0.516326-1.5695019,0.2461653
	c-0.668211-0.336834-0.9395666-1.1639357-0.6025257-1.8313789C14.7297497,10.9334278,14.8194609,10.8108492,14.9247427,10.7072954"
	/>
</svg>
