<?xml version="1.0" encoding="utf-8"?>
<!-- Generator: Adobe Illustrator 25.1.0, SVG Export Plug-In . SVG Version: 6.00 Build 0)  -->
<svg version="1.1" id="Ebene_1" xmlns="http://www.w3.org/2000/svg" xmlns:xlink="http://www.w3.org/1999/xlink" x="0px" y="0px"
	 viewBox="0 0 32.0506058 11.72122" style="enable-background:new 0 0 32.0506058 11.72122;" xml:space="preserve">
<style type="text/css">
	.st0{fill:#2395F6;}
</style>
<g>
	<path class="st0" d="M6.4024973,3.5212193c-0.0314951-0.1590228-0.08674-0.3304369-0.1662512-0.5157914
		C6.1567345,2.8205895,6.0379839,2.648659,5.8794775,2.4901526C5.7209706,2.3316462,5.5170293,2.1994712,5.2686853,2.0936282
		C5.0203409,1.9877851,4.7162356,1.9351217,4.3568854,1.9351217c-0.2648659,0-0.5054653,0.0392394-0.7217982,0.1187509
		C3.4182379,2.133384,3.2328835,2.2392271,3.0800564,2.3708854C2.926713,2.5035765,2.8074458,2.6543386,2.7227714,2.8231711
		C2.6380968,2.9925201,2.596276,3.1721952,2.596276,3.3621964c0,0.3072033,0.1001637,0.5741343,0.3010073,0.8013096
		C3.0981271,4.3906817,3.404814,4.5466065,3.817344,4.6312809l1.570092,0.3015242
		C5.8949666,5.0278053,6.3446708,5.181149,6.736032,5.3928351c0.3908448,0.2111697,0.7187004,0.4626117,0.9830499,0.753293
		c0.2643499,0.2906814,0.4651937,0.6159554,0.6030474,0.9753056c0.1373386,0.3593502,0.206007,0.7352223,0.206007,1.1260676
		c0,0.4336987-0.0898371,0.8591356-0.2695122,1.2768288c-0.180192,0.4176931-0.4419599,0.7878857-0.7853045,1.1100616
		c-0.3438611,0.3226929-0.766717,0.5844612-1.2690845,0.7853041C5.702384,11.6205397,5.1230865,11.72122,4.4678917,11.72122
		c-0.7512279,0-1.3960962-0.1084242-1.9351215-0.3252735c-0.5395417-0.2163334-0.9913111-0.4941072-1.3563406-0.8328047
		c-0.3645133-0.3381815-0.642287-0.7161188-0.8328046-1.133812C0.1536237,9.0116367,0.0369381,8.6022043-0.0048828,8.2000008
		L2.0252395,7.660459c0.0211687,0.2751923,0.087256,0.5395417,0.1982622,0.7930484
		C2.3345079,8.707531,2.490433,8.9321251,2.6912766,9.1278057C2.8921204,9.3234863,3.1404643,9.4794111,3.436825,9.5955811
		C3.7326694,9.712266,4.0816936,9.770093,4.4833808,9.770093c0.5922055,0,1.0444908-0.129077,1.3563409-0.3882637
		s0.4677749-0.5896235,0.4677749-0.9913111c0-0.3278551-0.1161695-0.6107922-0.3490243-0.8488097
		c-0.2323384-0.238018-0.5710363-0.399106-1.0150609-0.4837809L3.3733191,6.7409148
		c-0.8988919-0.1796751-1.615527-0.547286-2.1493893-1.1023173C0.6900676,5.0830503,0.4231363,4.3772578,0.4231363,3.5212193
		c0-0.4972043,0.1032615-0.9598162,0.3092684-1.3878353c0.2060067-0.4285356,0.4889435-0.8013098,0.84881-1.1183228
		C1.940565,0.6975318,2.358258,0.4491878,2.8337777,0.2695126C3.3098133,0.0898375,3.8121808,0,4.3408799,0
		c0.6763635,0,1.2556605,0.0924191,1.7368598,0.2772573c0.4806824,0.1853545,0.8803048,0.4202747,1.1973176,0.7057928
		c0.3170133,0.2855182,0.563292,0.600466,0.7378039,0.9438107c0.173996,0.3438609,0.2932625,0.674298,0.3567686,0.9913111
		L6.4024973,3.5212193z"/>
	<path class="st0" d="M15.4760904,11.72122c-0.7827225,0-1.5231075-0.1378546-2.2206392-0.4125299
		c-0.6985645-0.2746754-1.3093567-0.6660366-1.8328934-1.1735678c-0.5230198-0.5075302-0.9381313-1.120904-1.2448177-1.8401213
		C9.8710527,7.5763011,9.7177095,6.7672467,9.7177095,5.8683548c0-0.898376,0.1559248-1.7100115,0.4677753-2.4343915
		c0.3118496-0.7243798,0.7321243-1.3403351,1.2613392-1.8478657c0.528183-0.5075306,1.1389751-0.898892,1.8313446-1.1740839
		C13.97157,0.1373379,14.693368,0,15.4440794,0c0.7713633,0,1.4559889,0.1084247,2.0538721,0.3247576
		c0.5978851,0.2168493,1.1048985,0.5023675,1.5231094,0.8565547c0.4171753,0.3547034,0.7558746,0.7538093,1.0150604,1.197834
		s0.4460907,0.893729,0.5627747,1.3480797l-2.0621319,0.6500318c-0.0629902-0.2638335-0.1693497-0.5333462-0.3170128-0.8085382
		c-0.1486969-0.275192-0.3469601-0.5178568-0.5947876-0.729543c-0.2488594-0.2116861-0.5524502-0.3861983-0.9118004-0.5235362
		c-0.3593502-0.1373377-0.7827215-0.2065229-1.269084-0.2065229c-0.4233723,0-0.8405485,0.0769298-1.2525625,0.2302732
		c-0.4130459,0.1533434-0.7832394,0.3831003-1.1110945,0.6897871s-0.592205,0.6980481-0.7930489,1.1740839
		c-0.2013597,0.4755197-0.3015232,1.0305505-0.3015232,1.6650929c0,0.602531,0.0975819,1.1343279,0.2932625,1.593842
		c0.1956806,0.4600301,0.4548674,0.8462281,0.7775593,1.1580787c0.3226929,0.3118496,0.6928854,0.5498676,1.1110945,0.7135372
		c0.4171772,0.1641855,0.8529406,0.2462788,1.3083239,0.2462788c0.4760361,0,0.8963099-0.0717669,1.2608232-0.2142677
		c0.3645134-0.1430168,0.6742992-0.3252735,0.92729-0.547286c0.2540226-0.2220125,0.4605465-0.4677753,0.618536-0.7372875
		c0.1590233-0.2700291,0.2757092-0.5369606,0.3490238-0.8013101l2.0466442,0.6185369
		c-0.1063595,0.4336982-0.2880993,0.8751416-0.5472851,1.3243299c-0.2591877,0.4497032-0.6030483,0.8596525-1.0315838,1.2293282
		c-0.4275036,0.3701935-0.940712,0.6742983-1.5375652,0.9123163C16.9640903,11.6019526,16.2691402,11.72122,15.4760904,11.72122z"/>
	<path class="st0" d="M28.7359085,8.913538h-4.5682926l-0.9355488,2.569664h-2.3151245l4.3142681-11.2451839h2.5371361
		l4.282259,11.2451839h-2.3791485L28.7359085,8.913538z M24.8976765,6.9154267h3.1092052l-1.5551186-4.250762L24.8976765,6.9154267z
		"/>
</g>
</svg>
