<?xml version="1.0" encoding="utf-8"?>
<!-- Generator: Adobe Illustrator 24.1.1, SVG Export Plug-In . SVG Version: 6.00 Build 0)  -->
<svg version="1.1" id="Ebene_1" xmlns="http://www.w3.org/2000/svg" xmlns:xlink="http://www.w3.org/1999/xlink" x="0px" y="0px"
	 viewBox="0 0 31.2 32" style="enable-background:new 0 0 31.2 32;" xml:space="preserve">
<style type="text/css">
	.st0{fill:#FFFFFF;}
</style>
<path class="st0" d="M20.4,7.6h10.1c0.4,0,0.7-0.3,0.7-0.7V0.7c0-0.4-0.3-0.7-0.7-0.7h-13c-0.6,0-1.1,0.2-1.4,0.7l-3.3,3.9
	c-0.3,0.3-0.8,0.3-1,0L8.6,0.4C8.4,0.1,8.2,0,7.9,0H1C0.2,0-0.3,0.9,0.2,1.6l6.9,9.2c0.1,0.2,0.1,0.4,0,0.5l-6.8,8.1
	C-0.2,20.1,0.2,21,1.1,21h6.8c0.5,0,1-0.2,1.4-0.6l2.2-2.6c0.2-0.3,0.7-0.3,0.9,0l1.9,2.5c0.1,0.2,0.1,0.4,0,0.5L11.7,24
	c-0.1,0.2-0.3,0.3-0.6,0.3H0.7C0.3,24.3,0,24.6,0,25v6.2C0,31.7,0.3,32,0.7,32h11.4l0,0h1.7c0.6,0,1.2-0.3,1.5-0.7l3.1-3.8
	c0.3-0.3,0.8-0.3,1,0l2.7,3.7c0.4,0.5,0.9,0.8,1.5,0.8H30c0.8,0,1.3-0.9,0.8-1.6L24,21.2c-0.1-0.2-0.1-0.4,0-0.5l6.8-8.1
	c0.5-0.7,0.1-1.6-0.8-1.6h-6.8c-0.6,0-1.1,0.3-1.5,0.7l-2.1,2.5c-0.3,0.3-0.8,0.3-1,0l-1.8-2.4c-0.1-0.2-0.1-0.4,0-0.5l2.7-3.2
	C19.9,7.7,20.1,7.6,20.4,7.6z"/>
</svg>
