<svg id="logo" xmlns="http://www.w3.org/2000/svg" viewBox="0 0 801.11 169.2"><title>01_pf_logo_rgb</title><path d="M123.77,55.64c-5.5-6.5-13.47-9.8-23.7-9.8-6.64,0-13.24.84-18.76,3.39-2.94,1.36-8.38,4.08-11.38,5.87l.34-6.84H47.67L25,186H47.31l6.61-39.26c1.93,1.3,7.53,6,23.64,5.74,1.33,0,5.64-.38,7-.62,2.1-.35,6.54-1.46,7.12-1.68a48.45,48.45,0,0,0,5.66-2.56,59.15,59.15,0,0,0,18-14.93,64.1,64.1,0,0,0,6.86-10.14,80.69,80.69,0,0,0,5.31-12,89.84,89.84,0,0,0,3.16-14.37,87.51,87.51,0,0,0,1.14-14.26,51.27,51.27,0,0,0-2-14.74A32,32,0,0,0,123.77,55.64Zm-15.1,30.08a70.89,70.89,0,0,1-1.27,13.67c-.28,1.45-3.69,14.72-6.69,19.15h0a33.61,33.61,0,0,1-10.53,10.06,25.45,25.45,0,0,1-12.34,3.47l-2.94.09a33.52,33.52,0,0,1-10.15-1,45.79,45.79,0,0,1-7.52-2.92l8.49-51.54c.48-.11,11.76-9.11,27.5-9.45,5.41,0,9.15,1.38,11.43,4.22C107.07,74.52,108.67,79.79,108.67,85.72Z" transform="translate(-24.97 -16.8)" style="fill:#005282"/><path d="M234.24,55a31,31,0,0,0-11.75-6.85c-4.44-1.46-13.23-4-27-1.31-3.95.83-27.39,6.29-39,29a79.89,79.89,0,0,0-5,11.64,70.58,70.58,0,0,0-3.25,12.4,81.12,81.12,0,0,0-1.08,13.3c0,13,7.59,39.53,45.54,40.24a66.24,66.24,0,0,0,10.76-.74c2.8-.47,6-1.15,9.59-2,5.75-1.5,19.34-6.12,19.34-6.12l3.8-23.52H230l-.86.6a73,73,0,0,1-15.89,8,51.08,51.08,0,0,1-18.08,3.11,29.56,29.56,0,0,1-15.28-3.74,30.54,30.54,0,0,1-4.41-3.28,13.88,13.88,0,0,1-1.09-1.08,20.28,20.28,0,0,1-2-3.17c-2.41-5-3.49-11.68-1.94-16.83,5.52-.15,70.33,0,70.33,0l.59-2.7Q242,98.8,242.57,96c.13-.72,1.51-5.83,1.16-15.74,0-1-.41-5-.56-6C241.75,65.82,238.47,59,234.24,55ZM174.69,85.82c2.19-5.57,7.65-20,29.38-20.55,13.19-.13,16.6,8.67,17.38,14a28.73,28.73,0,0,1,.3,6.55Z" transform="translate(-24.97 -16.8)" style="fill:#005282"/><path d="M310.94,129.47a58,58,0,0,1-6.67,1.95,32.1,32.1,0,0,1-7.51,1.1c-6.24,0-8.54-1.31-9.35-2.09-1.4-1.35-2.11-3.65-2.11-6.85a44.53,44.53,0,0,1,.64-6.38c.44-2.78.94-5.26,1.48-7.38v0l7.48-41.22h32.83l3-20.31H298.18l4.24-27.34h-22.8l-4.35,27.34H264.19l-3.44,20.31h11.17s-9.51,52.4-9.14,59.24c0,8.55,2.6,15,7.74,19.1a25.3,25.3,0,0,0,9,4.52,32.68,32.68,0,0,0,10.11,1.43c6.91.53,24.14-3.19,24.14-3.19l3.54-20.43h-5.77Z" transform="translate(-24.97 -16.8)" style="fill:#005282"/><path d="M414.72,52.3a25.33,25.33,0,0,0-10-4,106.11,106.11,0,0,0-22.47-1.81C366.1,47.37,357,49.57,354,50.39l-2,.54-3.72,22.2h4.24l.59-.24A110.54,110.54,0,0,1,367,68.5a67,67,0,0,1,16.17-2,108.46,108.46,0,0,1,11.1.65A17.38,17.38,0,0,1,400,68.93a8.1,8.1,0,0,1,3.19,2.89,9.37,9.37,0,0,1,1.06,4.84,14.91,14.91,0,0,1-.28,3c-.09.46-.19,1-.3,1.49a228.83,228.83,0,0,0-27.92,2.64,78.8,78.8,0,0,0-23.51,7.37,44.52,44.52,0,0,0-9,6.12,35.68,35.68,0,0,0-6.64,7.84,34.3,34.3,0,0,0-4,9.67,46.56,46.56,0,0,0-1.32,11.32c0,8.06,2.67,14.72,7.92,19.77s12,7.53,20.13,7.53c4.77,0,8.94.08,12.66-.86,9.62-2.54,18-6.32,20.4-8.13l-.65,6.19h22.77S423.4,96,424.84,87c.12-.72.79-4.91,1-6C428.77,61.64,417.92,54.36,414.72,52.3ZM400,100.67l-3.42,21.1c-4,2.79-13.67,11.94-33.89,10.19-7.52-.8-8.06-5.78-8.42-8a17.75,17.75,0,0,1,3.07-12.37,17,17,0,0,1,3.8-3.38,43.64,43.64,0,0,1,10.93-4.11c2.84-.65,5.87-1.16,9.34-1.68C386.76,101.62,393.43,101,400,100.67Z" transform="translate(-24.97 -16.8)" style="fill:#005282"/><polygon points="463.35 21.15 528.97 21.15 531.66 0.02 443.23 0.02 421.72 133.79 444.15 133.79 454.45 72.55 510.21 72.55 514.16 50.95 458 50.95 463.35 21.15" style="fill:#005282"/><path d="M621.1,121.21c-16.7,11.43-25.32,10.61-28.84,10.61-4.69,0-7.94-1.2-9.63-3a11.28,11.28,0,0,1-2.77-7.13c0-.46.07-2.57.15-3.24C582,102,591.16,48.24,591.16,48.24H568l-9.71,64.54s-1.29,9.46-1.08,12.61c0,8.88,2.68,15.81,7.77,20.59a24.59,24.59,0,0,0,9,5.35A35.84,35.84,0,0,0,585.4,153a53.42,53.42,0,0,0,31.1-9l-.78,6.56H638.4l17-102.31H632.7Z" transform="translate(-24.97 -16.8)" style="fill:#005282"/><path d="M758.13,55a30.84,30.84,0,0,0-11.74-6.85c-4.44-1.46-13.23-4-27-1.31-4,.83-27.39,6.29-39,29a78.79,78.79,0,0,0-5,11.64,70.58,70.58,0,0,0-3.25,12.4,81.12,81.12,0,0,0-1.08,13.3c0,13,7.59,39.53,45.54,40.24a66.24,66.24,0,0,0,10.76-.74c2.8-.47,6-1.15,9.58-2,5.76-1.5,19.35-6.12,19.35-6.12l3.8-23.52h-6.15l-.87.6a72.9,72.9,0,0,1-15.88,8,51.08,51.08,0,0,1-18.08,3.11,29.54,29.54,0,0,1-15.28-3.74,31.05,31.05,0,0,1-4.42-3.28c-.21-.19-.9-.85-1.08-1.08a19.56,19.56,0,0,1-2-3.17c-2.41-5-3.49-11.68-1.94-16.83,5.52-.15,70.33,0,70.33,0l.59-2.7c.44-2,.84-4,1.18-5.83.14-.72,1.52-5.83,1.17-15.74,0-1-.41-5-.56-6C765.65,65.82,762.37,59,758.13,55ZM698.59,85.82c2.19-5.57,7.65-20,29.38-20.55,13.19-.13,16.6,8.67,17.38,14a28.73,28.73,0,0,1,.3,6.55Z" transform="translate(-24.97 -16.8)" style="fill:#005282"/><polygon points="778.74 0 756.28 133.77 778.81 133.77 801.11 0 778.74 0" style="fill:#005282"/><polygon points="757.57 21.01 545.77 21.01 549.5 0.05 761.13 0.05 757.57 21.01" style="fill:#005282"/><polygon points="439.57 169.2 42.67 169.2 46.45 148.23 442.84 148.23 439.57 169.2" style="fill:#005282"/></svg>