<?xml version="1.0" encoding="utf-8"?>
<!-- Generator: Adobe Illustrator 25.1.0, SVG Export Plug-In . SVG Version: 6.00 Build 0)  -->
<svg version="1.1" id="Ebene_1" xmlns="http://www.w3.org/2000/svg" xmlns:xlink="http://www.w3.org/1999/xlink" x="0px" y="0px"
	 viewBox="0 0 1507.2 415.3" style="enable-background:new 0 0 1507.2 415.3;" xml:space="preserve">
<style type="text/css">
	.st0{fill:#2395F6;}
	.st1{fill:#4AC091;}
	.st2{fill:#1D1D1B;}
	.st3{fill:#1EB5BC;}
	.st4{enable-background:new    ;}
	.st5{fill:#005282;}
</style>
<g id="S">
	<path class="st0" d="M91.8,84c-4.7-1.3-13.1-3.8-19.5-7.3c-0.7-0.4-12.8-5.3-8.3-16.7c5.5-12.3,24.5-11.6,29-11.4
		c5.8,0.3,10.9,0.9,15.4,2.5c11.2,3.4,11.5,11.9,11.8,14.8c0.3,6.1,6.4,6.2,6.4,6.2h37.4c5-0.6,6.5-4.6,6.2-8.6
		C163.1,10.7,118.2,0.4,86,0C71.3,0,58.6,1.9,48,7C9.4,24.8,12.4,61,12.4,61s-1.6,26.1,23.7,48.2c16.2,13.8,43.4,16.9,60.7,21.8
		c6.7,1.9,28.4,4.2,27.3,24.1c-1.3,15.3-22.9,17.2-22.9,17.2c-44.8,3.5-46.4-18.7-46.6-24.6c0-0.6-0.1-1.2-0.2-1.8
		c0-0.1-0.1-0.2-0.1-0.3c-0.9-2.6-3.4-4.4-6.1-4.4H11.8c-4.2,0-7.5,3.4-7.5,7.5c0,0.5,0.1,1,0.2,1.5l0,0c10.1,60,58.6,73,89.9,73
		c77.1-0.8,79.8-48,79.8-66.6c-0.4-45.4-39.8-59.9-45.4-62c-10.2-3.7-22.7-7-29.1-8.7C97.1,85.3,94.1,84.6,91.8,84z"/>
</g>
<g id="T">
	<path class="st0" d="M352.3,7.8H198.2c-3.7,0-6.6,3-6.7,6.7v36.9c0,3.7,3,6.6,6.7,6.7h45.3c3.7,0,6.7,3,6.7,6.7l0,0v146.9
		c0,3.7,3,6.6,6.7,6.7h36.9c3.7,0,6.6-3,6.7-6.7V64.7c0-3.7,3-6.7,6.7-6.7l0,0h45.3c3.7,0,6.7-3,6.7-6.7V14.5
		C359,10.8,356,7.9,352.3,7.8z"/>
</g>
<g id="_2">
	<path class="st1" d="M1018.7,72.2h36.8c3,0,5.6-2,6.4-4.9c0-0.2,0.2-1,0.2-1.2c0.7-3.4,1.7-6.6,3.2-9.7c1.7-3.7,8.3-11.1,19.9-10.7
		c6.7,0.1,12.8,1.7,16.7,5.2s5.8,8.7,5.8,15.8c-0.1,4.1-1,8.2-2.7,11.9c-0.8,1.6-1.6,3.1-2.6,4.6c-2.4,3.4-6.8,8.7-8.1,10.4
		c-68.4,83.6-88.5,114.9-88.5,114.9c-1.8,3.1-0.8,7.1,2.3,8.9c1,0.6,2.1,0.9,3.3,0.9h146.2c4,0,7.2-2.9,7.2-6.5v-37.2
		c0-3.6-3.2-6.5-7.2-6.5h-52.5c-2.1,0-6.2-2.7-3-6.6l35.4-41.1c8.3-9.6,14.4-18.9,18.3-27.8c3.9-9,6-18.8,5.9-28.6
		c0-17.9-7.2-33.1-21.2-45.2S1110.3,0,1086.3,0c-50.5,0-71.5,41.5-74.4,64.4C1011.6,68.9,1014.6,72.2,1018.7,72.2z"/>
</g>
<g id="y">
	<path class="st0" d="M459,218.2c-3.7,0-6.6-3-6.7-6.7v-60.8c0-3.7-3.5-9.3-5.3-12.4L380.7,13.6c-1.8-3.2-0.3-5.8,3.3-5.8h44.1
		c3.7,0.2,7.2,2,9.5,4.9c0.2,0.3,1,1.8,1,1.8l35.2,70.9c0,0,0.5,0.8,0.5,1c1.6,2.4,4,2.6,5.9,0.7c0.2-0.2,0.4-0.4,0.5-0.7
		c0.2-0.2,0.3-0.6,0.5-0.8s0.3-0.6,0.3-0.6L517.2,14c0,0,0.2-0.4,0.4-0.7c0.2-0.3,0.4-0.6,0.5-0.7c2.4-2.8,5.9-4.5,9.6-4.7h44.3
		c3.7,0,5.1,2.5,3.1,5.7l-67,125.2c-2.1,3.8-3.3,8-3.5,12.3l-2,60.5c0,3.7-3,6.6-6.7,6.7L459,218.2z"/>
</g>
<g id="A">
	<path class="st2" d="M1507.2,129.5C1507.1,129.1,1507.1,129.1,1507.2,129.5z"/>
	<path class="st1" d="M1340.3,14.7c-1.4-3.4-5.5-6.9-9.2-6.9h-59.1c-3.7,0-7.8,3.5-9.2,6.9l-75.8,194.5c-1.3,3.4,0.3,7.3,3.8,8.6
		c0.8,0.3,1.6,0.5,2.4,0.5h37.1c3.8-0.2,7.3-2.2,9.4-5.5c0.1-0.2,0.3-0.7,0.5-1c1.5-3.6,9.6-22.7,11-25.7c1.3-2.6,1.7-2.8,4.4-2.8
		h91.8c2.7,0,3.2,0.1,4.4,2.8s8.3,19.2,10.5,24.6c0.4,0.9,0.8,1.8,1.3,2.6c2.1,3,5.4,4.8,9.1,5h36.3c3.7,0,6.7-3,6.7-6.7
		c0-0.8-0.2-1.6-0.4-2.4L1340.3,14.7z M1328.3,133.1H1275c-1.3,0-2.3-1-2.3-2.3c0-0.3,0.1-0.6,0.2-0.9l26.7-70.5
		c0.5-1.2,1.8-1.7,3-1.2c0.6,0.2,1,0.7,1.2,1.2l26.7,70.5c0.5,1.2-0.1,2.5-1.2,3C1329,133,1328.7,133.1,1328.3,133.1L1328.3,133.1z"
		/>
</g>
<g id="X">
	<path class="st3" d="M729.2,58.1h66.6c2.6,0,4.7-2.1,4.7-4.7V12.6c0-2.6-2.1-4.7-4.7-4.7h-85.7c-3.6,0-7.1,1.6-9.4,4.4l-21.5,25.6
		c-1.5,1.8-4.2,2-6,0.5c-0.3-0.2-0.5-0.5-0.7-0.7l-20.5-27.5c-1.1-1.5-2.9-2.4-4.7-2.4h-45.2c-3.7,0-6.7,3-6.7,6.7
		c0,1.3,0.4,2.6,1.2,3.8l45.2,60.6c0.8,1.1,0.8,2.6-0.1,3.6L597,135.9c-2.3,2.9-1.9,7.1,1,9.4c1.2,1,2.7,1.5,4.2,1.5h44.9
		c3.4,0,6.7-1.5,8.9-4.1l14.5-17.2c1.4-1.6,3.8-1.8,5.4-0.5c0.2,0.2,0.4,0.4,0.6,0.6l12.4,16.3c0.8,1.1,0.8,2.5-0.1,3.6l-17.3,20.8
		c-0.9,1.1-2.3,1.7-3.7,1.7h-67.4c-2.6,0-4.7,2.1-4.7,4.7v40.8c0,2.6,2.1,4.7,4.7,4.7h86.4c3.9,0,7.6-1.7,10.1-4.7l20.5-24.7
		c1.5-1.8,4.2-2.1,6-0.6c0.3,0.2,0.5,0.5,0.7,0.7l18.1,24.2c2.4,3.2,6.1,5,10,5h41.9c3.7,0,6.7-3,6.7-6.7c0-1.3-0.4-2.7-1.2-3.8
		l-44.9-60.2c-0.8-1.1-0.8-2.5,0.1-3.6l44.5-53.4c2.3-2.9,1.8-7.1-1-9.4c-1.2-0.9-2.7-1.5-4.2-1.5h-44.5c-3.7,0-7.2,1.6-9.6,4.5
		l-13.7,16.3c-1.5,1.8-4.2,2.1-6,0.6c-0.3-0.2-0.5-0.5-0.7-0.7l-11.8-15.8c-0.8-1.1-0.8-2.6,0.1-3.6l17.9-21.3
		C726.5,58.7,727.8,58.1,729.2,58.1z"/>
</g>
<g id="S-2">
	<path class="st1" d="M906.4,84c-4.7-1.3-13-3.8-19.5-7.3c-0.7-0.4-12.8-5.3-8.3-16.7c5.5-12.3,24.5-11.6,29-11.4
		c5.8,0.3,10.9,0.9,15.4,2.5c11.2,3.4,11.5,11.9,11.8,14.8c0.3,6.1,6.4,6.2,6.4,6.2h37.4c5-0.6,6.4-4.6,6.2-8.6
		C977.8,10.7,932.8,0.4,900.7,0c-14.7,0-27.4,1.9-38,7C824,24.8,827,61,827,61s-1.5,26.1,23.7,48.2c16.2,13.8,43.4,16.9,60.8,21.8
		c6.7,1.9,28.4,4.2,27.3,24.1c-1.3,15.3-22.9,17.2-22.9,17.2c-44.8,3.5-46.4-18.7-46.6-24.6c0-0.6-0.1-1.2-0.2-1.8
		c0-0.1-0.1-0.2-0.1-0.3c-0.9-2.6-3.4-4.4-6.2-4.4h-36.4c-4.2,0-7.5,3.4-7.5,7.5c0,0.5,0.1,1,0.2,1.5l0,0c10.1,60,58.6,73,89.9,73
		c77.2-0.8,79.8-48,79.8-66.6c-0.4-45.4-39.8-59.9-45.4-62c-10.2-3.7-22.7-7-29-8.7C911.7,85.3,908.7,84.6,906.4,84z"/>
</g>
<g id="slogan">
	<g class="st4">
		<path class="st5" d="M4.2,337.3c0-8.9,1.4-16.8,4.3-23.8c2.9-6.9,6.6-12.8,11.3-17.5c4.7-4.8,10.1-8.4,16.2-10.9
			c6.1-2.5,12.3-3.7,18.7-3.7c6.3,0,11.9,1,17,3c5.1,2,9.4,4.9,13,8.5c3.6,3.7,6.4,8.1,8.4,13.2c2,5.2,3,10.9,3,17.1
			c0,8.9-1.4,16.8-4.3,23.8c-2.9,6.9-6.6,12.8-11.3,17.5c-4.7,4.8-10,8.4-16.1,10.9c-6,2.5-12.2,3.7-18.6,3.7c-6.3,0-11.9-1-17-3
			c-5.1-2-9.4-4.9-13.1-8.6c-3.7-3.7-6.5-8.1-8.5-13.2C5.2,349.2,4.2,343.5,4.2,337.3z M77.3,324.4c0-7.9-2.1-14.2-6.3-18.8
			c-4.2-4.6-10-6.9-17.4-6.9c-4.4,0-8.5,1-12.2,2.9c-3.7,1.9-7,4.6-9.7,8c-2.8,3.4-4.9,7.3-6.5,11.8c-1.5,4.5-2.3,9.3-2.3,14.4
			c0,7.9,2.2,14.2,6.5,18.8c4.3,4.6,10.1,6.9,17.2,6.9c4.2,0,8.2-0.9,11.8-2.7c3.7-1.8,6.9-4.3,9.7-7.6c2.8-3.3,5-7.2,6.6-11.8
			C76.4,334.9,77.2,329.9,77.3,324.4z"/>
		<path class="st5" d="M151.6,283.4c4.2,0,8.1,0.6,11.5,1.9c3.4,1.3,6.4,3.1,8.9,5.4c2.5,2.3,4.4,5,5.8,8.2
			c1.4,3.2,2.1,6.7,2.1,10.5c0,5-0.9,9.5-2.7,13.5c-1.8,4-4.3,7.3-7.5,10.1s-7,4.9-11.5,6.4c-4.5,1.5-9.3,2.2-14.6,2.2H127
			l-7.5,35.6h-18.3l19.9-93.9H151.6z M136.1,299.3l-5.8,26.6h13.1c5,0,9.2-1.3,12.6-3.8c3.4-2.6,5-6.4,5-11.4c0-3.4-1.1-6.1-3.2-8.2
			c-2.2-2.1-5.6-3.2-10.4-3.2H136.1z"/>
		<path class="st5" d="M179.4,377.2l19.9-93.9h58.5l-3.7,17.2h-40.1l-4.6,21.4h36.4l-3.4,16.3h-36.4l-4.6,21.7h40.2l-3.6,17.2H179.4
			z"/>
		<path class="st5" d="M315.5,377.2l-27.1-66.3l-14,66.3h-18.1l19.9-93.9h21l24.9,62.6l13.4-62.6h18.3l-19.9,93.9H315.5z"/>
		<path class="st5" d="M423.9,363.3c4.5,0,8-1.1,10.6-3.2c2.6-2.2,3.9-4.9,4-8.3c0-2.2-0.6-4.2-1.8-6c-1.2-1.8-3.2-3.3-6.2-4.5
			l-11.4-5c-6-2.6-10.5-6-13.6-10.2c-3-4.1-4.6-9.1-4.6-15c0-4.4,0.9-8.4,2.6-12c1.8-3.6,4.1-6.7,7.1-9.3c3-2.6,6.5-4.6,10.6-6.1
			c4.1-1.5,8.3-2.2,12.8-2.2c6.2,0,11.3,0.9,15.4,2.8c4.1,1.9,7.4,4.2,9.9,7c2.5,2.8,4.2,5.7,5.2,8.9c1,3.1,1.5,5.9,1.5,8.4
			l-17.1,2.9c0-0.9-0.2-2.1-0.5-3.7c-0.3-1.6-1-3.2-2.1-4.7c-1.1-1.5-2.6-2.9-4.7-4c-2.1-1.1-4.9-1.7-8.4-1.7c-2.1,0-4,0.3-5.8,1
			c-1.7,0.7-3.2,1.5-4.4,2.6c-1.2,1.1-2.2,2.4-2.8,3.8c-0.7,1.4-1,2.9-1,4.5c0,2.6,0.7,4.7,2.1,6.4c1.4,1.7,3.2,3,5.3,4l10.9,4.8
			c7,3.1,12,6.8,15,11.1c3,4.3,4.6,9.2,4.6,14.9c0,3.7-0.8,7.3-2.2,10.7c-1.5,3.4-3.7,6.5-6.5,9.2c-2.8,2.7-6.3,4.9-10.4,6.5
			c-4.1,1.6-8.8,2.4-14,2.4c-6.5,0-12-1-16.5-3c-4.5-2-8.1-4.5-10.9-7.5c-2.8-3-4.9-6.3-6.1-9.9c-1.2-3.6-1.9-7.1-1.9-10.3
			c0-0.3,0-0.7,0-1.3c0-0.6,0.1-1.1,0.3-1.5l17.1-2.9c-0.1,0.6-0.1,1.1-0.1,1.5c0,0.4,0,0.8,0,1.3c0,2.2,0.3,4.3,1,6.4
			c0.7,2.1,1.7,4,3.2,5.6c1.5,1.7,3.3,3,5.6,4C418,362.7,420.7,363.2,423.9,363.3z"/>
		<path class="st5" d="M470.5,337.3c0-8.9,1.4-16.8,4.3-23.8c2.9-6.9,6.6-12.8,11.3-17.5c4.7-4.8,10.1-8.4,16.2-10.9
			c6.1-2.5,12.3-3.7,18.7-3.7c6.3,0,11.9,1,17,3c5.1,2,9.4,4.9,13,8.5c3.6,3.7,6.4,8.1,8.4,13.2c2,5.2,3,10.9,3,17.1
			c0,8.9-1.4,16.8-4.3,23.8c-2.9,6.9-6.6,12.8-11.3,17.5c-4.7,4.8-10,8.4-16.1,10.9c-6,2.5-12.2,3.7-18.6,3.7c-6.3,0-11.9-1-17-3
			c-5.1-2-9.4-4.9-13.1-8.6c-3.7-3.7-6.5-8.1-8.5-13.2C471.5,349.2,470.5,343.5,470.5,337.3z M543.5,324.4c0-7.9-2.1-14.2-6.3-18.8
			c-4.2-4.6-10-6.9-17.4-6.9c-4.4,0-8.5,1-12.2,2.9c-3.7,1.9-6.9,4.6-9.7,8c-2.8,3.4-4.9,7.3-6.5,11.8c-1.5,4.5-2.3,9.3-2.3,14.4
			c0,7.9,2.2,14.2,6.5,18.8c4.3,4.6,10.1,6.9,17.2,6.9c4.2,0,8.2-0.9,11.8-2.7c3.7-1.8,6.9-4.3,9.7-7.6c2.8-3.3,5-7.2,6.6-11.8
			C542.6,334.9,543.5,329.9,543.5,324.4z"/>
		<path class="st5" d="M656.6,283.4L643,347.6c-1.1,5.2-2.8,9.8-5.1,13.7c-2.3,3.9-5.1,7.2-8.3,9.9c-3.2,2.6-6.9,4.7-10.9,6
			c-4.1,1.4-8.4,2.1-13,2.1c-4.9,0-9.4-0.7-13.5-2.1c-4.1-1.4-7.5-3.4-10.4-6c-2.9-2.6-5.1-5.8-6.7-9.5c-1.6-3.7-2.4-7.9-2.4-12.4
			c0-2.7,0.4-5.8,1.1-9.1l11.9-56.7h18.3l-12,57.5c-0.2,1.1-0.3,2.1-0.5,3c-0.1,1-0.2,1.9-0.2,2.9c0,4.4,1.3,8,3.8,10.7
			c2.5,2.7,6.6,4,12.1,4c9.7,0,15.8-5.6,18.1-16.9l12.8-61.2H656.6z"/>
		<path class="st5" d="M694.7,341h-11.9l-7.7,36.3h-18.3l19.9-93.9h32.7c4.3,0,8.2,0.6,11.5,1.9c3.4,1.2,6.2,2.9,8.5,5
			c2.3,2.1,4,4.7,5.2,7.6c1.1,3,1.7,6.2,1.7,9.6c0,4-0.6,7.6-1.8,11c-1.2,3.4-2.8,6.4-4.9,9c-2.1,2.6-4.5,4.9-7.4,6.8
			c-2.9,1.9-6,3.3-9.5,4.4l14.6,38.7h-19.5L694.7,341z M700.1,325.1c5.3,0,9.5-1.4,12.7-4.2c3.2-2.8,4.8-6.5,4.8-11.1
			c0-3.2-1-5.7-3-7.7c-2-1.9-5.1-2.9-9.3-2.9h-13.6l-5.6,25.8H700.1z"/>
		<path class="st5" d="M794.5,281.4c6.4,0,11.8,0.9,16.5,2.7c4.6,1.8,8.5,4.2,11.7,7.1c3.2,2.9,5.7,6.2,7.5,9.8
			c1.8,3.6,3,7.2,3.6,10.7l-17.7,5.3c-0.4-2.1-1.2-4.3-2.3-6.4c-1.1-2.2-2.5-4.1-4.4-5.9c-1.9-1.8-4.1-3.2-6.8-4.3
			c-2.6-1.1-5.8-1.7-9.5-1.7c-4.2,0-8.2,0.9-12,2.6c-3.8,1.8-7,4.3-9.9,7.5c-2.8,3.3-5.1,7.1-6.8,11.6c-1.7,4.5-2.5,9.5-2.5,15.1
			c0,3.9,0.6,7.4,1.7,10.6c1.1,3.2,2.7,5.9,4.8,8.2c2.1,2.3,4.7,4.1,7.7,5.4c3,1.3,6.4,1.9,10.2,1.9c3.4,0,6.4-0.5,9-1.5
			c2.6-1,5-2.3,7-4c2-1.6,3.7-3.5,5.2-5.6s2.7-4.3,3.6-6.5l16.4,6.6c-1.4,3.4-3.3,6.9-5.8,10.3c-2.4,3.4-5.4,6.5-8.9,9.2
			c-3.5,2.7-7.6,4.9-12.2,6.6c-4.7,1.7-10,2.5-15.9,2.5c-6.2,0-11.8-1.1-16.9-3.2c-5.1-2.1-9.4-5.1-13.1-8.9
			c-3.7-3.8-6.5-8.3-8.5-13.5c-2-5.2-3-10.9-3-17.1c0-8.8,1.5-16.7,4.4-23.5c2.9-6.8,6.8-12.6,11.5-17.3c4.8-4.7,10.2-8.3,16.3-10.8
			C781.8,282.6,788.1,281.4,794.5,281.4z"/>
		<path class="st5" d="M835,377.2l19.9-93.9h58.5l-3.7,17.2h-40.1L865,322h36.4l-3.4,16.3h-36.4l-4.6,21.7h40.2l-3.6,17.2H835z"/>
		<path class="st5" d="M1000.9,281.4c6.4,0,11.8,0.9,16.5,2.7c4.6,1.8,8.5,4.2,11.7,7.1c3.2,2.9,5.7,6.2,7.5,9.8
			c1.8,3.6,3,7.2,3.6,10.7l-17.7,5.3c-0.4-2.1-1.2-4.3-2.3-6.4c-1.1-2.2-2.5-4.1-4.4-5.9c-1.9-1.8-4.1-3.2-6.8-4.3
			c-2.6-1.1-5.8-1.7-9.5-1.7c-4.2,0-8.2,0.9-12,2.6c-3.8,1.8-7,4.3-9.9,7.5c-2.8,3.3-5.1,7.1-6.8,11.6c-1.7,4.5-2.5,9.5-2.5,15.1
			c0,3.9,0.6,7.4,1.7,10.6c1.1,3.2,2.7,5.9,4.8,8.2c2.1,2.3,4.7,4.1,7.7,5.4c3,1.3,6.4,1.9,10.2,1.9c3.4,0,6.4-0.5,9-1.5
			c2.6-1,5-2.3,7-4c2-1.6,3.7-3.5,5.2-5.6s2.7-4.3,3.6-6.5l16.4,6.6c-1.4,3.4-3.3,6.9-5.8,10.3c-2.4,3.4-5.4,6.5-8.9,9.2
			c-3.5,2.7-7.6,4.9-12.2,6.6c-4.7,1.7-10,2.5-15.9,2.5c-6.2,0-11.8-1.1-16.9-3.2c-5.1-2.1-9.4-5.1-13.1-8.9
			c-3.7-3.8-6.5-8.3-8.5-13.5c-2-5.2-3-10.9-3-17.1c0-8.8,1.5-16.7,4.4-23.5c2.9-6.8,6.8-12.6,11.5-17.3c4.8-4.7,10.2-8.3,16.3-10.8
			C988.2,282.6,994.5,281.4,1000.9,281.4z"/>
		<path class="st5" d="M1041.4,377.2l19.9-93.9h18.3l-16.2,76.4h40.8l-3.7,17.5H1041.4z"/>
		<path class="st5" d="M1114.5,377.2l19.9-93.9h18.5l-19.9,93.9H1114.5z"/>
		<path class="st5" d="M1154.5,377.2l19.9-93.9h58.5l-3.7,17.2H1189l-4.6,21.4h36.4l-3.4,16.3h-36.4l-4.6,21.7h40.2l-3.6,17.2
			H1154.5z"/>
		<path class="st5" d="M1290.5,377.2l-27.1-66.3l-14,66.3h-18.1l19.9-93.9h21L1297,346l13.4-62.6h18.3l-19.9,93.9H1290.5z"/>
		<path class="st5" d="M1384.8,300.7l-16.2,76.5h-18.3l16.2-76.5h-28.5l3.7-17.3h74l-3.7,17.3H1384.8z"/>
	</g>
</g>
</svg>
