<?xml version="1.0" encoding="utf-8"?>
<!-- Generator: Adobe Illustrator 24.0.2, SVG Export Plug-In . SVG Version: 6.00 Build 0)  -->
<svg version="1.1" id="logo" xmlns="http://www.w3.org/2000/svg" xmlns:xlink="http://www.w3.org/1999/xlink" x="0px" y="0px"
	 viewBox="0 0 801.1099854 169.1999969" style="enable-background:new 0 0 801.1099854 169.1999969;" xml:space="preserve">
<style type="text/css">
	.st0{fill:#FFFFFF;}
</style>
<title>01_pf_logo_rgb</title>
<path class="st0" d="M98.7999954,38.8400002c-5.5-6.5-13.4700012-9.7999992-23.7000046-9.7999992
	c-6.6399994,0-13.2399979,0.8400002-18.7600021,3.3899994c-2.9400024,1.3600006-8.3799973,4.079998-11.3799973,5.8699989
	l0.3399963-6.8400002H22.6999989L0.0300007,169.1999969h22.3100014l6.6100006-39.2599945
	c1.9300003,1.3000031,7.5300007,6,23.6399937,5.7400055c1.3300018,0,5.6399994-0.3800049,7-0.6199951
	c2.0999985-0.3500061,6.5400009-1.4600067,7.1200027-1.6799927c1.9394836-0.7313843,3.8300323-1.5864716,5.659996-2.5599976
	c6.933815-3.7291412,13.0534058-8.8049927,18-14.9299927c2.6049423-3.1533966,4.9020844-6.5488739,6.8600006-10.1399994
	c2.0928574-3.8491974,3.8687286-7.8624725,5.3099976-12c1.444458-4.6955414,2.5013428-9.5016632,3.1600037-14.3699951
	c0.7685394-4.7142639,1.1498108-9.4835205,1.1399994-14.2600098c0.053421-4.9844322-0.6203308-9.9500084-2-14.739994
	C103.6390991,46.1599503,101.5831833,42.2319183,98.7999954,38.8400002z M83.6999969,68.9199982
	c0.0199356,4.5870209-0.4053879,9.1651611-1.2699966,13.6699982c-0.2799988,1.4499969-3.6900024,14.7200012-6.6900024,19.1500092
	l0,0c-2.7325897,4.0826111-6.3269577,7.5165405-10.5299988,10.0599976
	c-3.7498932,2.1905823-7.9979782,3.3851471-12.340004,3.4700012l-2.9400024,0.0899963
	c-3.4145355,0.1863556-6.8374863-0.1508789-10.1500015-1c-2.5876923-0.7501984-5.1041183-1.7273254-7.5199966-2.9199982
	l8.4899979-51.5399971c0.4800034-0.1100006,11.7600021-9.1100006,27.5-9.4499969
	c5.409996,0,9.1500015,1.3799973,11.4300003,4.2200012C82.0999985,57.7199974,83.6999969,62.9900017,83.6999969,68.9199982z"/>
<path class="st0" d="M209.2700043,38.2000008c-3.3613129-3.1249733-7.3745575-5.4646072-11.75-6.8499985
	c-4.4400024-1.4599991-13.2299957-4-27-1.3100014c-3.9499969,0.8300018-27.3899994,6.2900009-39,28.9999962
	c-1.9721527,3.7415314-3.6440735,7.63377-5,11.6399956c-1.4572144,4.0261993-2.5450439,8.176651-3.25,12.4000092
	c-0.7246399,4.3961487-1.0858612,8.8445282-1.0800018,13.3000031c0,13,7.5899963,39.5299835,45.5400085,40.2399902
	c3.6008148,0.0462189,7.1994019-0.2012634,10.7599945-0.7400055c2.8000031-0.4700012,6-1.1499939,9.5899963-2
	c5.75-1.5,19.3399963-6.1199951,19.3399963-6.1199951l3.8000031-23.5200043h-6.1900024l-0.8600006,0.6000061
	c-4.9507141,3.3045044-10.2869873,5.9911194-15.8899994,7.9999847c-5.7895966,2.1192932-11.9150391,3.1729431-18.0800018,3.1100006
	c-5.3376465,0.1563568-10.6179657-1.1360779-15.2799988-3.7400055c-1.5655975-0.9585724-3.0415649-2.0563354-4.4100037-3.2799988
	c-0.3829651-0.3396301-0.7468567-0.7001801-1.0899963-1.0800018c-0.763092-0.9926605-1.4326172-2.0538483-2-3.1699982
	c-2.4100037-5-3.4900055-11.6799927-1.9400024-16.8300018c5.5200043-0.1499939,70.3300018,0,70.3300018,0l0.5899963-2.6999969
	c0.4199982-2.0999756,0.8200073-4.083313,1.2000122-5.9499817c0.1300049-0.7200012,1.5099945-5.8300018,1.1600037-15.739994
	c0-1-0.4100037-5-0.5599976-6C216.7799988,49.0200005,213.5,42.2000008,209.2700043,38.2000008z M149.7200012,69.0200043
	c2.1900024-5.5700035,7.6499939-20.0000038,29.3800049-20.5499992c13.1900024-0.1299973,16.6000061,8.6699982,17.3800049,14
	c0.3496399,2.1647301,0.4502869,4.3623772,0.3000031,6.5499992H149.7200012z"/>
<path class="st0" d="M285.9700012,112.6699982c-2.182373,0.7827301-4.4096985,1.4338989-6.6700134,1.9499969
	c-2.4510193,0.662384-4.9719849,1.0316315-7.5100098,1.1000061c-6.2399902,0-8.5400085-1.3099976-9.3500061-2.0899963
	c-1.3999939-1.3500061-2.1099854-3.6499939-2.1099854-6.8499908c0.0597534-2.1392822,0.2736511-4.2714844,0.6400146-6.3800049
	c0.4400024-2.7799988,0.9400024-5.2599945,1.480011-7.3799896l0,0l7.480011-41.220005h32.8300171l3-20.3099976h-32.5500488
	l4.2399902-27.3400002h-22.7999878l-4.3500061,27.3400002h-11.0799866l-3.4400024,20.3099976h11.1700134
	c0,0-9.5100098,52.3999977-9.1400146,59.239994c0,8.5500031,2.6000061,15,7.7399902,19.1000061
	c2.6667786,2.0945892,5.727417,3.6316986,9,4.5200043c3.2742615,1.0034332,6.6858826,1.4859924,10.1099854,1.4299927
	c6.9100037,0.5299988,24.1399841-3.1900024,24.1399841-3.1900024l3.5400085-20.4299927h-5.769989L285.9700012,112.6699982z"/>
<path class="st0" d="M389.75,35.5c-3.0080566-2.0347786-6.418457-3.3989449-10-4
	c-7.40448-1.3994942-14.9369812-2.0062523-22.4700012-1.8100014c-16.1499939,0.8800011-25.25,3.0800018-28.25,3.9000015
	l-2,0.5400009l-3.7200012,22.2000046h4.2399902l0.5899963-0.2399979c4.5284424-1.7671509,9.1685181-3.2336731,13.8900146-4.390007
	c5.2885742-1.3219986,10.7187195-1.9936371,16.1700134-2c3.7086792,0.026741,7.4135437,0.2436981,11.1000061,0.6500015
	c1.9987488,0.2566605,3.9376221,0.858963,5.7299805,1.7799988c1.3045349,0.6579971,2.4067688,1.6565933,3.1900024,2.8899994
	c0.7812195,1.4889984,1.1473389,3.1607819,1.0599976,4.840004c0.0082092,1.0068893-0.0856018,2.0120163-0.2799988,3
	c-0.0899963,0.4599991-0.1900024,1-0.2999878,1.4900017c-9.3518982,0.3083344-18.6760559,1.1899872-27.9200134,2.6399994
	c-8.1746216,1.2087555-16.1082458,3.695816-23.5100098,7.3699951c-3.2390137,1.6642456-6.2615967,3.7196045-9,6.1200104
	c-2.5799866,2.2793121-4.8164978,4.9200134-6.6400146,7.8399963c-1.8200989,2.9997711-3.1691284,6.2610474-4,9.6699982
	c-0.901886,3.7050476-1.3452148,7.5068512-1.3200073,11.3200073c0,8.0599976,2.6700134,14.719986,7.9200134,19.769989
	s12,7.5299988,20.1300049,7.5299988c4.769989,0,8.9400024,0.0800018,12.6600037-0.8600006
	c9.6199951-2.5399933,18-6.3200073,20.3999939-8.1300049l-0.6499939,6.1900024h22.769989
	c0,0,8.8900146-54.6100006,10.3300171-63.6100006c0.1199951-0.7200012,0.7900085-4.9100037,1-6
	C403.7999878,44.8400002,392.9500122,37.5600014,389.75,35.5z M375.0299988,83.8699951l-3.4200134,21.1000061
	c-4,2.7899933-13.6700134,11.9399872-33.8899841,10.1899872c-7.519989-0.8000031-8.0599976-5.7799988-8.4200134-8
	c-0.5433655-4.3612061,0.5505371-8.7689209,3.0700073-12.3699951c1.0900269-1.3108368,2.3710022-2.4502411,3.7999878-3.3800049
	c3.442749-1.8534546,7.118988-3.2358246,10.9299927-4.1100006c2.8399963-0.6499939,5.8699951-1.1600037,9.3399963-1.6799927
	C361.7900085,84.8200073,368.4599915,84.1999969,375.0299988,83.8699951z"/>
<polygon class="st0" points="463.3500061,21.1499996 528.9699707,21.1499996 531.6599731,0.02 443.230011,0.02 
	421.7200012,133.7899933 444.1499939,133.7899933 454.4500122,72.5500031 510.2099915,72.5500031 514.1599731,50.9500008 
	458,50.9500008 "/>
<path class="st0" d="M596.1300049,104.4100037c-16.7000122,11.4299927-25.3200073,10.6099854-28.8400269,10.6099854
	c-4.6900024,0-7.9400024-1.1999969-9.6300049-3c-1.7255859-1.9815063-2.7052612-4.5032501-2.7700195-7.1299896
	c0-0.4600067,0.0700073-2.5700073,0.1500244-3.2400055c1.9900513-16.4499969,11.1500244-70.2099915,11.1500244-70.2099915
	h-23.1599731l-9.710022,64.5399933c0,0-1.289978,9.4600067-1.0800171,12.6100006
	c0,8.8800049,2.6799927,15.8099976,7.7700195,20.5899963c2.5811768,2.4087372,5.6506958,4.233429,9,5.3500061
	c3.6914673,1.1699677,7.5481567,1.7339478,11.4200439,1.6699982c11.0480347,0.2893066,21.9138794-2.8551483,31.0999756-9
	L590.75,133.7599945h22.6800537l17-102.3099976h-22.7000122L596.1300049,104.4100037z"/>
<path class="st0" d="M733.1600342,38.2000008c-3.3552246-3.1280212-7.3659058-5.4681854-11.7399902-6.8499985
	c-4.4400024-1.4599991-13.2299805-4-27-1.3100014c-4,0.8300018-27.3900146,6.2900009-39,28.9999962
	c-1.9763794,3.739502-3.6484985,7.6320763-5,11.6399956c-1.4572144,4.0261993-2.5450439,8.176651-3.25,12.4000092
	c-0.7246704,4.3961487-1.0858765,8.8445282-1.0800171,13.3000031c0,13,7.5900269,39.5299835,45.539978,40.2399902
	c3.6008301,0.0462189,7.1994019-0.2012634,10.7600098-0.7400055c2.7999878-0.4700012,6-1.1499939,9.5800171-2
	c5.7600098-1.5,19.3499756-6.1199951,19.3499756-6.1199951l3.7999878-23.5200043h-6.1500244l-0.8699951,0.6000061
	c-4.9470825,3.3046417-10.2800903,5.9912872-15.8800049,7.9999847c-5.7896118,2.1192932-11.9150391,3.1729431-18.0800171,3.1100006
	c-5.3377686,0.1573639-10.6183472-1.1351318-15.2800293-3.7400055c-1.5675049-0.9603424-3.0466309-2.0579834-4.4199829-3.2799988
	c-0.210022-0.1900024-0.9000244-0.8499908-1.0800171-1.0800018c-0.7666016-0.9902039-1.4363403-2.0517426-2-3.1699982
	c-2.4099731-5-3.4899902-11.6799927-1.9400024-16.8300018c5.5200195-0.1499939,70.3300171,0,70.3300171,0l0.5900269-2.6999969
	c0.4400024-2,0.8400269-4,1.1799927-5.8300018c0.1400146-0.7200012,1.5200195-5.8300018,1.1699829-15.739994
	c0-1-0.4099731-5-0.5599976-6C740.6800537,49.0200005,737.4000244,42.2000008,733.1600342,38.2000008z M673.6200562,69.0200043
	c2.1900024-5.5700035,7.6500244-20.0000038,29.3800049-20.5499992c13.1900024-0.1299973,16.5999756,8.6699982,17.3800049,14
	c0.3496094,2.1647301,0.4502563,4.3623772,0.2999878,6.5499992H673.6200562z"/>
<polygon class="st0" points="778.7399902,0 756.2800293,133.7700043 778.8099976,133.7700043 801.1099854,0 "/>
<polygon class="st0" points="757.5700073,21.0100002 545.7700195,21.0100002 549.5,0.05 761.1300049,0.05 "/>
<polygon class="st0" points="439.5700073,169.1999969 42.6699982,169.1999969 46.4500008,148.2299957 442.8399963,148.2299957 "/>
</svg>
